<svg width="77" height="57" viewBox="0 0 77 57" fill="none" xmlns="http://www.w3.org/2000/svg">
<path d="M4.11035 36.03H72.7703" stroke="#E1CEB2" stroke-width="3" stroke-linecap="round" stroke-linejoin="round"/>
<path d="M61.0498 36.03V3.98" stroke="#E1CEB2" stroke-width="3" stroke-linecap="round" stroke-linejoin="round"/>
<path d="M15.8398 36.03V3.98" stroke="#E1CEB2" stroke-width="3" stroke-linecap="round" stroke-linejoin="round"/>
<path d="M2 29.93C5.5 27.19 15.84 17.75 15.84 2C15.84 20.95 29.5 24.54 38.45 24.54C47.4 24.54 61.05 20.95 61.05 2C61.05 17.75 71.39 27.19 74.89 29.93" stroke="#E1CEB2" stroke-width="3" stroke-linecap="round" stroke-linejoin="round"/>
<path d="M23.3701 20.71V36.03" stroke="#E1CEB2" stroke-width="3" stroke-linecap="round" stroke-linejoin="round"/>
<path d="M30.9102 23.62V36.03" stroke="#E1CEB2" stroke-width="3" stroke-linecap="round" stroke-linejoin="round"/>
<path d="M53.5098 20.01V36.03" stroke="#E1CEB2" stroke-width="3" stroke-linecap="round" stroke-linejoin="round"/>
<path d="M45.9805 23.62V36.03" stroke="#E1CEB2" stroke-width="3" stroke-linecap="round" stroke-linejoin="round"/>
<path d="M38.4502 24.54V36.03" stroke="#E1CEB2" stroke-width="3" stroke-linecap="round" stroke-linejoin="round"/>
<path d="M16.4404 35.26L16.4504 56.29" stroke="#E1CEB2" stroke-width="3" stroke-miterlimit="10"/>
<path d="M61.4404 35.26L61.4504 56.29" stroke="#E1CEB2" stroke-width="3" stroke-miterlimit="10"/>
</svg>
