<svg width="38" height="72" viewBox="0 0 38 72" fill="none" xmlns="http://www.w3.org/2000/svg">
<path d="M35.5905 51.491V43.8407C36.5337 43.7945 37.287 43.015 37.287 42.061C37.287 41.0773 36.4872 40.277 35.5029 40.277H34.0739V35.2998C34.9308 35.17 35.5905 34.4307 35.5905 33.538C35.5905 32.6559 34.9463 31.9233 34.1043 31.7809L31.146 26.5345V20.8254C31.146 20.5581 30.929 20.3414 30.6619 20.3414H27.6535L19.6276 6.10778V1.48398C19.6276 1.21669 19.4107 1 19.1436 1C18.8763 1 18.6596 1.21669 18.6596 1.48398V6.10723L10.6333 20.3409H7.62515C7.35787 20.3409 7.14118 20.5578 7.14118 20.8249V26.534L4.18269 31.7803C3.34068 31.9228 2.69648 32.6553 2.69648 33.5375C2.69648 34.4301 3.35627 35.1696 4.21331 35.2992V40.2765H2.78411C1.80039 40.2765 1 41.0767 1 42.0604C1 43.0148 1.75346 43.7941 2.69648 43.8401V51.4904C1.75346 51.5366 1 52.316 1 53.27C1 54.224 1.75346 55.0035 2.69648 55.0497V70.516C2.69648 70.7833 2.91317 71 3.18046 71H35.1062C35.3737 71 35.5904 70.7833 35.5904 70.516V55.0502C36.5336 55.004 37.2872 54.2247 37.2872 53.2705C37.2872 52.3163 36.5336 51.537 35.5905 51.491ZM8.04662 26.8988C8.0875 26.8264 8.10895 26.7444 8.10895 26.661V21.309H10.916C11.0907 21.309 11.2519 21.215 11.3375 21.0628L19.1434 7.22001L26.9496 21.0628C27.0355 21.215 27.1967 21.309 27.371 21.309H30.1781V26.661C30.1781 26.7444 30.1995 26.8264 30.2408 26.8988L32.9782 31.7536H5.30922L8.04662 26.8988ZM3.66443 33.5375C3.66443 33.0874 4.03053 32.7213 4.48059 32.7213H33.8066C34.2563 32.7213 34.6222 33.0874 34.6222 33.5375C34.6222 33.9876 34.2563 34.3537 33.8066 34.3537H33.5896H4.69747H4.48078C4.03053 34.3537 3.66443 33.9876 3.66443 33.5375ZM33.1056 35.3216V40.2767H5.18126V35.3216H33.1056ZM1.96795 42.0606C1.96795 41.6107 2.33405 41.2446 2.78411 41.2446H4.69728H33.5896H35.5027C35.9532 41.2446 36.3191 41.6107 36.3191 42.0606C36.3191 42.5109 35.9532 42.877 35.5027 42.877H35.1064H3.18046H2.78411C2.33405 42.877 1.96795 42.5109 1.96795 42.0606ZM34.6222 43.8447V51.4866H3.66443V43.8447H34.6222ZM34.6222 70.0326H3.66443V55.0548H34.6222V70.0326ZM35.5027 54.0867H35.1064H3.18046H2.78411C2.33405 54.0867 1.96795 53.7206 1.96795 53.2705C1.96795 52.8206 2.33405 52.4545 2.78411 52.4545H3.18046H35.1064H35.5027C35.9528 52.4545 36.3191 52.8206 36.3191 53.2705C36.3191 53.7206 35.9532 54.0867 35.5027 54.0867Z" fill="#E1CEB2" stroke="#E1CEB2"/>
<path d="M7.12948 64.7917H10.741C11.0083 64.7917 11.2249 64.575 11.2249 64.3076V58.2401C11.2249 57.973 11.0083 57.7561 10.741 57.7561H7.12948C6.8622 57.7561 6.64551 57.973 6.64551 58.2401V64.3076C6.64551 64.575 6.8622 64.7917 7.12948 64.7917ZM7.61328 58.7242H10.2568V63.8234H7.61328V58.7242Z" fill="#E1CEB2" stroke="#E1CEB2"/>
<path d="M17.3375 64.7917H20.949C21.2161 64.7917 21.4331 64.575 21.4331 64.3076V58.2401C21.4331 57.973 21.2161 57.7561 20.949 57.7561H17.3375C17.0702 57.7561 16.8535 57.973 16.8535 58.2401V64.3076C16.8535 64.575 17.0702 64.7917 17.3375 64.7917ZM17.8215 58.7242H20.4648V63.8234H17.8215V58.7242Z" fill="#E1CEB2" stroke="#E1CEB2"/>
<path d="M27.5453 64.7917H31.1566C31.4241 64.7917 31.6408 64.575 31.6408 64.3076V58.2401C31.6408 57.973 31.4241 57.7561 31.1566 57.7561H27.5453C27.2778 57.7561 27.0615 57.973 27.0615 58.2401V64.3076C27.0615 64.575 27.2778 64.7917 27.5453 64.7917ZM28.0295 58.7242H30.673V63.8234H28.0295V58.7242Z" fill="#E1CEB2" stroke="#E1CEB2"/>
<path d="M5.68808 50.3683H8.72869C8.99598 50.3683 9.21267 50.1516 9.21267 49.8842V46.9671C9.21267 45.862 8.31365 44.9626 7.20839 44.9626C6.10312 44.9626 5.2041 45.8617 5.2041 46.9671V49.8842C5.2041 50.1516 5.42079 50.3683 5.68808 50.3683ZM6.17224 46.9671C6.17224 46.3959 6.63715 45.931 7.20857 45.931C7.77999 45.931 8.2449 46.3959 8.2449 46.9671V49.4002H6.17224V46.9671Z" fill="#E1CEB2" stroke="#E1CEB2"/>
<path d="M11.6559 50.3683H14.6965C14.9638 50.3683 15.1804 50.1516 15.1804 49.8842V46.9671C15.1804 45.862 14.2814 44.9626 13.1762 44.9626C12.0709 44.9626 11.1719 45.8617 11.1719 46.9671V49.8842C11.1721 50.1516 11.3886 50.3683 11.6559 50.3683ZM12.1398 46.9671C12.1398 46.3959 12.6047 45.931 13.1762 45.931C13.7476 45.931 14.2125 46.3959 14.2125 46.9671V49.4002H12.1398V46.9671Z" fill="#E1CEB2" stroke="#E1CEB2"/>
<path d="M17.6236 50.3683H20.6642C20.9317 50.3683 21.148 50.1516 21.148 49.8842V46.9671C21.148 45.862 20.249 44.9626 19.1439 44.9626C18.0389 44.9626 17.1396 45.8617 17.1396 46.9671V49.8842C17.1396 50.1516 17.3563 50.3683 17.6236 50.3683ZM18.1078 46.9671C18.1078 46.3959 18.5727 45.931 19.1441 45.931C19.7161 45.931 20.1804 46.3959 20.1804 46.9671V49.4002H18.1078V46.9671Z" fill="#E1CEB2" stroke="#E1CEB2"/>
<path d="M23.5906 50.3683H26.6312C26.8987 50.3683 27.1154 50.1516 27.1154 49.8842V46.9671C27.1154 45.862 26.2164 44.9626 25.1109 44.9626C24.006 44.9626 23.1064 45.8617 23.1064 46.9671V49.8842C23.1064 50.1516 23.3235 50.3683 23.5906 50.3683ZM24.0746 46.9671C24.0746 46.3959 24.5393 45.931 25.1107 45.931C25.6822 45.931 26.1472 46.3959 26.1472 46.9671V49.4002H24.0742V46.9671H24.0746Z" fill="#E1CEB2" stroke="#E1CEB2"/>
<path d="M29.558 50.3683H32.599C32.8665 50.3683 33.0828 50.1516 33.0828 49.8842V46.9671C33.0828 45.862 32.1841 44.9626 31.0783 44.9626C29.9738 44.9626 29.0742 45.8617 29.0742 46.9671V49.8842C29.0744 50.1516 29.2909 50.3683 29.558 50.3683ZM30.0422 46.9671C30.0422 46.3959 30.5073 45.931 31.0783 45.931C31.6497 45.931 32.1145 46.3959 32.1145 46.9671V49.4002H30.042V46.9671H30.0422Z" fill="#E1CEB2" stroke="#E1CEB2"/>
<path d="M8.20761 39.7998H10.2405C10.5078 39.7998 10.7245 39.5831 10.7245 39.3159V36.5229C10.7245 36.2556 10.5078 36.0389 10.2405 36.0389H8.20761C7.94032 36.0389 7.72363 36.2556 7.72363 36.5229V39.3159C7.72345 39.5831 7.94032 39.7998 8.20761 39.7998ZM8.69159 37.0069H9.75651V38.8319H8.69159V37.0069Z" fill="#E1CEB2" stroke="#E1CEB2"/>
<path d="M13.1666 39.7998H15.1995C15.4668 39.7998 15.6835 39.5831 15.6835 39.3159V36.5229C15.6835 36.2556 15.4668 36.0389 15.1995 36.0389H13.1666C12.8993 36.0389 12.6826 36.2556 12.6826 36.5229V39.3159C12.6826 39.5831 12.8995 39.7998 13.1666 39.7998ZM13.6506 37.0069H14.7155V38.8319H13.6506V37.0069Z" fill="#E1CEB2" stroke="#E1CEB2"/>
<path d="M18.1266 39.7998H20.1596C20.4267 39.7998 20.6434 39.5831 20.6434 39.3159V36.5229C20.6434 36.2556 20.4267 36.0389 20.1596 36.0389H18.1266C17.8593 36.0389 17.6426 36.2556 17.6426 36.5229V39.3159C17.6426 39.5831 17.8593 39.7998 18.1266 39.7998ZM18.6107 37.0069H19.6758V38.8319H18.6107V37.0069Z" fill="#E1CEB2" stroke="#E1CEB2"/>
<path d="M23.0867 39.7998H25.1194C25.3869 39.7998 25.6036 39.5831 25.6036 39.3159V36.5229C25.6036 36.2556 25.3869 36.0389 25.1194 36.0389H23.0867C22.8192 36.0389 22.6025 36.2556 22.6025 36.5229V39.3159C22.6025 39.5831 22.8192 39.7998 23.0867 39.7998ZM23.5707 37.0069H24.6356V38.8319H23.5707V37.0069Z" fill="#E1CEB2" stroke="#E1CEB2"/>
<path d="M28.0467 39.7998H30.0794C30.3468 39.7998 30.5635 39.5831 30.5635 39.3159V36.5229C30.5635 36.2556 30.3468 36.0389 30.0794 36.0389H28.0467C27.7792 36.0389 27.5625 36.2556 27.5625 36.5229V39.3159C27.5627 39.5831 27.7792 39.7998 28.0467 39.7998ZM28.5305 37.0069H29.5954V38.8319H28.5305V37.0069Z" fill="#E1CEB2" stroke="#E1CEB2"/>
</svg>
