<svg width="84" height="69" viewBox="0 0 84 69" fill="none" xmlns="http://www.w3.org/2000/svg">
<path d="M84.0002 69H42.6904L42.3463 68.4674C39.3687 63.8603 35.8679 60.4922 31.941 58.4563L30.1554 57.5304L31.8501 56.4482C33.8287 55.1849 36.1374 54.2099 38.7123 53.5496C40.7934 53.0159 43.0532 52.6865 45.4447 52.5669V44.0753L28.0156 47.3479L38.7841 30.6662L32.0754 32.4618L40.2702 19.9232L35.3478 20.539L49.3017 0L63.2544 20.5483L58.3343 19.9329L63.6172 28.008L67.4136 22.4812L77.2942 36.8072L74.0882 36.4043L79.4507 44.5615L75.1276 43.403L81.8033 53.6417L70.1512 52.6532V57.8118C75.4581 60.3753 79.7237 63.5847 82.5165 67.1216L84.0002 69.0008V69ZM43.9559 66.6777H79.0137C77.984 65.64 76.8032 64.6333 75.4826 63.6687C73.4294 62.1693 71.0779 60.7991 68.493 59.5965L67.8207 59.2838V50.1238L77.2526 50.9242L69.8603 39.5863L74.1503 40.7358L69.3743 33.4708L72.4308 33.8552L67.4179 26.5871L63.5702 32.1885L63.5694 32.187L60.7254 36.3335L54.5193 26.8201L61.2506 28.6435L53.6364 17.0056L58.4423 17.6067L49.3009 4.14418L40.1611 17.5978L44.9646 16.9971L37.3509 28.647L44.0103 26.8646L32.9046 44.0683L47.7748 41.2761V54.8242L46.6352 54.8493C43.999 54.907 41.5287 55.2271 39.2929 55.8003C37.6752 56.2152 36.1794 56.7633 34.8242 57.4368C38.2298 59.5931 41.2929 62.6922 43.9559 66.6792V66.6777ZM59.8026 30.6569L60.774 32.1463L61.4832 31.1121L59.8026 30.6569ZM66.6162 58.7849L65.0388 58.1904C60.5274 56.4901 55.803 55.4214 50.9971 55.0138L49.9305 54.9236V41.2881L62.4151 43.5133L57.5855 50.9161L66.6166 50.1199V58.7853L66.6162 58.7849ZM56.2423 53.3658C58.9714 53.8558 61.66 54.5528 64.2861 55.4512V52.6567L56.2423 53.3658ZM52.261 52.801C52.6689 52.8436 53.0763 52.8908 53.483 52.9427L58.5456 45.1827L52.2607 44.0625V52.801H52.261Z" fill="#E1CEB2"/>
<path d="M42.3399 68.9999H0L1.7875 67.0546C4.51458 64.0867 7.72913 61.6978 11.3507 59.946V53.0475L1.74749 54.2087L7.49646 45.3812L3.77542 46.3805L8.44576 39.2951L5.68644 39.6346L14.4996 26.8367L23.3078 39.6524L20.5516 39.3133L23.0844 43.1556L25.935 39.0018L32.8291 48.2574L30.8889 48.0182L34.037 52.7909L31.3057 52.0335L34.4655 57.8346L28.934 56.7315V57.5141C30.8889 58.193 32.7759 59.1897 34.5517 60.4828C36.8993 62.1924 39.0779 64.4405 41.0274 67.1645L42.3406 68.9999H42.3399ZM5.46737 66.6776H37.7154C36.2972 64.9711 34.7766 63.5231 33.1763 62.3581C31.463 61.1102 29.6413 60.1736 27.7594 59.5717H26.6031V53.8987L30.0433 54.5849L26.6354 48.3278L28.6773 48.8941L26.1728 45.0971L27.7136 45.2871L26.0123 43.0031L24.4672 45.2546L24.4839 45.2798L26.1137 45.0777L22.2082 51.0101L20.4005 48.1262L19.6054 48.2248L20.0532 47.5723L16.3093 41.5997L19.9068 42.5661L15.8385 36.3942L18.4654 36.7174L14.4973 30.9441L10.5343 36.6988L13.158 36.376L9.08975 42.5479L12.7619 41.5617L6.41666 51.305L13.6808 50.4268V61.4288L13 61.7388C10.2282 63.001 7.70388 64.6568 5.46698 66.678L5.46737 66.6776ZM21.4267 45.3792L21.4896 45.4795L21.5378 45.409L21.4267 45.3792ZM14.0425 61.2445V50.4353L23.9693 51.5702L22.5853 54.6283L26.2423 53.8991V59.3809L25.0448 59.348C21.8221 59.259 18.6359 59.7269 15.5748 60.7387L14.0429 61.2449L14.0425 61.2445ZM16.373 53.039V58.0719C17.1471 57.8605 17.9282 57.681 18.714 57.5327L20.5325 53.5143L16.373 53.039ZM23.9114 56.7319L22.1021 57.0926C22.7034 57.0493 23.3066 57.0237 23.9114 57.0168V56.7319Z" fill="#E1CEB2"/>
</svg>
