<svg width="86" height="70" viewBox="0 0 86 70" fill="none" xmlns="http://www.w3.org/2000/svg">
<g clip-path="url(#clip0_46_13120)">
<path d="M29.1299 32.462H23.4511M44.1646 32.462H38.4858M59.1993 32.462H53.5204M45.9214 17.1111V6.14034M52.7033 17.1111V1.55554M60.9969 43.3509C69.0045 41.3041 74.9285 34.0585 74.9285 25.5029H12.9922V40.2807M61.1603 67.9532C58.5456 66.9298 57.6059 64.6784 53.5613 64.6784C48.291 64.6784 48.291 68.4854 43.0207 68.4854C37.7504 68.4854 37.7504 64.6784 32.48 64.6784C28.4354 64.6784 27.4957 66.9298 24.881 67.9532M76.5627 56.6959C75.9907 56.5731 75.3779 56.4912 74.6425 56.4912C69.3722 56.4912 69.3722 60.2982 64.1019 60.2982C58.8316 60.2982 58.8316 56.4912 53.5613 56.4912C48.291 56.4912 48.291 60.2982 43.0207 60.2982C37.7504 60.2982 37.7504 56.4912 32.48 56.4912C27.2097 56.4912 27.2097 60.2982 21.9394 60.2982C16.6691 60.2982 16.6691 56.4912 11.3988 56.4912C10.6634 56.4912 10.0506 56.5731 9.47862 56.6959M80.8934 50.883C79.1366 49.7778 77.9109 48.3041 74.6425 48.3041C69.3722 48.3041 69.3722 52.1111 64.1019 52.1111C58.8316 52.1111 58.8316 48.3041 53.5613 48.3041C48.291 48.3041 48.291 52.1111 43.0207 52.1111C37.7504 52.1111 37.7504 48.3041 32.48 48.3041C27.2097 48.3041 27.2097 52.1111 21.9394 52.1111C16.6691 52.1111 16.6691 48.3041 11.3988 48.3041C8.13041 48.3041 6.8639 49.7778 5.14798 50.883M84.4886 43.924C79.9128 43.5965 79.6677 40.1579 74.6425 40.1579C69.3722 40.1579 69.3722 43.9649 64.1019 43.9649C58.8316 43.9649 58.8316 40.1579 53.5613 40.1579C48.291 40.1579 48.291 43.9649 43.0207 43.9649C37.7504 43.9649 37.7504 40.1579 32.48 40.1579C27.2097 40.1579 27.2097 43.9649 21.9394 43.9649C16.6691 43.9649 16.6691 40.1579 11.3988 40.1579C6.12851 40.1579 6.12851 43.5965 1.55273 43.924M23.5328 25.462H59.1993V17.0702H31.9898C27.3323 17.0702 23.5328 20.8362 23.5328 25.462Z" stroke="#E1CEB2" stroke-width="3" stroke-linecap="round" stroke-linejoin="round"/>
</g>
<defs>
<clipPath id="clip0_46_13120">
<rect width="86" height="70" fill="white"/>
</clipPath>
</defs>
</svg>
