<svg width="71" height="70" viewBox="0 0 71 70" fill="none" xmlns="http://www.w3.org/2000/svg">
<path d="M70.4401 69.9959H0C0 65.2572 0 60.5185 0 55.7799C0.419911 55.2921 0.9448 55.1527 1.57467 55.1875C2.44948 55.2224 3.35929 55.1875 4.2691 55.1875V54.2816C4.2691 46.1631 4.19911 38.0098 4.30409 29.8914C4.30409 27.6962 3.98916 25.7102 2.8344 23.8635C2.55446 23.4454 2.3445 23.2363 1.81962 23.2712C1.15476 23.3408 0.489896 23.306 0 22.6788C0 20.2398 0 17.8356 0 15.4314C0.314933 15.2224 0.594874 14.9436 0.9448 14.7694C12.2124 9.89136 23.48 5.04816 34.7477 0.170111C35.2725 -0.0737913 35.7274 -0.0389481 36.2523 0.170111C39.2267 1.45931 42.2011 2.74851 45.1754 4.03771C46.6101 4.66488 48.0448 5.25722 49.4795 5.8844C50.1094 6.16314 50.3194 6.75548 50.0744 7.27813C49.8295 7.83562 49.2696 8.00983 48.6047 7.76593C48.4997 7.73109 48.3948 7.6614 48.2898 7.62656C44.2306 5.8844 40.1365 4.10739 36.0774 2.33039C35.6225 2.12133 35.3075 2.15617 34.8526 2.33039C25.5446 6.3722 16.2016 10.3792 6.85855 14.421C6.71858 14.4907 6.54362 14.5952 6.40365 14.6649V14.7694C6.64859 14.7694 6.85855 14.7694 7.06851 14.7694C12.4924 14.7694 17.9162 14.7694 23.3401 14.7694C23.8999 14.7694 24.1799 14.5952 24.5298 14.1422C27.1193 10.6231 30.5485 8.53248 35.0276 8.39311C39.8566 8.25374 43.6008 10.3792 46.4002 14.1771C46.6801 14.5604 46.9601 14.7346 47.45 14.7346C52.9438 14.7346 58.4376 14.7346 63.9315 14.7346C64.1064 14.7346 64.2814 14.7346 64.4914 14.6997C64.4214 14.5604 64.3164 14.5255 64.2464 14.4907C60.5022 12.8879 56.793 11.2503 53.0488 9.64746C52.2789 9.29903 51.999 8.74154 52.2789 8.14921C52.5589 7.59171 53.1538 7.4175 53.8886 7.73109C55.3233 8.35826 56.758 8.98544 58.1927 9.57778C62.1119 11.2851 66.031 12.9576 69.9852 14.6649C70.4751 14.8739 70.93 15.1178 70.93 15.7799C70.93 17.9053 70.93 20.0307 70.93 22.1562C70.93 22.7485 70.6151 23.0969 70.0202 23.1666C69.7403 23.2015 69.4253 23.2363 69.1104 23.1666C68.5855 23.0969 68.2706 23.2712 68.0606 23.7938C67.7107 24.5952 67.2558 25.3269 66.9059 26.1283C66.7659 26.4767 66.6259 26.86 66.6259 27.2433C66.6259 36.3025 66.6259 45.3269 66.6259 54.3861C66.6259 54.5952 66.6259 54.8391 66.6609 55.1178C67.6757 55.1178 68.6555 55.1178 69.6003 55.1178C70.5801 55.1178 70.93 55.4663 70.93 56.4419C70.93 60.414 70.93 64.3861 70.93 68.3234C70.93 68.9506 70.825 69.4732 70.3701 69.8914L70.4401 69.9959ZM21.5205 33.8983C21.5205 32.2607 21.4505 30.6579 21.5205 29.09C21.6254 27.4523 21.2755 25.9889 20.4357 24.5255C19.9458 23.6893 19.5609 22.9924 18.4761 23.2363C18.3361 23.2363 18.1612 23.2363 18.0912 23.1666C17.8112 22.9227 17.4263 22.644 17.3913 22.3304C17.3913 21.982 17.6363 21.5638 17.8812 21.3199C18.0562 21.1457 18.4411 21.1457 18.721 21.1457C21.5904 21.1457 24.4598 21.1457 27.3292 21.1457C27.8191 21.1457 28.0641 21.076 28.204 20.4837C28.9389 17.1736 31.9832 14.8043 35.4825 14.7694C38.9818 14.7694 42.0611 17.1388 42.8309 20.4837C42.9359 21.0063 43.1459 21.1109 43.6358 21.1109C51.824 21.1109 59.9773 21.1109 68.1656 21.1109C68.4105 21.1109 68.6555 21.1109 68.8654 21.1109V16.86C68.5505 16.86 68.2706 16.86 67.9906 16.86C60.8871 16.86 53.8186 16.86 46.7151 16.86C46.0153 16.86 45.5604 16.6509 45.1754 16.0586C44.7205 15.3617 44.1957 14.6649 43.6008 14.0725C41.2563 11.6335 38.3869 10.3095 34.9576 10.5185C30.9685 10.7624 27.9941 12.7485 25.8945 15.9889C25.4746 16.6161 25.0197 16.86 24.2499 16.86C17.1464 16.86 10.0779 16.86 2.97437 16.86C2.69443 16.86 2.44948 16.86 2.13455 16.86V21.1109H2.90439C6.40365 21.1109 9.86791 21.1109 13.3672 21.1109C13.6121 21.1109 13.8221 21.1109 14.067 21.1457C14.5919 21.2851 14.9068 21.6335 14.9068 22.191C14.9068 22.7137 14.5919 23.0969 14.032 23.1666C13.7171 23.2015 13.4022 23.2363 13.0522 23.2015C12.6323 23.2015 12.3874 23.306 12.2124 23.6893C11.8625 24.4558 11.4076 25.1875 11.0927 25.9541C10.8827 26.4419 10.7427 26.9994 10.7427 27.522C10.7077 29.3687 10.7427 31.2154 10.7427 33.0621V33.7938H12.9123C12.9123 33.7938 12.9473 33.5499 12.9123 33.4105C12.5623 31.1457 13.3322 29.1597 14.4869 27.2781C14.6969 26.9645 14.8369 26.5813 15.0118 26.2328C15.2218 25.745 15.5367 25.3269 16.1316 25.3269C16.7265 25.3269 17.0064 25.7102 17.2514 26.198C17.8112 27.3478 18.4411 28.4628 18.966 29.6126C19.1759 30.1004 19.2809 30.6579 19.3159 31.1806C19.3859 32.0168 19.3159 32.8879 19.3159 33.759H21.5205V33.8983ZM2.09956 59.4384C3.00936 59.4384 3.88418 59.4384 4.724 59.4384C14.137 59.4384 23.515 59.4384 32.928 59.4384C33.8378 59.4384 34.2578 59.752 34.2578 60.4489C34.2578 61.1457 33.8029 61.4942 32.928 61.4942C31.8433 61.4942 30.7585 61.4942 29.6737 61.4942C29.1138 61.4942 28.554 61.4942 27.9941 61.4942V67.9053H42.9709V61.4942C42.656 61.4942 42.411 61.4942 42.1661 61.4942C40.6964 61.4942 39.2617 61.4942 37.792 61.4942C37.0922 61.4942 36.7072 61.0412 36.7072 60.414C36.7072 59.8217 37.1272 59.4732 37.792 59.4384C38.037 59.4384 38.2469 59.4384 38.4919 59.4384C48.3248 59.4384 58.1577 59.4384 68.0256 59.4384H68.9004C68.9004 59.0203 68.9004 58.7067 68.9004 58.3583C68.9004 58.0098 68.9004 57.6614 68.9004 57.313H2.09956V59.4384ZM43.0409 37.4523C43.0409 37.0342 43.0409 36.7903 43.0409 36.5464C43.0409 34.4907 42.9359 32.4349 43.0409 30.3792C43.2159 27.8356 42.761 25.536 41.3613 23.3757C41.0813 22.9576 40.9413 22.4001 40.9063 21.9123C40.6964 19.2642 38.4919 17.0342 35.9024 16.8948C33.033 16.7555 30.6535 18.5325 30.1986 21.2851C30.0237 22.3652 29.6387 23.3408 29.1488 24.2816C28.7989 24.9088 28.484 25.5708 28.169 26.2328C28.0291 26.5116 27.9591 26.8252 27.9591 27.1388C27.9591 30.3443 27.9591 33.5151 27.9591 36.7206C27.9591 36.8949 27.9941 37.0691 28.0291 37.3478C32.1232 32.7834 38.8768 32.7834 43.0409 37.4175V37.4523ZM21.4505 55.1527V36.0935H10.7427V55.1178H12.9123C12.9123 54.8391 12.9123 54.5952 12.9123 54.3165C12.9123 50.7973 12.9123 47.2433 12.9123 43.7241C12.9123 42.7834 13.2622 42.4001 14.242 42.3652C15.4317 42.3652 16.5865 42.3652 17.7762 42.3652C19.036 42.3652 19.3159 42.6788 19.3159 43.8983C19.3159 47.3478 19.3159 50.8321 19.3159 54.2816C19.3159 54.5604 19.3159 54.8043 19.3159 55.083H21.4505V55.1527ZM49.5145 55.1527H51.6841C51.6841 54.8391 51.6841 54.5604 51.6841 54.3165C51.6841 50.8321 51.6841 47.3478 51.6841 43.8635C51.6841 42.7485 51.999 42.4349 53.1538 42.4349C54.3085 42.4349 55.4633 42.4349 56.618 42.4349C57.7728 42.4349 58.1227 42.7834 58.1227 43.8983C58.1227 47.4175 58.1227 50.9018 58.1227 54.421C58.1227 54.6649 58.1227 54.9088 58.1227 55.1527H60.2573V36.0935H49.5495V55.1527H49.5145ZM38.7018 55.1527C38.7018 51.0412 38.7368 46.9994 38.7018 42.9924C38.7018 41.7729 37.827 40.9018 36.6373 40.4837C34.5377 39.6823 32.3332 41.2154 32.2982 43.4802C32.2632 47.2084 32.2982 50.9367 32.2982 54.6997C32.2982 54.8391 32.3332 55.0133 32.3682 55.1875H38.7368L38.7018 55.1527ZM60.2923 33.8983C60.2923 32.5394 60.1873 31.2503 60.2923 29.9611C60.5022 27.7311 60.0123 25.6753 58.7876 23.8286C58.7876 23.8286 58.7876 23.7938 58.7876 23.759C58.6826 23.3408 58.3677 23.2712 57.9827 23.2712C55.9182 23.2712 53.8886 23.2712 51.824 23.2712C51.4041 23.2712 51.1942 23.4105 50.9492 23.759C49.7945 25.6057 49.2346 27.5917 49.4445 29.7868C49.5495 30.9367 49.4445 32.1213 49.4445 33.2712C49.4445 33.4802 49.4445 33.6544 49.4795 33.8635H51.6141C51.6141 33.3757 51.6491 32.9576 51.6141 32.5395C51.4741 31.1457 51.7891 29.8565 52.5239 28.637C52.9788 27.8705 53.3637 27.0691 53.7486 26.2677C53.9586 25.8147 54.2735 25.4314 54.8334 25.4314C55.3933 25.4314 55.6732 25.8147 55.9182 26.2677C56.5131 27.4872 57.1779 28.7067 57.7378 29.9262C57.9128 30.3095 58.0177 30.7624 58.0177 31.1457C58.0527 32.0516 58.0177 32.9576 58.0177 33.8635H60.2223L60.2923 33.8983ZM6.43864 27.5917V55.1527H8.57319V27.5917H6.43864ZM62.4268 27.5917V55.1527H64.5614V27.5917H62.4268ZM23.69 27.5917V55.1527H25.7546V27.5917H23.69ZM47.31 55.1527V27.5917H45.2454V55.1527H47.31ZM2.09956 63.6544H21.4505V61.5638H2.09956V63.6544ZM68.8654 63.6893V61.5638H49.5495V63.6893H68.8654ZM21.4505 67.9053V65.7799H2.13455V67.9053H21.4855H21.4505ZM49.5145 65.7799V67.9053H68.8654V65.7799H49.5145ZM28.0291 42.4001C28.589 42.4001 29.1488 42.4001 29.6737 42.4001C30.0936 42.4001 30.2686 42.2956 30.4086 41.8774C30.7235 40.7625 31.3884 39.8914 32.3332 39.1945C35.2725 37.0691 39.4017 38.3583 40.5914 41.7729C40.6614 41.982 40.8714 42.3304 41.0113 42.3304C41.6412 42.4001 42.2711 42.3304 42.9359 42.3304C42.341 38.6022 39.2617 35.9889 35.5525 35.9541C31.7733 35.9541 28.6589 38.4976 28.0291 42.3304V42.4001ZM17.1464 55.1527V44.5604H15.0468V55.1527H17.1464ZM55.9532 55.1527V44.5952H53.8536V55.1527H55.9532ZM27.9941 44.5604V55.1178H30.0586V44.5604H27.9941ZM40.9063 44.5604V55.1178H42.9709V44.5604H40.9063ZM25.7546 67.9053V61.529H23.69V67.9053H25.7546ZM45.2104 61.529V67.9053H47.31V61.529H45.2104ZM43.7757 23.306C44.4406 25.3617 44.5106 25.4314 46.5752 25.4314C46.8901 25.4314 47.17 25.4314 47.485 25.4314C47.6249 25.4314 47.7999 25.3269 47.8699 25.2224C48.2198 24.63 48.4997 24.0029 48.8497 23.306H43.7757ZM22.1503 23.3408C22.4653 23.968 22.7102 24.5255 23.0251 25.0133C23.1651 25.2224 23.445 25.3966 23.69 25.3966C24.3898 25.4314 25.0547 25.3966 25.7546 25.3966C25.9295 25.3966 26.2095 25.3269 26.2794 25.2224C26.6294 24.63 26.9093 24.0029 27.2592 23.306H22.1503V23.3408ZM60.9221 23.306C61.272 24.0029 61.587 24.63 61.9019 25.2224C61.9719 25.3269 62.2168 25.3966 62.3918 25.3966C63.1267 25.3966 63.8615 25.3966 64.5963 25.3966C64.7713 25.3966 65.0163 25.2921 65.0862 25.1875C65.4362 24.5952 65.7161 24.0029 66.031 23.306H60.9221ZM10.0429 23.3408H5.00394C5.49384 24.7346 6.42697 25.4314 7.80335 25.4314C8.08329 25.4314 8.36323 25.4314 8.64317 25.4314C8.81814 25.4314 9.02809 25.3617 9.09808 25.2224C9.41301 24.63 9.72794 24.0377 10.0429 23.3408ZM16.0966 28.9854C14.8719 30.414 14.8369 32.0865 15.0468 33.8635H17.1464C17.2863 32.0865 17.3563 30.414 16.0966 28.9854ZM54.8684 28.9854C53.6437 30.4489 53.6437 32.1562 53.8536 33.8635H55.9182C56.1281 32.0865 56.0931 30.414 54.8684 28.9854Z" fill="#E1CEB2"/>
</svg>
