<svg width="69" height="71" viewBox="0 0 69 71" fill="none" xmlns="http://www.w3.org/2000/svg">
<path d="M23.6865 44.7784C23.698 44.7714 23.7085 44.7644 23.7209 44.7583C23.7094 44.7644 23.698 44.7714 23.6865 44.7784Z" fill="#E1CEB2" stroke="#E1CEB2"/>
<path d="M16.2684 53.165H15.8036L24.0155 46.1052L29.2324 50.5903L23.6114 45.7582C23.4168 45.5913 23.3473 45.3212 23.4371 45.0818C23.4767 44.976 23.5454 44.8869 23.6299 44.8196C23.6237 44.8248 23.6167 44.8283 23.6105 44.8336L13.7453 53.3145C13.5507 53.4814 13.4812 53.7515 13.571 53.9909C13.6608 54.2304 13.8914 54.3886 14.1485 54.3886H15.6504V53.7768C15.6504 53.4386 15.9259 53.165 16.2666 53.165H16.2684Z" fill="#E1CEB2" stroke="#E1CEB2"/>
<path d="M23.7793 44.7322C23.7916 44.727 23.8031 44.7218 23.8154 44.7183C23.8031 44.7226 23.7916 44.7279 23.7793 44.7322Z" fill="#E1CEB2" stroke="#E1CEB2"/>
<path d="M23.8818 44.7001C23.8926 44.6974 23.9034 44.6947 23.9142 44.6929C23.9034 44.6947 23.8926 44.6983 23.8818 44.7001Z" fill="#E1CEB2" stroke="#E1CEB2"/>
<path d="M24.0154 44.6831C24.0154 44.6831 24.0136 44.6831 24.0127 44.6831H24.0145H24.0154Z" fill="#E1CEB2" stroke="#E1CEB2"/>
<path d="M16.8839 65.1382V54.3876H30.5698L30.6578 53.1641H16.2676C15.9269 53.1641 15.6514 53.4376 15.6514 53.7758V65.1382H16.8839Z" fill="#E1CEB2" stroke="#E1CEB2"/>
<path d="M23.4372 45.0818C23.3474 45.3213 23.4169 45.5905 23.6115 45.7583L29.2325 50.5904L30.7494 51.8952L30.8586 50.371L25.668 45.9086H31.179L31.267 44.6851H24.0156H24.0138C23.9804 44.6851 23.9469 44.6886 23.9143 44.6938C23.9038 44.6955 23.8932 44.699 23.8827 44.7008C23.8598 44.706 23.8378 44.7113 23.8157 44.7183C23.8034 44.7226 23.792 44.7279 23.7797 44.7323C23.7594 44.7401 23.74 44.7497 23.7215 44.7593C23.7101 44.7655 23.6987 44.7725 23.6872 44.7794C23.6678 44.7917 23.6494 44.8048 23.6309 44.8196C23.5455 44.8869 23.4777 44.9761 23.4381 45.0818H23.4372Z" fill="#E1CEB2" stroke="#E1CEB2"/>
<path d="M63.2411 65.1382H50.0261L50.0666 65.7063C50.079 65.8758 50.0191 66.0427 49.9029 66.1668C49.7867 66.2909 49.6229 66.3617 49.4521 66.3617H63.2411C65.1858 66.3617 66.7678 67.9322 66.7678 69.8628C66.7678 70.201 67.0433 70.4746 67.384 70.4746C67.7247 70.4746 68.0003 70.201 68.0003 69.8628C68.0003 67.2575 65.8654 65.1382 63.2411 65.1382Z" fill="#E1CEB2" stroke="#E1CEB2"/>
<path d="M5.75918 66.3617H30.3729C30.2021 66.3617 30.0384 66.2909 29.9222 66.1668C29.806 66.0427 29.7461 65.8758 29.7584 65.7063L29.7989 65.1382H5.75918C3.13485 65.1382 1 67.2575 1 69.8628C1 70.201 1.27555 70.4746 1.61625 70.4746C1.95694 70.4746 2.23249 70.201 2.23249 69.8628C2.23249 67.9322 3.81448 66.3617 5.75918 66.3617Z" fill="#E1CEB2" stroke="#E1CEB2"/>
<path d="M31.1783 45.9069L30.8579 50.3693L30.7487 51.8935L30.6572 53.1642L30.5691 54.3878L29.7979 65.1384L29.7574 65.7065C29.7451 65.876 29.805 66.0429 29.9212 66.167C30.0374 66.2911 30.2011 66.3619 30.3719 66.3619H49.4509C49.6217 66.3619 49.7854 66.2911 49.9016 66.167C50.0178 66.0429 50.0777 65.876 50.0654 65.7065L50.0249 65.1384L47.3407 27.7363H46.1056L46.9252 39.152H47.5758C47.8328 39.152 48.0415 39.3591 48.0415 39.6143C48.0415 39.8695 47.8328 40.0767 47.5758 40.0767H46.9912L47.8099 51.4827H48.486C48.7431 51.4827 48.9517 51.6899 48.9517 51.9451C48.9517 52.2003 48.7431 52.4074 48.486 52.4074H47.8768L48.7906 65.1393H44.6354V66.3121H35.2156V65.1393H31.0348L31.9486 52.4074H31.3641C31.107 52.4074 30.8984 52.2003 30.8984 51.9451C30.8984 51.6899 31.107 51.4827 31.3641 51.4827H32.0147L32.8334 40.0767H32.2488C31.9918 40.0767 31.7831 39.8695 31.7831 39.6143C31.7831 39.3591 31.9918 39.152 32.2488 39.152H32.8994L33.719 27.7363H32.483L31.2672 44.6833L31.1792 45.9069H31.1783Z" fill="#E1CEB2" stroke="#E1CEB2"/>
<path d="M33.7186 27.7363H48.6177C48.9584 27.7363 49.2339 27.4628 49.2339 27.1245V24.5568C49.2339 24.2186 48.9584 23.9451 48.6177 23.9451H46.8684V24.5568C46.8684 24.7981 46.6712 24.9938 46.4283 24.9938H32.539V23.9451H30.8936C30.5529 23.9451 30.2773 24.2186 30.2773 24.5568V27.1245C30.2773 27.4628 30.5529 27.7363 30.8936 27.7363H33.7178H33.7186ZM48.0015 25.1686V26.5128H31.5098V25.1686H48.0015Z" fill="#E1CEB2" stroke="#E1CEB2"/>
<path d="M32.539 14.0807H46.4283C46.6713 14.0807 46.8685 14.2764 46.8685 14.5177V15.1294H48.0508C48.3915 15.1294 48.667 14.8559 48.667 14.5177V12.6657C48.667 12.3275 48.3915 12.054 48.0508 12.054H46.6818C46.6994 12.2558 46.7109 12.4595 46.7109 12.6657V13.2775H47.4345V13.9059H32.09V13.2775H32.6975V12.6657C32.6975 12.4595 32.708 12.2558 32.7265 12.054H31.4746C31.1339 12.054 30.8584 12.3275 30.8584 12.6657V14.5177C30.8584 14.8559 31.1339 15.1294 31.4746 15.1294H32.5399V14.0807H32.539Z" fill="#E1CEB2" stroke="#E1CEB2"/>
<path d="M32.6971 13.2775H46.7105V12.6657C46.7105 12.4594 46.6999 12.2558 46.6815 12.0539C46.4077 8.95572 44.0809 6.43347 41.0613 5.8418C41.0498 6.32248 40.7884 6.7411 40.401 6.9762C43.0553 7.29519 45.1611 9.40756 45.4446 12.053H33.9613C34.2439 9.41717 36.3338 7.3118 38.9731 6.97969C38.584 6.74635 38.3208 6.32859 38.3067 5.84791C35.3056 6.4527 32.9964 8.96708 32.7244 12.053C32.7068 12.2549 32.6953 12.4586 32.6953 12.6648V13.2766L32.6971 13.2775Z" fill="#E1CEB2" stroke="#E1CEB2"/>
<path d="M38.974 6.98048C39.1818 7.10546 39.4248 7.17887 39.6845 7.17887C39.9442 7.17887 40.1924 7.10458 40.4011 6.97698C40.7884 6.74189 41.0499 6.32239 41.0614 5.84258C41.0614 5.83209 41.0631 5.82073 41.0631 5.81024C41.0631 5.26489 40.74 4.7947 40.2743 4.57446V4.90307C40.2743 5.14079 40.1317 5.3453 39.9266 5.43706C40.0498 5.51659 40.1326 5.65381 40.1326 5.81024C40.1326 6.05495 39.9319 6.25422 39.6854 6.25422C39.4389 6.25422 39.2381 6.05495 39.2381 5.81024C39.2381 5.65381 39.3209 5.51659 39.4442 5.43706C39.239 5.3453 39.0964 5.14079 39.0964 4.90307V4.57446C38.6307 4.7947 38.3076 5.26489 38.3076 5.80937C38.3076 5.82248 38.3094 5.83559 38.3094 5.8487C38.3235 6.3285 38.5867 6.74713 38.9758 6.98048H38.974Z" fill="#E1CEB2" stroke="#E1CEB2"/>
<path d="M39.4432 5.43623C39.5172 5.46944 39.5991 5.48779 39.6845 5.48779C39.7699 5.48779 39.8526 5.46856 39.9257 5.43623C40.1308 5.34446 40.2734 5.13996 40.2734 4.90224V1.58555C40.2734 1.26219 40.0093 1 39.6836 1C39.3579 1 39.0938 1.26219 39.0938 1.58555V4.90311C39.0938 5.14083 39.2364 5.34534 39.4415 5.4371L39.4432 5.43623Z" fill="#E1CEB2" stroke="#E1CEB2"/>
<path d="M39.9247 54.3135C37.3277 54.3135 35.2148 56.411 35.2148 58.9892V66.3121H44.6346V58.9892C44.6346 56.411 42.5218 54.3135 39.9247 54.3135ZM36.2713 65.2633V58.9892C36.2713 56.9895 37.9105 55.3622 39.9247 55.3622C41.939 55.3622 43.5782 56.9895 43.5782 58.9892V65.2633H36.2713Z" fill="#E1CEB2" stroke="#E1CEB2"/>
<path d="M36.9833 44.8432V49.29H42.8649V44.8432C42.8649 43.2334 41.5453 41.9233 39.9237 41.9233C38.3021 41.9233 36.9824 43.2334 36.9824 44.8432H36.9833ZM39.9246 42.9721C40.9634 42.9721 41.8094 43.8111 41.8094 44.8432V48.2412H38.0406V44.8432C38.0406 43.812 38.8857 42.9721 39.9254 42.9721H39.9246Z" fill="#E1CEB2" stroke="#E1CEB2"/>
<path d="M42.8659 37.3822V32.9355C42.8659 31.3257 41.5463 30.0156 39.9247 30.0156C38.303 30.0156 36.9834 31.3257 36.9834 32.9355V37.3822H42.865H42.8659ZM38.0398 32.9355C38.0398 31.9043 38.885 31.0644 39.9247 31.0644C40.9643 31.0644 41.8095 31.9034 41.8095 32.9355V36.3335H38.0407V32.9355H38.0398Z" fill="#E1CEB2" stroke="#E1CEB2"/>
<path d="M32.0147 51.4827H31.3641C31.1071 51.4827 30.8984 51.6898 30.8984 51.945C30.8984 52.2002 31.1071 52.4073 31.3641 52.4073H48.487C48.744 52.4073 48.9527 52.2002 48.9527 51.945C48.9527 51.6898 48.744 51.4827 48.487 51.4827H32.0156H32.0147Z" fill="#E1CEB2" stroke="#E1CEB2"/>
<path d="M32.2479 39.1519C31.9909 39.1519 31.7822 39.359 31.7822 39.6142C31.7822 39.8694 31.9909 40.0765 32.2479 40.0765H47.5757C47.8328 40.0765 48.0414 39.8694 48.0414 39.6142C48.0414 39.359 47.8328 39.1519 47.5757 39.1519H32.2479Z" fill="#E1CEB2" stroke="#E1CEB2"/>
<path d="M32.5391 24.5567V24.9937H32.9792H36.9813V24.1198H33.4194V14.9545H36.9813V14.0806H32.9792H32.5391V14.5175V15.1293V23.945V24.5567Z" fill="#E1CEB2" stroke="#E1CEB2"/>
<path d="M41.5372 24.5567V14.5175C41.5372 14.2763 41.7344 14.0806 41.9773 14.0806H36.9805V24.9937H41.9773C41.7344 24.9937 41.5372 24.798 41.5372 24.5567ZM41.4315 24.1198H37.8608V14.9545H41.4315V24.1198Z" fill="#E1CEB2" stroke="#E1CEB2"/>
<path d="M46.4283 14.0806H41.9773C41.7343 14.0806 41.5371 14.2763 41.5371 14.5175V24.5567C41.5371 24.798 41.7343 24.9937 41.9773 24.9937H46.4283C46.6713 24.9937 46.8685 24.798 46.8685 24.5567V14.5175C46.8685 14.2763 46.6713 14.0806 46.4283 14.0806ZM45.9882 24.1198H42.4175V14.9545H45.9882V24.1198Z" fill="#E1CEB2" stroke="#E1CEB2"/>
<path d="M23.2398 62.4822V62.0452H20.1401V56.8889H23.2398V56.4519C23.2398 56.2474 23.3745 56.0761 23.5603 56.0149H19.6999C19.457 56.0149 19.2598 56.2107 19.2598 56.4519V62.4822C19.2598 62.7234 19.457 62.9192 19.6999 62.9192H23.5603C23.3745 62.858 23.2398 62.6867 23.2398 62.4822Z" fill="#E1CEB2" stroke="#E1CEB2"/>
<path d="M27.7109 56.0149H23.8506C24.0363 56.0761 24.171 56.2474 24.171 56.4519V56.8889H27.2708V62.0452H24.171V62.4822C24.171 62.6867 24.0363 62.858 23.8506 62.9192H27.7109C27.9539 62.9192 28.1511 62.7234 28.1511 62.4822V56.4519C28.1511 56.2107 27.9539 56.0149 27.7109 56.0149Z" fill="#E1CEB2" stroke="#E1CEB2"/>
<path d="M24.1707 62.4824V56.4521C24.1707 56.2476 24.036 56.0763 23.8502 56.0151C23.8044 56.0002 23.756 55.9897 23.705 55.9897C23.6539 55.9897 23.6055 56.0002 23.5597 56.0151C23.374 56.0763 23.2393 56.2476 23.2393 56.4521V62.4824C23.2393 62.6869 23.374 62.8582 23.5597 62.9194C23.6055 62.9342 23.6539 62.9447 23.705 62.9447C23.756 62.9447 23.8044 62.9342 23.8502 62.9194C24.036 62.8582 24.1707 62.6869 24.1707 62.4824Z" fill="#E1CEB2" stroke="#E1CEB2"/>
</svg>
