<svg width="105" height="140" viewBox="0 0 105 140" fill="none" xmlns="http://www.w3.org/2000/svg">
<g clip-path="url(#clip0_50_13302)">
<path fill-rule="evenodd" clip-rule="evenodd" d="M52.501 140C51.5905 140 50.8516 139.263 50.8516 138.359V136.903C50.8516 135.998 51.5905 135.263 52.501 135.263C53.4114 135.263 54.15 135.999 54.15 136.903V138.359C54.15 139.263 53.4118 140 52.501 140ZM52.501 122.136C51.5905 122.136 50.8516 121.4 50.8516 120.496V113.934C50.8516 113.028 51.5905 112.292 52.501 112.292C53.4114 112.292 54.15 113.029 54.15 113.934V120.496C54.15 121.401 53.4118 122.136 52.501 122.136ZM52.501 99.1679C51.5905 99.1679 50.8516 98.4311 50.8516 97.5276V90.9643C50.8516 90.0597 51.5905 89.324 52.501 89.324C53.4114 89.324 54.15 90.0593 54.15 90.9643V97.5276C54.15 98.4322 53.4118 99.1679 52.501 99.1679Z" fill="#E1CEB2"/>
<path fill-rule="evenodd" clip-rule="evenodd" d="M1.64904 108.907C1.42406 108.907 1.19834 108.86 0.9839 108.768C0.386 108.505 0 107.916 0 107.267V1.64066C0 0.735008 0.738925 0 1.64904 0H103.351C104.26 0 105 0.735008 105 1.64066V107.267C105 107.915 104.614 108.505 104.015 108.768C103.418 109.028 102.72 108.917 102.238 108.477L84.2919 92.1749C83.6184 91.565 83.5715 90.5267 84.1858 89.8582C84.799 89.1872 85.8439 89.1427 86.5149 89.7526L101.7 103.546V3.28168H3.29954V103.548L18.4851 89.7537C19.1568 89.1427 20.2007 89.1894 20.8153 89.8593C21.4295 90.5281 21.3827 91.5665 20.7102 92.1771L2.76234 108.477C2.45194 108.759 2.05321 108.907 1.64868 108.907H1.64904Z" fill="#E1CEB2"/>
<path fill-rule="evenodd" clip-rule="evenodd" d="M85.4045 92.6044H19.5976C18.6872 92.6044 17.9482 91.8687 17.9482 90.9641V53.9571C17.9482 35.0056 33.4482 19.587 52.5014 19.587C71.5546 19.587 87.0535 35.0056 87.0535 53.9571V90.9641C87.0535 91.8698 86.3149 92.6044 85.4045 92.6044ZM21.2467 89.3238H83.7543V53.9571C83.7543 36.8147 69.7344 22.868 52.4996 22.868C35.2648 22.868 21.2456 36.8147 21.2456 53.9571L21.2463 89.3238H21.2471H21.2467Z" fill="#E1CEB2"/>
<path fill-rule="evenodd" clip-rule="evenodd" d="M83.9068 140C83.1225 140 82.4268 139.44 82.2847 138.646L73.8283 91.2512C73.6695 90.3586 74.267 89.5075 75.164 89.3484C76.0578 89.1959 76.917 89.787 77.077 90.6771L85.5333 138.072C85.6922 138.964 85.0946 139.816 84.1976 139.974C84.1002 139.99 84.0028 140 83.9068 140Z" fill="#E1CEB2"/>
<path fill-rule="evenodd" clip-rule="evenodd" d="M21.0951 140C20.9995 140 20.9021 139.99 20.8054 139.974C19.9088 139.816 19.3109 138.964 19.4686 138.072L27.925 90.6771C28.0849 89.787 28.9441 89.1948 29.8364 89.3485C30.7331 89.5076 31.331 90.359 31.1733 91.2512L22.7169 138.646C22.5748 139.44 21.8795 140 21.0951 140Z" fill="#E1CEB2"/>
</g>
<defs>
<clipPath id="clip0_50_13302">
<rect width="105" height="140" fill="white"/>
</clipPath>
</defs>
</svg>
