<svg width="144" height="144" viewBox="0 0 144 144" fill="none" xmlns="http://www.w3.org/2000/svg">
<path d="M123.343 64.0426C117.468 62.0652 94.3601 55.25 84.3194 52.2485C84.3194 51.8954 84.3194 51.5776 84.3194 51.2245C85.4588 5.42523 76.8779 2 72 2C67.1221 2 58.5056 5.42523 59.6806 51.2245C59.6806 51.5776 59.6806 51.8954 59.6806 52.2485C49.6043 55.25 26.532 62.0299 20.6572 64.0426C14.355 66.1614 2 76.7195 2 81.981C2 87.2424 7.59003 85.4062 9.90437 85.1237C10.6877 85.0178 17.0254 84.3822 25.1078 83.5347V87.878C25.1078 91.1267 27.7782 93.7751 31.0539 93.7751C34.3296 93.7751 37 91.1267 37 87.878V82.2988C46.3286 81.3454 55.6216 80.392 60.5351 79.8976C61.3896 103.733 62.1729 112.667 62.3866 113.973C62.6714 115.668 61.7457 117.964 59.5738 118.952C57.3662 119.941 49.2126 124.496 46.471 125.767C43.7294 127.039 40.0264 135.584 39.0295 138.727C38.0326 141.87 40.7742 142.399 44.0498 141.764C50.0671 140.598 66.41 134.878 72 134.878C77.59 134.878 93.9329 140.563 99.9502 141.764C103.226 142.399 106.003 141.87 104.971 138.727C103.974 135.584 100.235 127.074 97.529 125.767C94.823 124.496 86.6338 119.941 84.4262 118.952C82.2187 117.964 81.3286 115.668 81.6134 113.973C81.8271 112.702 82.6104 103.733 83.4649 79.8976C88.3784 80.392 97.6714 81.3454 107 82.2988V87.878C107 91.1267 109.67 93.7751 112.946 93.7751C116.222 93.7751 118.892 91.1267 118.892 87.878V83.5347C126.975 84.3469 133.312 85.0178 134.096 85.1237C136.374 85.4062 142 87.2424 142 81.981C142 76.7195 129.681 66.1967 123.343 64.0426Z" stroke="#E1CEB2" stroke-width="3" stroke-miterlimit="10"/>
</svg>
