<svg width="140" height="114" viewBox="0 0 140 114" fill="none" xmlns="http://www.w3.org/2000/svg">
<path d="M47.4205 52.8667H38.1758M71.8955 52.8667H62.6509M96.3706 52.8667H87.1259M74.7554 27.8667V9.99999M85.7958 27.8667V2.53333M99.2969 70.6C112.333 67.2667 121.976 55.4667 121.976 41.5333H21.1497V65.6M99.563 110.667C95.3064 109 93.7768 105.333 87.1924 105.333C78.6129 105.333 78.6129 111.533 70.0333 111.533C61.4537 111.533 61.4537 105.333 52.8741 105.333C46.2898 105.333 44.7601 109 40.5036 110.667M124.637 92.3333C123.706 92.1333 122.708 92 121.511 92C112.931 92 112.931 98.2 104.352 98.2C95.772 98.2 95.772 92 87.1924 92C78.6129 92 78.6129 98.2 70.0333 98.2C61.4537 98.2 61.4537 92 52.8741 92C44.2946 92 44.2946 98.2 35.715 98.2C27.1354 98.2 27.1354 92 18.5558 92C17.3587 92 16.3611 92.1333 15.43 92.3333M131.686 82.8667C128.827 81.0667 126.831 78.6667 121.511 78.6667C112.931 78.6667 112.931 84.8667 104.352 84.8667C95.772 84.8667 95.772 78.6667 87.1924 78.6667C78.6129 78.6667 78.6129 84.8667 70.0333 84.8667C61.4537 84.8667 61.4537 78.6667 52.8741 78.6667C44.2946 78.6667 44.2946 84.8667 35.715 84.8667C27.1354 84.8667 27.1354 78.6667 18.5558 78.6667C13.2352 78.6667 11.1734 81.0667 8.38008 82.8667M137.539 71.5333C130.09 71 129.691 65.4 121.511 65.4C112.931 65.4 112.931 71.6 104.352 71.6C95.772 71.6 95.772 65.4 87.1924 65.4C78.6129 65.4 78.6129 71.6 70.0333 71.6C61.4537 71.6 61.4537 65.4 52.8741 65.4C44.2946 65.4 44.2946 71.6 35.715 71.6C27.1354 71.6 27.1354 65.4 18.5558 65.4C9.97627 65.4 9.97628 71 2.52734 71.5333M38.3088 41.4667H96.3706V27.8H52.076C44.4941 27.8 38.3088 33.9333 38.3088 41.4667Z" stroke="#E1CEB2" stroke-width="3" stroke-linecap="round" stroke-linejoin="round"/>
</svg>
