<svg width="144" height="107" viewBox="0 0 144 107" fill="none" xmlns="http://www.w3.org/2000/svg">
<path d="M6.05371 67.3616H137.929" stroke="#E1CEB2" stroke-width="3" stroke-linecap="round" stroke-linejoin="round"/>
<path d="M115.417 67.3615V5.80298" stroke="#E1CEB2" stroke-width="3" stroke-linecap="round" stroke-linejoin="round"/>
<path d="M28.582 67.3615V5.80298" stroke="#E1CEB2" stroke-width="3" stroke-linecap="round" stroke-linejoin="round"/>
<path d="M2 55.6452C8.72246 50.3825 28.5825 32.2511 28.5825 2C28.5825 38.3973 54.8193 45.2926 72.0096 45.2926C89.1999 45.2926 115.417 38.3973 115.417 2C115.417 32.2511 135.278 50.3825 142 55.6452" stroke="#E1CEB2" stroke-width="3" stroke-linecap="round" stroke-linejoin="round"/>
<path d="M43.0459 37.9363V67.3614" stroke="#E1CEB2" stroke-width="3" stroke-linecap="round" stroke-linejoin="round"/>
<path d="M57.5273 43.5256V67.3615" stroke="#E1CEB2" stroke-width="3" stroke-linecap="round" stroke-linejoin="round"/>
<path d="M100.935 36.5919V67.3616" stroke="#E1CEB2" stroke-width="3" stroke-linecap="round" stroke-linejoin="round"/>
<path d="M86.4736 43.5256V67.3615" stroke="#E1CEB2" stroke-width="3" stroke-linecap="round" stroke-linejoin="round"/>
<path d="M72.0098 45.2927V67.3616" stroke="#E1CEB2" stroke-width="3" stroke-linecap="round" stroke-linejoin="round"/>
<path d="M29.7354 65.8826L29.7546 106.275" stroke="#E1CEB2" stroke-width="3" stroke-miterlimit="10"/>
<path d="M116.167 65.8826L116.186 106.275" stroke="#E1CEB2" stroke-width="3" stroke-miterlimit="10"/>
</svg>
