<svg width="222" height="43" viewBox="0 0 222 43" fill="none" xmlns="http://www.w3.org/2000/svg">
<path d="M31.3965 15.8874C31.3965 25.4302 24.1043 29.8957 15.3251 29.8957H10.1309V41.865H0.25177V1.36932H15.3455C25.4079 1.36932 31.4169 7.16024 31.4169 15.8874H31.3965ZM21.3341 15.8874C21.3341 12.7676 19.1342 10.7286 15.3251 10.7286H10.1309V21.0258H15.3251C18.9101 21.0258 21.3341 19.415 21.3341 15.867V15.8874Z" fill="#E1CEB2"/>
<path d="M60.6469 34.3612H45.3291L42.9663 41.8853H32.5576L47.1216 1.38971H58.7933L73.3574 41.8853H63.0098L60.6469 34.3612ZM58.2841 26.8371L52.9677 9.99452L47.6513 26.8371H58.2841Z" fill="#E1CEB2"/>
<path d="M104.767 32.5669V41.8853H79.733V1.38971H89.6733V32.5873H104.767V32.5669Z" fill="#E1CEB2"/>
<path d="M137.48 34.3612H122.162L119.8 41.8853H109.391L123.955 1.38971H135.627L150.191 41.8853H139.843L137.48 34.3612ZM135.117 26.8371L129.801 9.99452L124.485 26.8371H135.117Z" fill="#E1CEB2"/>
<path d="M182.069 29.3247L190.339 34.769C186.693 39.622 180.908 42.6398 173.982 42.6398C162.025 42.6398 153.409 33.6679 153.409 21.6375C153.409 9.60709 162.025 0.696411 173.982 0.696411C180.928 0.696411 186.693 3.71422 190.339 8.50599L182.069 13.9503C180.337 11.7481 177.608 10.2392 173.982 10.2392C166.934 10.2392 163.349 15.9078 163.349 21.6375C163.349 27.3673 166.934 33.097 173.982 33.097C177.628 33.097 180.337 31.5881 182.069 29.3451V29.3247Z" fill="#E1CEB2"/>
<path d="M221.769 32.5872V41.9057H196.836V1.4101H221.748V10.7897H206.716V17.0292H219.895V25.8788H206.716V32.5872H221.748H221.769Z" fill="#E1CEB2"/>
</svg>
