<svg width="222" height="29" viewBox="0 0 222 29" fill="none" xmlns="http://www.w3.org/2000/svg">
<path d="M13.9604 17.3022C15.9769 17.7712 17.4028 18.3421 18.2176 19.015C19.399 19.9733 19.9693 21.2172 19.9693 22.7261C19.9693 24.3369 19.3175 25.6623 18.0342 26.7022C16.4454 27.9664 14.1437 28.5985 11.129 28.5985H0.292526V28.0072C1.27026 28.0072 1.94244 27.9053 2.28872 27.7218C2.635 27.5382 2.87943 27.2935 3.02202 27.0081C3.1646 26.7226 3.22571 25.9886 3.22571 24.8467V11.0015C3.22571 9.83926 3.1646 9.12557 3.02202 8.81971C2.87943 8.51386 2.635 8.28955 2.26835 8.10603C1.9017 7.92252 1.24989 7.84098 0.272156 7.84098V7.24963H10.4976C12.9419 7.24963 14.6733 7.47394 15.6918 7.90215C16.7102 8.33035 17.5046 8.98283 18.0954 9.85962C18.6861 10.7364 18.9712 11.654 18.9712 12.6124C18.9712 13.6319 18.6046 14.5495 17.8509 15.3651C17.0972 16.1603 15.7936 16.8128 13.9196 17.2818L13.9604 17.3022ZM8.23658 18.0974V25.7235C8.23658 26.2944 8.35879 26.7226 8.64396 27.0081C8.92913 27.2935 9.35689 27.4363 9.92723 27.4363C10.7624 27.4363 11.5364 27.2528 12.2493 26.8857C12.9623 26.5187 13.4919 25.9682 13.8789 25.2545C14.2659 24.5408 14.4492 23.766 14.4492 22.8892C14.4492 21.89 14.2252 20.9929 13.7567 20.1976C13.2882 19.4024 12.6567 18.8519 11.8623 18.546C11.0475 18.2402 9.84576 18.077 8.23658 18.0974ZM8.23658 16.874C9.72354 16.874 10.8235 16.7109 11.5364 16.3642C12.2493 16.0176 12.7789 15.5486 13.166 14.9573C13.553 14.3455 13.7363 13.5707 13.7363 12.6327C13.7363 11.6948 13.553 10.9199 13.1863 10.3082C12.8197 9.6965 12.2901 9.24792 11.5975 8.92167C10.905 8.61582 9.78465 8.45269 8.25695 8.47308V16.874H8.23658Z" fill="#E1CEB2"/>
<path d="M31.1929 8.49345V17.1798H31.6206C32.965 17.1798 33.9427 16.7516 34.5538 15.8952C35.1649 15.0388 35.5519 13.795 35.7149 12.123H36.3056V23.297H35.7149C35.5927 22.0736 35.3279 21.0744 34.9205 20.2996C34.5131 19.5247 34.0446 18.9946 33.515 18.7295C32.9854 18.4644 32.2113 18.3217 31.1929 18.3217V24.3369C31.1929 25.5196 31.2336 26.2332 31.3355 26.4983C31.4373 26.7634 31.6206 26.9673 31.8854 27.1508C32.1502 27.3139 32.5984 27.3955 33.2094 27.3955H34.4927C36.4889 27.3955 38.0777 26.9265 39.2795 26.009C40.4813 25.0914 41.3368 23.6844 41.8664 21.7881H42.4571L41.4998 28.5781H23.0655V27.9868H23.7784C24.3895 27.9868 24.8987 27.8849 25.2654 27.6606C25.5302 27.5178 25.7542 27.2527 25.8968 26.9061C26.0191 26.6614 26.0802 25.9885 26.0802 24.9282V10.8791C26.0802 9.92078 26.0598 9.32946 25.9987 9.10517C25.8968 8.73814 25.6931 8.45267 25.408 8.24877C25.0006 7.9633 24.471 7.80017 23.7784 7.80017H23.0655V7.20886H40.9091V13.5299H40.3183C40.0128 11.9802 39.5851 10.8792 39.0351 10.2063C38.4851 9.53339 37.7111 9.04399 36.6926 8.71774C36.1019 8.53423 35.0019 8.43228 33.3928 8.43228H31.1929V8.49345Z" fill="#E1CEB2"/>
<path d="M68.0818 7.27002V7.86133C67.3892 7.96328 66.8393 8.1672 66.4522 8.47305C65.9226 8.92165 65.1079 10.1247 63.9672 12.0822L59.3433 19.8102V24.969C59.3433 26.0701 59.4044 26.7634 59.5266 27.0285C59.6489 27.2935 59.8729 27.5382 60.2192 27.7421C60.5655 27.946 61.0136 28.048 61.584 28.048H62.7858V28.6393H50.8289V28.048H51.9493C52.5807 28.048 53.0696 27.946 53.4362 27.7217C53.701 27.579 53.9251 27.3139 54.088 26.9673C54.2102 26.7226 54.2714 26.0497 54.2714 24.9894V20.7074L49.2605 11.552C48.2624 9.75765 47.5698 8.67695 47.1624 8.3711C46.7551 8.04485 46.2051 7.88174 45.5329 7.88174V7.2904H55.7583V7.88174H55.3102C54.6991 7.88174 54.251 7.96328 54.0066 8.1468C53.7621 8.33031 53.6399 8.51383 53.6399 8.71773C53.6399 9.08476 54.0677 10.0431 54.9028 11.5724L58.7526 18.6479L62.5821 12.2045C63.5394 10.6345 64.0079 9.59452 64.0079 9.06437C64.0079 8.7789 63.8653 8.55462 63.6005 8.35072C63.2339 8.08564 62.5821 7.92252 61.6451 7.88174V7.2904H68.1633L68.0818 7.27002Z" fill="#E1CEB2"/>
<path d="M90.0603 21.1356L89.2659 28.6189H70.3428V28.0276H71.0557C71.6668 28.0276 72.176 27.9256 72.5427 27.7013C72.8075 27.5586 73.0315 27.2935 73.1741 26.9469C73.2963 26.7022 73.3574 26.0293 73.3574 24.969V10.9199C73.3574 9.81882 73.2963 9.14594 73.1741 8.88086C73.0519 8.61578 72.8278 8.37111 72.4816 8.16721C72.1353 7.9633 71.6668 7.86133 71.0557 7.86133H70.3428V7.27002H81.7089V7.86133H80.7719C80.1608 7.86133 79.6516 7.96329 79.2849 8.18759C79.0201 8.33032 78.7961 8.59539 78.6331 8.94203C78.5109 9.18671 78.4498 9.85961 78.4498 10.9199V24.5204C78.4498 25.6215 78.5109 26.3148 78.6331 26.6003C78.7553 26.9061 78.9998 27.1304 79.3664 27.2731C79.6312 27.3751 80.2627 27.4159 81.2608 27.4159H83.0329C84.1736 27.4159 85.1106 27.212 85.8642 26.8245C86.6179 26.4371 87.2697 25.805 87.8197 24.9282C88.3697 24.0514 88.8993 22.8076 89.3881 21.1152H90.0399L90.0603 21.1356Z" fill="#E1CEB2"/>
<path d="M101.263 8.49345V17.1798H101.691C103.036 17.1798 104.013 16.7516 104.624 15.8952C105.236 15.0388 105.623 13.795 105.785 12.123H106.376V23.297H105.785C105.663 22.0736 105.398 21.0744 104.991 20.2996C104.584 19.5247 104.115 18.9946 103.586 18.7295C103.056 18.4644 102.282 18.3217 101.263 18.3217V24.3369C101.263 25.5196 101.304 26.2332 101.406 26.4983C101.508 26.7634 101.691 26.9673 101.956 27.1508C102.221 27.3139 102.669 27.3955 103.28 27.3955H104.563C106.56 27.3955 108.148 26.9265 109.35 26.009C110.552 25.0914 111.407 23.6844 111.937 21.7881H112.528L111.57 28.5781H93.1361V27.9868H93.849C94.4601 27.9868 94.9693 27.8849 95.336 27.6606C95.6008 27.5178 95.8249 27.2527 95.9674 26.9061C96.0897 26.6614 96.1508 25.9885 96.1508 24.9282V10.8791C96.1508 9.92078 96.1304 9.32946 96.0693 9.10517C95.9674 8.73814 95.7637 8.45267 95.4786 8.24877C95.0712 7.9633 94.5416 7.80017 93.849 7.80017H93.1361V7.20886H110.98V13.5299H110.389C110.083 11.9802 109.656 10.8792 109.106 10.2063C108.556 9.53339 107.782 9.04399 106.763 8.71774C106.172 8.53423 105.073 8.43228 103.463 8.43228H101.263V8.49345Z" fill="#E1CEB2"/>
<path d="M123.812 18.8926V24.867C123.812 26.0293 123.873 26.743 124.016 27.0488C124.159 27.3547 124.403 27.579 124.77 27.7625C125.116 27.946 125.788 28.0276 126.766 28.0276V28.6189H115.848V28.0276C116.826 28.0276 117.498 27.9256 117.844 27.7421C118.19 27.5586 118.435 27.3139 118.577 27.0285C118.72 26.743 118.781 26.0089 118.781 24.867V11.0219C118.781 9.85961 118.72 9.14593 118.577 8.84007C118.435 8.53421 118.19 8.30993 117.824 8.12642C117.457 7.9429 116.805 7.86133 115.828 7.86133V7.27002H125.727C128.314 7.27002 130.188 7.45352 131.39 7.80016C132.592 8.1468 133.569 8.81969 134.323 9.77805C135.077 10.7364 135.464 11.8579 135.464 13.1629C135.464 14.733 134.893 16.038 133.773 17.0575C133.04 17.71 132.042 18.1993 130.738 18.5256L135.871 25.7439C136.543 26.6818 137.012 27.2528 137.297 27.4974C137.725 27.8237 138.234 28.0072 138.784 28.0276V28.6189H132.062L125.197 18.8926H123.792H123.812ZM123.812 8.43226V17.7915H124.709C126.175 17.7915 127.255 17.6692 127.988 17.3837C128.721 17.0982 129.271 16.6293 129.699 15.936C130.106 15.2427 130.31 14.3251 130.31 13.2036C130.31 11.5724 129.923 10.3694 129.169 9.59454C128.416 8.8197 127.194 8.43226 125.503 8.43226H123.812Z" fill="#E1CEB2"/>
<path d="M154.142 17.3022C156.159 17.7712 157.585 18.3421 158.4 19.015C159.581 19.9733 160.151 21.2172 160.151 22.7261C160.151 24.3369 159.499 25.6623 158.216 26.7022C156.627 27.9664 154.326 28.5985 151.311 28.5985H140.474V28.0072C141.452 28.0072 142.124 27.9053 142.471 27.7218C142.817 27.5382 143.061 27.2935 143.204 27.0081C143.347 26.7226 143.408 25.9886 143.408 24.8467V11.0015C143.408 9.83926 143.347 9.12557 143.204 8.81971C143.061 8.51386 142.817 8.28955 142.45 8.10603C142.084 7.92252 141.432 7.84098 140.454 7.84098V7.24963H150.68C153.124 7.24963 154.855 7.47394 155.874 7.90215C156.892 8.33035 157.687 8.98283 158.277 9.85962C158.868 10.7364 159.153 11.654 159.153 12.6124C159.153 13.6319 158.787 14.5495 158.033 15.3651C157.279 16.1603 155.976 16.8128 154.102 17.2818L154.142 17.3022ZM148.419 18.0974V25.7235C148.419 26.2944 148.541 26.7226 148.826 27.0081C149.111 27.2935 149.539 27.4363 150.109 27.4363C150.944 27.4363 151.718 27.2528 152.431 26.8857C153.144 26.5187 153.674 25.9682 154.061 25.2545C154.448 24.5408 154.631 23.766 154.631 22.8892C154.631 21.89 154.407 20.9929 153.939 20.1976C153.47 19.4024 152.839 18.8519 152.044 18.546C151.23 18.2402 150.028 18.077 148.419 18.0974ZM148.419 16.874C149.905 16.874 151.005 16.7109 151.718 16.3642C152.431 16.0176 152.961 15.5486 153.348 14.9573C153.735 14.3455 153.918 13.5707 153.918 12.6327C153.918 11.6948 153.735 10.9199 153.368 10.3082C153.002 9.6965 152.472 9.24792 151.779 8.92167C151.087 8.61582 149.967 8.45269 148.439 8.47308V16.874H148.419Z" fill="#E1CEB2"/>
<path d="M171.354 8.49345V17.1798H171.782C173.127 17.1798 174.104 16.7516 174.715 15.8952C175.326 15.0388 175.713 13.795 175.876 12.123H176.467V23.297H175.876C175.754 22.0736 175.489 21.0744 175.082 20.2996C174.675 19.5247 174.206 18.9946 173.677 18.7295C173.147 18.4644 172.373 18.3217 171.354 18.3217V24.3369C171.354 25.5196 171.395 26.2332 171.497 26.4983C171.599 26.7634 171.782 26.9673 172.047 27.1508C172.312 27.3139 172.76 27.3955 173.371 27.3955H174.654C176.65 27.3955 178.239 26.9265 179.441 26.009C180.643 25.0914 181.498 23.6844 182.028 21.7881H182.619L181.661 28.5781H163.227V27.9868H163.94C164.551 27.9868 165.06 27.8849 165.427 27.6606C165.692 27.5178 165.916 27.2527 166.058 26.9061C166.181 26.6614 166.242 25.9885 166.242 24.9282V10.8791C166.242 9.92078 166.221 9.32946 166.16 9.10517C166.058 8.73814 165.855 8.45267 165.57 8.24877C165.162 7.9633 164.633 7.80017 163.94 7.80017H163.227V7.20886H181.071V13.5299H180.48C180.174 11.9802 179.747 10.8792 179.197 10.2063C178.647 9.53339 177.873 9.04399 176.854 8.71774C176.263 8.53423 175.163 8.43228 173.554 8.43228H171.354V8.49345Z" fill="#E1CEB2"/>
<path d="M208.243 7.27002V7.86133C207.551 7.96328 207.001 8.1672 206.614 8.47305C206.084 8.92165 205.269 10.1247 204.129 12.0822L199.505 19.8102V24.969C199.505 26.0701 199.566 26.7634 199.688 27.0285C199.81 27.2935 200.034 27.5382 200.381 27.7421C200.727 27.946 201.175 28.048 201.746 28.048H202.947V28.6393H190.991V28.048H192.111C192.742 28.048 193.231 27.946 193.598 27.7217C193.863 27.579 194.087 27.3139 194.25 26.9673C194.372 26.7226 194.433 26.0497 194.433 24.9894V20.7074L189.422 11.552C188.424 9.75765 187.731 8.67695 187.324 8.3711C186.917 8.04485 186.367 7.88174 185.694 7.88174V7.2904H195.92V7.88174H195.472C194.861 7.88174 194.413 7.96328 194.168 8.1468C193.924 8.33031 193.801 8.51383 193.801 8.71773C193.801 9.08476 194.229 10.0431 195.064 11.5724L198.914 18.6479L202.744 12.2045C203.701 10.6345 204.169 9.59452 204.169 9.06437C204.169 8.7789 204.027 8.55462 203.762 8.35072C203.395 8.08564 202.744 7.92252 201.807 7.88174V7.2904H208.325L208.243 7.27002Z" fill="#E1CEB2"/>
<path d="M221.687 28.0276V28.6189H210.545V28.0276H211.258C211.869 28.0276 212.378 27.9256 212.745 27.7013C213.01 27.5586 213.234 27.2935 213.377 26.9469C213.499 26.7022 213.56 26.0293 213.56 24.969V10.9199C213.56 9.81884 213.499 9.14596 213.377 8.88088C213.254 8.6158 213.03 8.37113 212.684 8.16723C212.338 7.96332 211.849 7.86135 211.258 7.86135H210.545V7.27004H221.687V7.86135H220.974C220.363 7.86135 219.854 7.96331 219.487 8.18761C219.223 8.33034 218.998 8.59541 218.835 8.94205C218.713 9.18673 218.652 9.85962 218.652 10.9199V24.969C218.652 26.0497 218.713 26.743 218.835 27.0081C218.958 27.2732 219.202 27.5179 219.548 27.7218C219.895 27.9257 220.384 28.0276 220.974 28.0276H221.687ZM216.106 0.989746C216.737 0.989746 217.287 1.21405 217.736 1.66264C218.184 2.11123 218.408 2.66178 218.408 3.29389C218.408 3.926 218.184 4.47652 217.736 4.92511C217.287 5.3737 216.737 5.598 216.106 5.598C215.475 5.598 214.925 5.3737 214.476 4.92511C214.028 4.47652 213.804 3.926 213.804 3.29389C213.804 2.66178 214.028 2.11123 214.476 1.66264C214.925 1.21405 215.475 0.989746 216.106 0.989746Z" fill="#E1CEB2"/>
</svg>
