<svg width="120" height="151" viewBox="0 0 120 151" fill="none" xmlns="http://www.w3.org/2000/svg">
<g clip-path="url(#clip0_31_96077)">
<path d="M119.169 54.4441C118.411 24.7051 92.208 0.814545 59.9999 0.814545C27.7919 0.814545 1.59688 24.7051 0.830993 54.4441H0.814697V150.177H119.185V54.4441H119.169Z" stroke="#E1CEB2" stroke-miterlimit="10"/>
<path d="M114.606 56.179C113.905 28.3461 89.731 5.99504 59.9999 5.99504C30.2688 5.99504 6.10259 28.3542 5.39374 56.179H5.37744V145.771H114.614V56.179H114.598H114.606Z" fill="#1D5847" stroke="#E1CEB2" stroke-miterlimit="10"/>
<path d="M0.814697 123.273H119.185" stroke="#E1CEB2" stroke-miterlimit="10"/>
<path d="M119.169 54.4441C118.411 24.7051 92.208 0.814545 59.9999 0.814545C27.7919 0.814545 1.59688 24.7051 0.830993 54.4441H0.814697V150.177H119.185V54.4441H119.169Z" stroke="#E1CEB2" stroke-miterlimit="10"/>
<path d="M21.184 133.943C21.9907 134.131 22.561 134.359 22.8869 134.628C23.3595 135.011 23.5876 135.507 23.5876 136.11C23.5876 136.754 23.3269 137.283 22.8136 137.699C22.1781 138.204 21.2574 138.456 20.0515 138.456H15.7169V138.22C16.108 138.22 16.3769 138.179 16.5154 138.106C16.6539 138.032 16.7517 137.935 16.8087 137.821C16.8657 137.707 16.8902 137.413 16.8902 136.957V131.427C16.8902 130.962 16.8657 130.677 16.8087 130.555C16.7517 130.433 16.6539 130.343 16.5072 130.27C16.3606 130.197 16.0998 130.164 15.7087 130.164V129.928H19.7989C20.7766 129.928 21.4692 130.017 21.8766 130.188C22.284 130.359 22.6017 130.62 22.838 130.97C23.0743 131.321 23.1884 131.687 23.1884 132.07C23.1884 132.477 23.0417 132.844 22.7402 133.17C22.4388 133.487 21.9173 133.748 21.1677 133.935L21.184 133.943ZM18.8945 134.261V137.308C18.8945 137.536 18.9434 137.707 19.0575 137.821C19.1715 137.935 19.3426 137.992 19.5708 137.992C19.9048 137.992 20.2144 137.918 20.4996 137.772C20.7848 137.625 20.9966 137.405 21.1514 137.12C21.3062 136.835 21.3796 136.526 21.3796 136.175C21.3796 135.776 21.2899 135.418 21.1025 135.1C20.9151 134.782 20.6626 134.563 20.3448 134.44C20.0189 134.318 19.5382 134.253 18.8945 134.261ZM18.8945 133.772C19.4893 133.772 19.9293 133.707 20.2144 133.569C20.4996 133.43 20.7115 133.243 20.8663 133.007C21.0211 132.762 21.0944 132.453 21.0944 132.078C21.0944 131.703 21.0211 131.394 20.8744 131.15C20.7278 130.905 20.5159 130.726 20.2389 130.596C19.9619 130.474 19.5137 130.408 18.9027 130.416V133.772H18.8945Z" fill="#E1CEB2"/>
<path d="M28.0771 130.425V133.895H28.2482C28.786 133.895 29.1771 133.724 29.4215 133.381C29.6659 133.039 29.8207 132.542 29.8859 131.875H30.1222V136.338H29.8859C29.837 135.85 29.7311 135.45 29.5682 135.141C29.4052 134.831 29.2178 134.62 29.006 134.514C28.7941 134.408 28.4845 134.351 28.0771 134.351V136.754C28.0771 137.226 28.0934 137.511 28.1342 137.617C28.1749 137.723 28.2482 137.804 28.3541 137.878C28.4601 137.943 28.6393 137.975 28.8838 137.975H29.3971C30.1955 137.975 30.8311 137.788 31.3118 137.422C31.7925 137.055 32.1347 136.493 32.3465 135.735H32.5828L32.1999 138.448H24.8262V138.212H25.1113C25.3558 138.212 25.5595 138.171 25.7061 138.081C25.812 138.024 25.9017 137.918 25.9587 137.78C26.0076 137.682 26.032 137.413 26.032 136.99V131.378C26.032 130.995 26.0239 130.759 25.9994 130.669C25.9587 130.522 25.8772 130.408 25.7632 130.327C25.6002 130.213 25.3884 130.148 25.1113 130.148H24.8262V129.911H31.9636V132.437H31.7273C31.6051 131.818 31.434 131.378 31.214 131.109C30.994 130.84 30.6844 130.645 30.277 130.514C30.0407 130.441 29.6008 130.4 28.9571 130.4H28.0771V130.425Z" fill="#E1CEB2"/>
<path d="M42.8325 129.936V130.172C42.5555 130.213 42.3355 130.294 42.1807 130.416C41.9689 130.596 41.643 131.076 41.1867 131.858L39.3372 134.945V137.006C39.3372 137.446 39.3616 137.723 39.4105 137.829C39.4594 137.935 39.549 138.032 39.6875 138.114C39.826 138.195 40.0053 138.236 40.2334 138.236H40.7141V138.472H35.9314V138.236H36.3795C36.6321 138.236 36.8277 138.195 36.9743 138.106C37.0802 138.049 37.1699 137.943 37.235 137.804C37.2839 137.707 37.3084 137.438 37.3084 137.014V135.304L35.304 131.646C34.9048 130.93 34.6278 130.498 34.4648 130.376C34.3019 130.245 34.0819 130.18 33.813 130.18V129.944H37.9032V130.18H37.7239C37.4795 130.18 37.3002 130.213 37.2025 130.286C37.1047 130.359 37.0558 130.433 37.0558 130.514C37.0558 130.661 37.2269 131.044 37.561 131.655L39.1009 134.481L40.6327 131.907C41.0156 131.28 41.203 130.864 41.203 130.653C41.203 130.539 41.146 130.449 41.04 130.368C40.8934 130.262 40.6327 130.197 40.2579 130.18V129.944H42.8651L42.8325 129.936Z" fill="#E1CEB2"/>
<path d="M51.6241 135.475L51.3063 138.464H43.7371V138.228H44.0222C44.2667 138.228 44.4704 138.187 44.617 138.098C44.7229 138.041 44.8126 137.935 44.8696 137.796C44.9185 137.699 44.9429 137.43 44.9429 137.006V131.394C44.9429 130.954 44.9185 130.685 44.8696 130.579C44.8207 130.474 44.7311 130.376 44.5926 130.294C44.4541 130.213 44.2667 130.172 44.0222 130.172H43.7371V129.936H48.2835V130.172H47.9087C47.6643 130.172 47.4606 130.213 47.3139 130.302C47.208 130.359 47.1184 130.465 47.0532 130.604C47.0043 130.702 46.9799 130.97 46.9799 131.394V136.827C46.9799 137.267 47.0043 137.544 47.0532 137.658C47.1021 137.78 47.1999 137.87 47.3465 137.927C47.4524 137.967 47.705 137.984 48.1043 137.984H48.8131C49.2694 137.984 49.6442 137.902 49.9456 137.747C50.2471 137.593 50.5078 137.34 50.7278 136.99C50.9478 136.64 51.1597 136.143 51.3552 135.467H51.6159L51.6241 135.475Z" fill="#E1CEB2"/>
<path d="M56.1052 130.425V133.895H56.2763C56.814 133.895 57.2051 133.724 57.4496 133.381C57.694 133.039 57.8488 132.542 57.914 131.875H58.1503V136.338H57.914C57.8651 135.85 57.7592 135.45 57.5962 135.141C57.4333 134.831 57.2459 134.62 57.034 134.514C56.8222 134.408 56.5126 134.351 56.1052 134.351V136.754C56.1052 137.226 56.1215 137.511 56.1622 137.617C56.203 137.723 56.2763 137.804 56.3822 137.878C56.4881 137.943 56.6674 137.975 56.9118 137.975H57.4251C58.2236 137.975 58.8591 137.788 59.3399 137.422C59.8206 137.055 60.1628 136.493 60.3746 135.735H60.6109L60.228 138.448H52.8542V138.212H53.1394C53.3839 138.212 53.5875 138.171 53.7342 138.081C53.8401 138.024 53.9297 137.918 53.9868 137.78C54.0357 137.682 54.0601 137.413 54.0601 136.99V131.378C54.0601 130.995 54.052 130.759 54.0275 130.669C53.9868 130.522 53.9053 130.408 53.7912 130.327C53.6283 130.213 53.4164 130.148 53.1394 130.148H52.8542V129.911H59.9917V132.437H59.7554C59.6332 131.818 59.4621 131.378 59.2421 131.109C59.0221 130.84 58.7125 130.645 58.3051 130.514C58.0688 130.441 57.6288 130.4 56.9852 130.4H56.1052V130.425Z" fill="#E1CEB2"/>
<path d="M65.1248 134.579V136.965C65.1248 137.43 65.1493 137.715 65.2063 137.837C65.2633 137.959 65.3611 138.049 65.5078 138.122C65.6463 138.195 65.9152 138.228 66.3062 138.228V138.464H61.9391V138.228C62.3301 138.228 62.599 138.187 62.7375 138.114C62.876 138.041 62.9738 137.943 63.0309 137.829C63.0879 137.715 63.1123 137.422 63.1123 136.965V131.435C63.1123 130.97 63.0879 130.685 63.0309 130.563C62.9738 130.441 62.876 130.351 62.7294 130.278C62.5827 130.205 62.322 130.172 61.9309 130.172V129.936H65.8907C66.9255 129.936 67.6751 130.009 68.1558 130.148C68.6365 130.286 69.0276 130.555 69.3291 130.938C69.6305 131.321 69.7853 131.769 69.7853 132.29C69.7853 132.917 69.5572 133.438 69.1091 133.846C68.8158 134.106 68.4165 134.302 67.8951 134.432L69.9483 137.316C70.2172 137.69 70.4046 137.918 70.5186 138.016C70.6897 138.147 70.8934 138.22 71.1134 138.228V138.464H68.4247L65.6789 134.579H65.1167H65.1248ZM65.1248 130.4V134.139H65.4833C66.07 134.139 66.5018 134.09 66.7951 133.976C67.0884 133.862 67.3084 133.675 67.4795 133.398C67.6425 133.121 67.724 132.754 67.724 132.306C67.724 131.655 67.5691 131.174 67.2677 130.864C66.9662 130.555 66.4774 130.4 65.8011 130.4H65.1248Z" fill="#E1CEB2"/>
<path d="M77.2568 133.943C78.0634 134.131 78.6338 134.359 78.9597 134.628C79.4322 135.011 79.6604 135.507 79.6604 136.11C79.6604 136.754 79.3996 137.283 78.8863 137.699C78.2508 138.204 77.3301 138.456 76.1242 138.456H71.7896V138.22C72.1807 138.22 72.4496 138.179 72.5881 138.106C72.7266 138.032 72.8244 137.935 72.8814 137.821C72.9385 137.707 72.9629 137.413 72.9629 136.957V131.427C72.9629 130.962 72.9385 130.677 72.8814 130.555C72.8244 130.433 72.7266 130.343 72.58 130.27C72.4333 130.197 72.1726 130.164 71.7815 130.164V129.928H75.8717C76.8494 129.928 77.542 130.017 77.9493 130.188C78.3567 130.359 78.6745 130.62 78.9108 130.97C79.1471 131.321 79.2611 131.687 79.2611 132.07C79.2611 132.477 79.1145 132.844 78.813 133.17C78.5115 133.487 77.9901 133.748 77.2405 133.935L77.2568 133.943ZM74.9673 134.261V137.308C74.9673 137.536 75.0161 137.707 75.1302 137.821C75.2443 137.935 75.4154 137.992 75.6435 137.992C75.9776 137.992 76.2872 137.918 76.5724 137.772C76.8575 137.625 77.0694 137.405 77.2242 137.12C77.379 136.835 77.4523 136.526 77.4523 136.175C77.4523 135.776 77.3627 135.418 77.1753 135.1C76.9879 134.782 76.7353 134.563 76.4176 134.44C76.0917 134.318 75.6109 134.253 74.9673 134.261ZM74.9673 133.772C75.5621 133.772 76.002 133.707 76.2872 133.569C76.5724 133.43 76.7842 133.243 76.939 133.007C77.0938 132.762 77.1672 132.453 77.1672 132.078C77.1672 131.703 77.0938 131.394 76.9472 131.15C76.8005 130.905 76.5887 130.726 76.3116 130.596C76.0346 130.474 75.5865 130.408 74.9754 130.416V133.772H74.9673Z" fill="#E1CEB2"/>
<path d="M84.1416 130.425V133.895H84.3127C84.8504 133.895 85.2415 133.724 85.486 133.381C85.7304 133.039 85.8852 132.542 85.9504 131.875H86.1867V136.338H85.9504C85.9015 135.85 85.7956 135.45 85.6326 135.141C85.4697 134.831 85.2823 134.62 85.0704 134.514C84.8586 134.408 84.549 134.351 84.1416 134.351V136.754C84.1416 137.226 84.1579 137.511 84.1986 137.617C84.2393 137.723 84.3127 137.804 84.4186 137.878C84.5245 137.943 84.7038 137.975 84.9482 137.975H85.4615C86.26 137.975 86.8955 137.788 87.3762 137.422C87.8569 137.055 88.1992 136.493 88.411 135.735H88.6473L88.2643 138.448H80.8906V138.212H81.1758C81.4202 138.212 81.6239 138.171 81.7706 138.081C81.8765 138.024 81.9661 137.918 82.0232 137.78C82.072 137.682 82.0965 137.413 82.0965 136.99V131.378C82.0965 130.995 82.0883 130.759 82.0639 130.669C82.0232 130.522 81.9417 130.408 81.8276 130.327C81.6647 130.213 81.4528 130.148 81.1758 130.148H80.8906V129.911H88.0281V132.437H87.7918C87.6696 131.818 87.4984 131.378 87.2785 131.109C87.0585 130.84 86.7489 130.645 86.3415 130.514C86.1052 130.441 85.6652 130.4 85.0215 130.4H84.1416V130.425Z" fill="#E1CEB2"/>
<path d="M98.8972 129.936V130.172C98.6202 130.213 98.4002 130.294 98.2454 130.416C98.0336 130.596 97.7077 131.076 97.2514 131.858L95.4019 134.945V137.006C95.4019 137.446 95.4263 137.723 95.4752 137.829C95.5241 137.935 95.6137 138.032 95.7522 138.114C95.8907 138.195 96.07 138.236 96.2981 138.236H96.7788V138.472H91.9961V138.236H92.4442C92.6968 138.236 92.8924 138.195 93.039 138.106C93.1449 138.049 93.2346 137.943 93.2997 137.804C93.3486 137.707 93.3731 137.438 93.3731 137.014V135.304L91.3687 131.646C90.9695 130.93 90.6925 130.498 90.5295 130.376C90.3666 130.245 90.1466 130.18 89.8777 130.18V129.944H93.9679V130.18H93.7886C93.5442 130.18 93.3649 130.213 93.2672 130.286C93.1694 130.359 93.1205 130.433 93.1205 130.514C93.1205 130.661 93.2916 131.044 93.6257 131.655L95.1656 134.481L96.6974 131.907C97.0803 131.28 97.2677 130.864 97.2677 130.653C97.2677 130.539 97.2107 130.449 97.1047 130.368C96.9581 130.262 96.6974 130.197 96.3226 130.18V129.944H98.9298L98.8972 129.936Z" fill="#E1CEB2"/>
<path d="M104.275 138.228V138.464H99.8179V138.228H100.103C100.347 138.228 100.551 138.187 100.698 138.098C100.804 138.041 100.893 137.935 100.95 137.796C100.999 137.699 101.024 137.43 101.024 137.006V131.394C101.024 130.954 100.999 130.685 100.95 130.579C100.902 130.474 100.812 130.376 100.673 130.294C100.535 130.213 100.339 130.172 100.103 130.172H99.8179V129.936H104.275V130.172H103.99C103.745 130.172 103.541 130.213 103.395 130.302C103.289 130.359 103.199 130.465 103.134 130.604C103.085 130.702 103.061 130.97 103.061 131.394V137.006C103.061 137.438 103.085 137.715 103.134 137.821C103.183 137.927 103.281 138.024 103.419 138.106C103.558 138.187 103.753 138.228 103.99 138.228H104.275ZM102.042 127.427C102.295 127.427 102.515 127.517 102.694 127.696C102.873 127.875 102.963 128.095 102.963 128.348C102.963 128.6 102.873 128.82 102.694 128.999C102.515 129.178 102.295 129.268 102.042 129.268C101.79 129.268 101.57 129.178 101.39 128.999C101.211 128.82 101.122 128.6 101.122 128.348C101.122 128.095 101.211 127.875 101.39 127.696C101.57 127.517 101.79 127.427 102.042 127.427Z" fill="#E1CEB2"/>
<path d="M79.5709 47.5123L78.5687 48.5223C78.2347 48.8563 77.9006 49.1984 77.591 49.5568C77.9413 49.2391 78.2672 48.897 78.5932 48.5468L79.5709 47.5123ZM72.9223 65.7336C72.686 65.53 72.4498 65.3182 72.1401 65.1716C71.8305 65.025 71.4883 65.0168 71.1787 65.0331C70.8609 65.0494 70.5595 65.0657 70.2499 65.0413C69.9403 65.025 69.6388 64.9598 69.3129 64.9435C68.987 64.9191 68.6448 65.0168 68.3596 65.1716C68.0663 65.3264 67.8463 65.5544 67.61 65.7662C67.3819 65.978 67.1537 66.1898 66.8767 66.3527C67.17 66.2305 67.4307 66.0432 67.6752 65.8558C67.7974 65.7662 67.9278 65.6685 68.0581 65.587C68.1885 65.4974 68.3189 65.4241 68.4492 65.3508C68.7099 65.2042 69.0033 65.1227 69.2966 65.1472C69.598 65.1634 69.9077 65.2286 70.2254 65.2449C70.5432 65.2693 70.8691 65.253 71.1787 65.2368C71.4883 65.2205 71.7898 65.2286 72.0505 65.3589C72.3194 65.4811 72.5557 65.6929 72.792 65.8965L73.4275 66.4423C73.3867 66.483 73.3134 66.5074 73.2319 66.5319L72.8734 66.6296L72.1564 66.8333L70.7224 67.2324L69.2884 67.6234C69.0521 67.6804 68.8159 67.7048 68.5714 67.6559C68.3351 67.6071 68.0989 67.5093 67.8707 67.4116C68.0826 67.5338 68.3026 67.6641 68.547 67.7374C68.7914 67.8189 69.0603 67.827 69.3129 67.7863C69.5736 67.7618 69.8017 67.6722 70.0462 67.6071L70.7632 67.4034L72.1972 67.0043L72.9142 66.8007L73.2727 66.7029C73.3297 66.6866 73.403 66.6703 73.4682 66.6378C73.5334 66.6052 73.6067 66.5482 73.6393 66.4586L73.6638 66.3934L73.6149 66.3527L72.8979 65.7336H72.9223ZM56.912 51.976C57.0261 51.9108 57.1646 51.8701 57.2868 51.8212C57.4172 51.7724 57.5394 51.699 57.6453 51.6094C57.8571 51.4221 57.9957 51.1777 58.126 50.9415C58.6475 49.9722 59.2667 49.0599 59.9593 48.2128C59.2504 49.0518 58.623 49.9641 58.0934 50.9252C57.9549 51.1614 57.8164 51.4058 57.6127 51.5769C57.5149 51.6665 57.3927 51.7316 57.2624 51.7805C57.132 51.8294 57.0016 51.8701 56.8794 51.9353C56.635 52.0737 56.4476 52.2937 56.3009 52.5217C56.1543 52.758 56.0483 53.0105 55.9506 53.2711C56.0646 53.0186 56.1706 52.7661 56.3172 52.538C56.4639 52.31 56.6513 52.0982 56.8876 51.976H56.912ZM54.4758 56.2768C54.5084 56.122 54.5166 55.9754 54.5166 55.8206C54.5166 55.5193 54.4514 55.226 54.484 54.9246C54.4269 55.2179 54.4595 55.5274 54.4432 55.8206C54.4432 56.1139 54.3373 56.399 54.2314 56.6678C54.1744 56.7981 54.1092 56.9284 54.0196 57.0424C53.987 57.0913 53.9299 57.1158 53.8892 57.1483C53.987 57.1321 54.0766 57.1158 54.1662 57.0913C54.2395 56.9691 54.3047 56.8388 54.3455 56.7085C54.3944 56.5619 54.4351 56.4153 54.4677 56.2686L54.4758 56.2768ZM50.7116 57.8244C50.7849 57.8407 50.8582 57.8244 50.9234 57.8244L50.5242 57.7593C50.5894 57.7755 50.6464 57.8081 50.7116 57.8163V57.8244ZM75.0407 53.6214C75.0326 53.5481 75.0163 53.4747 75 53.4014C74.9756 53.4747 74.9593 53.5481 74.943 53.6214L74.9185 53.7273C74.9185 53.7273 74.8941 53.7924 74.8859 53.7924C74.8859 53.7924 74.8371 53.825 74.7963 53.8006C74.7474 53.7843 74.6985 53.7517 74.6497 53.7028L74.0467 53.0675C73.9489 52.9616 73.8349 52.8476 73.7534 52.7498C73.6719 52.6521 73.623 52.5299 73.6638 52.4321C73.6964 52.3507 73.8349 52.2448 73.9408 52.147C74.0304 52.0249 74.12 51.9108 74.2015 51.7805C74.063 51.8538 73.9408 51.9271 73.8104 52.0086L73.6475 52.1552C73.5904 52.2041 73.5253 52.2692 73.4845 52.367C73.4112 52.5625 73.509 52.7498 73.6067 52.872C73.7127 52.9942 73.8104 53.0919 73.9082 53.206L74.5193 53.8494C74.56 53.8902 74.6252 53.9228 74.6822 53.9472C74.5682 53.9961 74.4704 54.0938 74.4134 54.1997C74.3563 54.3137 74.3156 54.4441 74.283 54.5662C74.226 54.8187 74.1526 55.055 74.0467 55.283C73.8675 55.7473 73.5986 56.179 73.2482 56.5293C72.8979 56.8795 72.4742 57.1891 72.0016 57.295C71.7654 57.352 71.5209 57.3438 71.3009 57.2624C71.0809 57.1809 70.8935 57.0262 70.7958 56.8144C70.698 56.6026 70.6573 56.3501 70.6165 56.0976L70.4943 55.3401C70.4536 55.0875 70.421 54.835 70.4617 54.607C70.4943 54.3789 70.641 54.1834 70.8284 54.0286C71.0158 53.8739 71.2439 53.7598 71.472 53.6377L72.1483 53.2793C72.5883 53.0105 73.0201 52.7498 73.4601 52.4729C72.9875 52.6765 72.5312 52.8964 72.0587 53.1164L71.3824 53.4829C71.1624 53.6051 70.9261 53.7191 70.7143 53.8902C70.5024 54.0531 70.3232 54.2974 70.2743 54.5825C70.2254 54.8595 70.2743 55.1283 70.3069 55.3726L70.4291 56.1302C70.4699 56.3827 70.5024 56.6433 70.6247 56.8958C70.6573 56.961 70.7061 57.0099 70.755 57.0669C70.5024 57.1076 70.2417 57.1565 69.9891 57.2135C69.704 57.2705 69.4351 57.3927 69.1662 57.4904C68.8973 57.5963 68.6285 57.7185 68.3759 57.8488C68.2455 57.914 68.1233 57.971 67.9848 58.0525C67.9196 58.0932 67.8544 58.1502 67.7974 58.2235C67.7729 58.2643 67.7485 58.305 67.7404 58.362C67.7322 58.419 67.7404 58.476 67.773 58.5249L67.8055 58.5738H67.8626C68.1152 58.5656 68.3596 58.6552 68.5633 58.81C68.4981 58.867 68.4248 58.9078 68.327 58.9322C68.1966 58.9566 68.0581 58.9485 67.9115 58.924C67.7648 58.8996 67.61 58.8752 67.447 58.8752C67.2841 58.8752 67.113 58.9403 66.9826 59.0136C66.8441 59.087 66.7219 59.1766 66.5997 59.2417C66.4775 59.3069 66.3389 59.3558 66.2004 59.4209C66.0619 59.4779 65.9071 59.5594 65.8012 59.6979C65.7442 59.763 65.7034 59.8445 65.679 59.9259C65.6627 59.9911 65.6627 60.0563 65.679 60.1296C65.4101 60.2517 65.1412 60.3739 64.8724 60.5043C65.182 60.4228 65.4916 60.3332 65.8012 60.2518L65.8664 60.2355L65.8501 60.154C65.8338 60.097 65.8501 60.04 65.8664 59.983C65.8827 59.9259 65.9071 59.8689 65.9479 59.82C66.0293 59.7223 66.1434 59.6571 66.2738 59.592C66.4041 59.535 66.5508 59.4861 66.6893 59.4046C66.8278 59.3313 66.95 59.2417 67.0722 59.1766C67.1945 59.1114 67.3167 59.0625 67.4552 59.0625C67.5937 59.0625 67.7322 59.087 67.8789 59.1032C68.0255 59.1277 68.1966 59.144 68.3596 59.1032C68.5225 59.0707 68.6936 58.9892 68.7914 58.8263L68.8322 58.7611L68.7751 58.7123C68.547 58.5086 68.2537 58.3946 67.9441 58.3864C67.9441 58.3294 68.0011 58.2561 68.0826 58.2072C68.1966 58.1421 68.3351 58.0769 68.4574 58.0118C68.7099 57.8896 68.9707 57.7674 69.2395 57.6615C69.3699 57.6045 69.5084 57.5556 69.6388 57.5067C69.7773 57.466 69.9077 57.4009 70.038 57.352C70.2743 57.2542 70.5187 57.1646 70.7632 57.075C70.8935 57.2379 71.0483 57.3683 71.2357 57.4334C71.4965 57.5312 71.7816 57.5393 72.0424 57.4742C72.572 57.3438 73.0038 57.018 73.3786 56.6515C73.7452 56.2768 74.0386 55.8288 74.2178 55.3319C74.2993 55.0794 74.3482 54.8187 74.3726 54.5662C74.3889 54.4441 74.4134 54.3137 74.4541 54.1997C74.4948 54.0857 74.5682 53.9879 74.6741 53.9227C74.6985 53.9309 74.7067 53.9553 74.7311 53.9635C74.78 53.9798 74.8371 53.9798 74.8859 53.9635C74.9348 53.9472 75 53.9228 75.0326 53.8576C75.057 53.7924 75.0489 53.7354 75.0407 53.7028L75.0244 53.5888L75.0407 53.6214ZM74.9104 52.3996L75.1467 52.2937H75.163V52.2692C75.1304 52.1063 75.2852 51.9923 75.4237 51.9271C75.5622 51.8538 75.7333 51.8294 75.8881 51.7724C76.2059 51.6665 76.5155 51.5361 76.8169 51.3814C77.4199 51.08 77.9576 50.6727 78.4465 50.2166C78.9354 49.7604 79.3916 49.2799 79.8724 48.8237C80.3531 48.3676 80.8745 47.9521 81.4856 47.6752V47.6589C80.8664 47.9196 80.3286 48.3268 79.8316 48.7667C79.3346 49.2147 78.8702 49.6871 78.3813 50.127C77.8843 50.5668 77.3384 50.9415 76.7599 51.2429C76.4666 51.3977 76.1733 51.5361 75.8637 51.6502C75.7089 51.7153 75.5459 51.7561 75.3992 51.8375C75.3259 51.8782 75.2526 51.9353 75.1955 52.0004C75.1467 52.0656 75.1222 52.1552 75.1385 52.2448L74.9185 52.367V52.3833L74.9104 52.3996ZM45.1548 56.9691C44.4378 57.018 43.7127 56.9366 43.0282 56.7329C42.3357 56.5374 41.6676 56.2523 41.0076 55.9754L39.0114 55.1364L40.9995 55.9998C41.6594 56.2849 42.3275 56.57 43.0201 56.7736C43.7127 56.9773 44.446 57.0669 45.163 57.018C45.8881 56.9691 46.597 56.8225 47.2977 56.6678C46.5888 56.7899 45.88 56.9284 45.163 56.9691H45.1548ZM59.2341 52.8638C58.9245 53.1815 58.5416 53.4096 58.1505 53.5969C57.352 53.9716 56.5454 54.3219 55.7387 54.6966C56.5535 54.3545 57.3601 54.0042 58.1668 53.6377C58.566 53.4422 58.9489 53.2141 59.2586 52.8883C59.5763 52.5706 59.8289 52.2041 60.0733 51.8457C61.0755 50.3876 61.988 48.8726 62.811 47.3168C61.9718 48.8726 61.0511 50.3795 60.0407 51.8294C59.7882 52.1878 59.5356 52.5543 59.226 52.8638H59.2341ZM49.5464 50.1351C49.3265 49.7686 49.0983 49.402 48.9191 49.0111C48.7317 48.6282 48.5932 48.2128 48.5687 47.7892C48.5361 47.3657 48.642 46.9421 48.7887 46.5348C48.9354 46.1276 49.1065 45.7366 49.2939 45.3456C49.6768 44.5718 50.1412 43.8469 50.6871 43.1789C50.1331 43.8306 49.6524 44.5555 49.2531 45.3293C49.0576 45.7122 48.8783 46.1113 48.7317 46.5186C48.585 46.9258 48.4628 47.3575 48.4954 47.7974C48.5198 48.2372 48.6502 48.6608 48.8376 49.0518C49.025 49.4428 49.2531 49.8175 49.4731 50.184C49.7013 50.5505 49.9294 50.9171 50.1086 51.3081C50.2879 51.699 50.4264 52.1063 50.459 52.538H50.4671C50.4671 52.1063 50.3368 51.6746 50.1575 51.2836C49.9864 50.8845 49.7664 50.5098 49.5464 50.1433V50.1351ZM52.2433 47.7892C52.3085 47.553 52.3819 47.325 52.447 47.0887C52.5122 46.8525 52.5611 46.6163 52.5856 46.3719C52.61 46.1276 52.5937 45.8832 52.5367 45.647C52.6507 46.1276 52.553 46.6163 52.4226 47.0806L52.2108 47.7811C52.1456 48.0173 52.0804 48.2535 52.0234 48.4897C52.1048 48.2617 52.1782 48.0255 52.2515 47.7974L52.2433 47.7892ZM51.4856 51.8049C51.5589 52.0737 51.5915 52.367 51.5426 52.6521C51.6078 52.3751 51.5834 52.0737 51.5101 51.7968C51.4367 51.5198 51.3145 51.251 51.1841 50.9985C51.0456 50.746 50.899 50.5017 50.7686 50.2492C50.6382 49.9967 50.5242 49.736 50.4427 49.4591C50.2797 48.9133 50.2146 48.3431 50.2471 47.773C50.2797 47.2028 50.4183 46.6407 50.6545 46.1194C50.4183 46.6326 50.2634 47.2028 50.2309 47.773C50.1901 48.3431 50.2471 48.9215 50.4101 49.4753C50.4834 49.7523 50.5975 50.0211 50.7279 50.2736C50.8582 50.5261 51.0049 50.7705 51.1434 51.023C51.2819 51.2755 51.4041 51.528 51.4856 51.8049ZM55.5432 52.0412C55.6817 51.862 55.8447 51.7072 56.0402 51.5932C56.2357 51.4791 56.4557 51.3895 56.6431 51.2266C56.8305 51.0637 56.969 50.8682 57.0994 50.6727C57.2216 50.4691 57.3357 50.2655 57.4498 50.0618C57.6697 49.6464 57.8734 49.231 58.0853 48.8156C58.509 47.9929 58.9571 47.1702 59.5926 46.486C60.2118 45.8099 61.0185 45.2479 61.9392 45.0931V45.0768C61.0022 45.2071 60.1793 45.761 59.5356 46.429C58.8838 47.1132 58.4193 47.9359 57.9794 48.7504C57.7594 49.1577 57.5475 49.5731 57.3194 49.9804C57.0913 50.3795 56.8794 50.8112 56.5454 51.1044C56.3824 51.251 56.1706 51.3488 55.9669 51.471C55.7632 51.5932 55.5839 51.7642 55.4454 51.9678C55.1765 52.3588 55.0462 52.8231 54.924 53.2711H54.9403C55.0951 52.8394 55.258 52.3914 55.5269 52.0249L55.5432 52.0412ZM67.2271 66.8251L66.9745 66.6052C66.9337 66.5726 66.893 66.5319 66.8767 66.4993C66.8523 66.4667 66.8523 66.4423 66.8523 66.4015C66.8604 66.3201 66.9174 66.2305 66.9826 66.1328C67.0152 66.0839 67.0397 66.0269 67.0641 65.9617C67.0885 65.8965 67.0885 65.7906 67.0315 65.7173C66.9826 65.644 66.893 65.6033 66.8278 65.5952C66.7545 65.587 66.6893 65.5952 66.6323 65.5952C66.5182 65.6033 66.4041 65.6196 66.2901 65.644C66.0619 65.6847 65.8419 65.7499 65.6219 65.8395C65.239 65.9943 64.8805 66.2224 64.5709 66.4993C64.4242 66.1083 64.4161 65.6685 64.5709 65.2856C64.6442 65.0738 64.799 64.8946 64.9131 64.6584C64.9701 64.5444 65.0109 64.4059 64.9946 64.2593C64.9864 64.1127 64.9212 63.9986 64.9049 63.8928C64.8561 63.681 64.9049 63.4529 65.0027 63.2493C65.1005 63.0456 65.2471 62.8583 65.402 62.6791C65.5649 62.4999 65.736 62.3288 65.8908 62.1415C66.0456 61.946 66.1841 61.7261 66.2493 61.4736L66.2819 61.3269L66.1353 61.3514C65.8582 61.4003 65.6138 61.5469 65.4101 61.7098L65.4997 61.6202L65.5486 61.5713L65.4916 61.5387C65.182 61.3921 64.8153 61.3595 64.4894 61.4573L64.522 60.7975L64.4405 61.4817V61.5143H64.465C64.7664 61.441 65.0923 61.4817 65.3694 61.612L65.0435 61.9297C64.9131 62.0519 64.7909 62.1822 64.6605 62.2881C64.5301 62.4021 64.3998 62.4673 64.2287 62.4673C64.0657 62.4836 63.862 62.4592 63.6665 62.5813L63.6257 62.6058V62.6547C63.6095 62.8013 63.5524 62.9479 63.4628 63.0619L63.3406 63.2085H63.5361C63.8294 63.2248 64.1065 63.1108 64.3346 62.956C64.5627 62.8013 64.7664 62.6139 64.9457 62.4184C65.1249 62.2229 65.3042 62.0356 65.5079 61.8727C65.6545 61.7505 65.8175 61.6691 65.9886 61.6039C65.8338 61.9541 65.5405 62.2474 65.2634 62.5488C65.1005 62.728 64.9457 62.9316 64.8316 63.1597C64.7175 63.3877 64.6605 63.6565 64.7175 63.9253C64.742 64.0557 64.799 64.1616 64.799 64.2593C64.8072 64.357 64.7746 64.4629 64.7338 64.5607C64.6361 64.7643 64.4731 64.9598 64.3916 65.2042C64.2042 65.6766 64.2205 66.2224 64.4405 66.6866L64.4976 66.8088L64.5953 66.7192C64.9131 66.4178 65.2879 66.1735 65.6953 66.0106C65.899 65.9291 66.1108 65.8639 66.3227 65.8232C66.4286 65.7988 66.5426 65.7906 66.6486 65.7744C66.7545 65.7581 66.8523 65.7744 66.8686 65.8151C66.9011 65.8477 66.8686 65.9291 66.8115 66.0269C66.7626 66.1246 66.6893 66.2224 66.6649 66.369C66.6567 66.4423 66.6649 66.5319 66.7137 66.597C66.7545 66.6622 66.8034 66.7029 66.8441 66.7355L67.0967 66.9554L67.9766 67.7293C67.8626 67.7537 67.7404 67.7537 67.6181 67.7211C67.4389 67.6804 67.2678 67.5908 67.0885 67.5012C66.9093 67.4116 66.7137 67.3301 66.4938 67.3057C66.2738 67.2813 66.0701 67.3301 65.8745 67.379C65.679 67.436 65.4916 67.5012 65.3123 67.5419C65.2227 67.5663 65.1249 67.5745 65.0353 67.5745C64.9457 67.5745 64.8479 67.5582 64.7338 67.5745C64.6198 67.5745 64.4894 67.6397 64.4079 67.7293C64.3265 67.8189 64.2776 67.9166 64.2368 68.0143C64.1961 68.1121 64.1635 68.2017 64.1309 68.2913C64.0983 68.3727 64.0413 68.4542 63.9924 68.5275C63.8783 68.6823 63.7398 68.837 63.6502 69.0325C63.5524 69.228 63.528 69.4479 63.5198 69.6516C63.528 70.0588 63.5524 70.4417 63.5687 70.8408L63.6909 73.2111V70.8327C63.7072 70.4417 63.6909 70.0344 63.7072 69.6516C63.7072 69.4642 63.7398 69.2769 63.8131 69.114C63.8946 68.9511 64.025 68.8045 64.1391 68.6415C64.1961 68.5601 64.2613 68.4705 64.302 68.3727C64.3427 68.275 64.3753 68.1854 64.4161 68.0958C64.4813 67.9166 64.5872 67.7781 64.7501 67.7781C64.8316 67.7781 64.9294 67.7863 65.0435 67.7781C65.1494 67.7781 65.2553 67.7618 65.3531 67.7374C65.5568 67.6967 65.7442 67.6234 65.9316 67.5745C66.119 67.5175 66.3064 67.4849 66.4856 67.5012C66.6649 67.5175 66.836 67.5908 67.0152 67.6804C67.1945 67.7618 67.3737 67.8596 67.5774 67.9085C67.7811 67.9573 68.0174 67.9736 68.2211 67.8677L68.3433 67.8026L68.2374 67.713L67.2189 66.8251H67.2271ZM64.2368 62.7931C64.082 62.899 63.9028 62.956 63.7317 62.9886C63.7724 62.9072 63.7969 62.8176 63.8131 62.728C63.9272 62.6628 64.082 62.6628 64.2531 62.6465C64.3428 62.6384 64.4405 62.6139 64.5301 62.5651C64.4324 62.6465 64.3427 62.728 64.2368 62.7931ZM68.0989 67.3138C68.49 67.3953 68.8973 67.3464 69.2803 67.265C69.6714 67.1754 70.0462 67.045 70.421 66.931L72.686 66.2142L70.4128 66.8984C70.0299 67.0125 69.6551 67.1346 69.2721 67.2242C68.8892 67.322 68.49 67.3627 68.0989 67.322V67.3138ZM68.8973 66.2305C68.6529 66.2468 68.4166 66.2549 68.1722 66.2875C67.9359 66.3282 67.6915 66.3771 67.4715 66.4749C67.6996 66.4097 67.9359 66.3608 68.1803 66.3364C68.4166 66.3038 68.6611 66.2875 68.8973 66.2712C69.3781 66.2305 69.8669 66.1898 70.3151 66.0024C69.8669 66.1735 69.3781 66.2061 68.8973 66.2386V66.2305ZM52.3819 52.6928C52.6752 52.2937 52.8952 51.8457 53.0663 51.3814C53.2292 50.9171 53.327 50.4284 53.3596 49.9315C53.3922 49.4346 53.384 48.9459 53.4003 48.4572C53.4166 47.9684 53.4737 47.4716 53.6366 47.0073C53.4655 47.4716 53.4085 47.9684 53.384 48.4572C53.3596 48.9459 53.3677 49.4428 53.327 49.9315C53.2863 50.4202 53.1885 50.9089 53.0255 51.3651C52.8707 51.8294 52.6507 52.2692 52.3819 52.6846V52.6928ZM71.3254 43.3581C71.6839 43.1056 72.0668 42.8857 72.4416 42.6495C73.1668 42.2259 73.9326 41.8838 74.7311 41.6231C74.8126 42.6006 74.9022 43.5699 74.9756 44.5474C75.0081 45.0524 75.0163 45.5574 74.9267 46.0543C74.8452 46.543 74.6578 47.0154 74.3482 47.4064C73.8512 48.0417 73.1586 48.506 72.5475 49.0762C72.4986 49.1007 72.4579 49.1332 72.409 49.1577C72.4416 49.1495 72.4661 49.1332 72.4986 49.1251C72.3683 49.2473 72.2379 49.3613 72.1238 49.4998C71.7898 49.8908 71.4639 50.2573 71.0239 50.5017C70.8039 50.6238 70.5758 50.7216 70.3232 50.7623C70.0788 50.7949 69.8099 50.7623 69.6143 50.5913C69.7854 50.7868 70.0706 50.8519 70.3313 50.8356C70.5921 50.8193 70.8447 50.7379 71.0809 50.6239C71.2765 50.5343 71.4639 50.4121 71.6431 50.2736C71.7898 50.2736 71.9283 50.2736 72.075 50.2655C72.1646 50.2655 72.2461 50.2655 72.3357 50.2573H72.3601L72.132 50.5587C72.0098 50.7216 71.8957 50.8927 71.7491 51.0148C71.6105 51.137 71.4313 51.2185 71.2439 51.2836C71.0565 51.3488 70.861 51.4058 70.6654 51.4384C70.4699 51.471 70.2743 51.4873 70.0788 51.471C69.8914 51.4547 69.6877 51.3977 69.541 51.2999C69.4677 51.251 69.4269 51.1859 69.3862 51.0963C69.3699 51.0556 69.3536 51.0067 69.3373 50.9578C69.321 50.9089 69.2966 50.8682 69.2721 50.8193C69.1907 50.632 69.1173 50.4446 69.044 50.2492C69.044 50.4528 69.0847 50.6646 69.1173 50.8682C69.1255 50.9171 69.1336 50.9741 69.1499 51.023C69.1662 51.0718 69.1907 51.1207 69.207 51.1696C69.2477 51.2673 69.321 51.3895 69.4269 51.4547C69.7529 51.6583 70.1277 51.6909 70.478 51.6502C70.478 51.7561 70.4861 51.862 70.4943 51.9678L70.6084 52.3181C70.6247 52.3751 70.6491 52.4321 70.641 52.4566C70.6328 52.4566 70.6165 52.4566 70.5839 52.4647C70.3802 52.5217 70.3395 52.7335 70.3558 52.872C70.3721 53.0105 70.4047 53.1164 70.4047 53.2304C70.4047 53.3444 70.4047 53.4666 70.3802 53.5806C70.3639 53.6947 70.3395 53.8169 70.3069 53.9309C70.3069 54.0531 70.2988 54.1834 70.2988 54.3137C70.3721 54.2078 70.4291 54.0938 70.4943 53.9798C70.5269 53.8576 70.5513 53.7354 70.5758 53.6051C70.5921 53.4747 70.6002 53.3526 70.6002 53.2222C70.6002 53.0919 70.5676 52.9534 70.5513 52.8476C70.5513 52.7905 70.5513 52.7498 70.5676 52.7172C70.5839 52.6765 70.6084 52.6521 70.6328 52.6521C70.641 52.6521 70.6817 52.6521 70.7469 52.6276C70.8121 52.595 70.8447 52.5217 70.8447 52.4729C70.8447 52.3751 70.8121 52.31 70.8039 52.2529L70.6898 51.9027C70.6328 51.8131 70.5758 51.7235 70.5187 51.6339C70.5758 51.6339 70.641 51.6257 70.698 51.6094C70.9098 51.5769 71.1054 51.5117 71.3091 51.4465C71.5046 51.3814 71.7165 51.2918 71.8794 51.1452C72.0505 50.9985 72.1646 50.8193 72.2868 50.6646L72.6535 50.1677L72.792 49.9804L72.5638 50.0129L72.3112 50.0455C72.2298 50.0618 72.1401 50.0944 72.0587 50.1107C71.9365 50.1433 71.8224 50.1759 71.7002 50.2166C71.7165 50.2003 71.7328 50.1921 71.7491 50.184C71.9446 50.0048 72.1076 49.8012 72.2705 49.6138C72.4823 49.3613 72.7268 49.1414 72.9875 48.9215C73.0445 48.897 73.1016 48.8807 73.1586 48.8563C73.2808 48.8074 73.4112 48.7585 73.5334 48.7097L73.8919 48.5305C74.3726 48.2943 74.8452 48.0662 75.3259 47.8218C75.7985 47.5775 76.271 47.3005 76.6784 46.9421C76.8821 46.7629 77.0695 46.5593 77.2243 46.3312C77.3058 46.2172 77.371 46.095 77.4199 45.9484C77.4606 45.8099 77.4769 45.647 77.4199 45.4922L77.3873 45.3945L77.2895 45.4352L76.0592 46.0054C75.8474 46.0868 75.66 46.2172 75.4563 46.3231C75.2933 46.4208 75.1222 46.5104 74.9593 46.6082C75.0244 46.429 75.0896 46.2498 75.1141 46.0624C75.2037 45.5492 75.1955 45.0279 75.163 44.5148C75.0815 43.4966 74.9919 42.4784 74.9022 41.4602V41.3462L74.78 41.3788C73.9245 41.6394 73.1016 42.006 72.3357 42.4621C71.9446 42.6821 71.5942 42.959 71.2439 43.2359C70.9017 43.521 70.5758 43.8224 70.2743 44.1482C70.6084 43.855 70.9587 43.5862 71.3172 43.3337L71.3254 43.3581ZM75.5133 46.4452C75.7252 46.3638 75.9451 46.2986 76.1407 46.1927L77.2569 45.6714C77.2732 45.8506 77.1836 46.0543 77.0614 46.2253C76.9147 46.4371 76.7355 46.6244 76.5399 46.7955C76.1488 47.1376 75.6926 47.4064 75.22 47.6508C74.7474 47.887 74.2667 48.1232 73.7941 48.3594L73.4519 48.5305C73.8186 48.2209 74.1852 47.9114 74.4948 47.5204C74.6985 47.2598 74.837 46.9666 74.9511 46.657C75.1385 46.5919 75.3259 46.5267 75.5052 46.4534L75.5133 46.4452ZM65.0516 58.9974C64.4813 59.649 63.8294 60.2192 63.1043 60.6916C62.7458 60.9278 62.3628 61.1396 61.9799 61.3269C61.597 61.5224 61.1896 61.6772 60.7822 61.8238C61.1977 61.7098 61.6051 61.5469 61.9962 61.3677C62.3873 61.1803 62.7621 60.9604 63.1206 60.7242C63.8376 60.2436 64.4894 59.6571 65.0435 58.9974H65.0516ZM61.5073 62.2881C61.5073 62.2881 61.5236 62.2881 61.5318 62.28C61.5318 62.2637 61.5318 62.2555 61.5318 62.2392C61.5318 62.2555 61.5155 62.2718 61.5073 62.2881ZM61.711 60.9034C61.9881 60.6916 62.2488 60.4635 62.5014 60.2273C62.7539 59.9992 62.9576 59.6979 63.2917 59.5675C63.1287 59.6164 62.9902 59.7304 62.8599 59.8445C62.7376 59.9667 62.6154 60.0888 62.4851 60.2029C62.2325 60.4391 61.9718 60.659 61.6866 60.8627C61.4096 61.0663 61.1244 61.2618 60.8229 61.4328C60.5296 61.612 60.2281 61.7749 59.9185 61.9297C60.2363 61.7994 60.5459 61.6446 60.8474 61.4736C61.1488 61.2944 61.434 61.0989 61.7029 60.8871L61.711 60.9034ZM81.6812 51.0881C82.0152 50.9578 82.2841 50.689 82.5041 50.4039C82.7241 50.1188 82.8952 49.8012 83.0826 49.4998L84.1988 47.6589L83.0581 49.4753C82.8626 49.7767 82.6833 50.0863 82.4715 50.3713C82.2678 50.6564 82.0071 50.9171 81.6893 51.08L81.6812 51.0881ZM84.6714 45.5085C84.3129 45.5085 83.9544 45.5085 83.5959 45.533C83.2374 45.5574 82.8789 45.5737 82.5204 45.6226C81.8115 45.7284 81.1027 45.8751 80.4183 46.0706C81.1271 45.9484 81.8278 45.8506 82.5448 45.8018C82.9033 45.7773 83.2537 45.7366 83.6122 45.7203C83.9299 45.704 84.2558 45.6959 84.5817 45.6959L84.4758 47.3331L84.4188 48.2047C84.4025 48.4897 84.3781 48.783 84.321 49.0518C84.207 49.6057 83.9055 50.1025 83.5144 50.5098C83.1233 50.9171 82.6344 51.2348 82.1211 51.4954C81.6078 51.7561 81.0701 51.9678 80.5242 52.1633L78.8946 52.7661C78.3487 52.9697 77.7947 53.1408 77.2569 53.3689C76.9881 53.4747 76.7192 53.5888 76.4503 53.6865C76.3118 53.7273 76.1733 53.768 76.0348 53.768C75.8963 53.768 75.7496 53.7273 75.6518 53.6051C75.7333 53.7273 75.88 53.7924 76.0266 53.8087C76.1733 53.825 76.3281 53.8006 76.4666 53.7598C76.7518 53.6784 77.0206 53.5888 77.3058 53.5073C77.868 53.3444 78.4058 53.1408 78.9598 52.9453L80.5975 52.3425C81.1434 52.147 81.6893 51.9353 82.2108 51.6665C82.7322 51.3977 83.2374 51.0718 83.6529 50.6483C84.0684 50.2247 84.3862 49.6871 84.5084 49.1007C84.5736 48.8074 84.5899 48.5142 84.6143 48.2209L84.6714 47.3494L84.7854 45.6144V45.5167H84.6877L84.6714 45.5085ZM78.4709 51.1614C78.2021 51.4221 77.925 51.6828 77.6073 51.8864C77.2977 52.0982 76.931 52.2122 76.5807 52.3425C76.9392 52.2448 77.3058 52.1308 77.6317 51.9271C77.9576 51.7235 78.2265 51.4628 78.4954 51.194C78.7643 50.9252 79.0168 50.6483 79.302 50.4039C79.5872 50.1596 79.9131 49.9641 80.2797 49.8582C79.9131 49.9478 79.579 50.1433 79.2857 50.3795C78.9924 50.6238 78.7317 50.8927 78.4628 51.1614H78.4709ZM66.0619 58.6797C66.1516 58.6227 66.2412 58.5656 66.3308 58.4842C66.4123 58.4027 66.4775 58.2887 66.51 58.1828C66.5426 58.0688 66.5671 57.9629 66.5752 57.857C66.5834 57.7511 66.5915 57.6452 66.616 57.5556C66.6567 57.4009 66.7463 57.2624 66.8686 57.2054L66.9419 57.4742L66.9826 57.6371L67.0967 57.5149C67.5448 57.0587 67.9685 56.5863 68.3677 56.0894C68.5633 55.8451 68.7588 55.5926 68.9462 55.3319C69.1255 55.0713 69.2966 54.778 69.3699 54.4522C69.4106 54.2893 69.4188 54.1182 69.3944 53.9472C69.3781 53.8657 69.3536 53.7761 69.3292 53.7028C69.2966 53.6295 69.2803 53.5644 69.2803 53.5073C69.2803 53.4503 69.3047 53.3852 69.3292 53.3037C69.3536 53.2222 69.3699 53.1326 69.3699 53.043C69.3699 52.8638 69.3292 52.6928 69.2558 52.5462C69.1173 52.2366 68.9055 51.9923 68.7181 51.7398C68.5877 51.5606 68.4737 51.3732 68.4166 51.1777C68.4655 51.2185 68.5144 51.2592 68.5633 51.2999C68.6855 51.3977 68.8077 51.4873 68.9299 51.5687L68.9951 51.6094V51.5361C69.0359 51.3081 69.0603 51.08 69.0847 50.8519C69.0359 51.0474 68.9788 51.2429 68.9299 51.4384C68.8403 51.3569 68.7425 51.2673 68.6611 51.1859C68.5551 51.08 68.4574 50.9741 68.3514 50.8601L68.1803 50.6809V50.9252C68.1885 51.2836 68.3759 51.585 68.5633 51.8457C68.7588 52.1063 68.9625 52.3344 69.0766 52.6113C69.1336 52.7498 69.1744 52.8883 69.1744 53.0268C69.1744 53.1001 69.1662 53.1652 69.1418 53.2304C69.1173 53.3037 69.0847 53.3852 69.0847 53.4829C69.0847 53.5888 69.1173 53.6784 69.1499 53.7517C69.1825 53.825 69.1988 53.8902 69.207 53.9635C69.2314 54.1019 69.2232 54.2486 69.1907 54.3952C69.044 54.9817 68.604 55.4622 68.2211 55.9591C67.8626 56.4071 67.4796 56.8307 67.0804 57.2379L67.0315 57.0424L67.0071 56.961H66.9256C66.7871 56.9773 66.6649 57.0587 66.5915 57.1565C66.5101 57.2542 66.4612 57.3601 66.4367 57.4742C66.4041 57.5882 66.396 57.7022 66.3797 57.8081C66.3715 57.914 66.3715 58.0199 66.3471 58.1095C66.3308 58.2072 66.2901 58.2969 66.233 58.3702C66.176 58.4435 66.0945 58.5168 66.013 58.5819C65.9804 58.6064 65.956 58.639 65.9316 58.6634C65.9153 58.7041 65.8908 58.753 65.8664 58.7937C65.9316 58.7448 65.9967 58.696 66.0619 58.6552V58.6797ZM51.233 54.5092L51.4041 54.5662L51.3471 54.387L51.2167 53.9798C51.5182 53.9227 51.836 53.8983 52.1456 53.9146H52.3167L52.2352 53.7761C52.2026 53.711 52.1945 53.6458 52.1782 53.5806C52.4878 53.6295 52.7892 53.7517 53.0255 53.9553L53.1315 54.0449L53.1803 53.9146L53.2537 53.7191C53.327 53.8413 53.3922 53.9716 53.4574 54.0938C53.547 54.2893 53.6203 54.4848 53.6773 54.6966L53.7018 54.778L53.7751 54.7454C53.8403 54.7129 53.8892 54.6558 53.9218 54.5907C54.1092 54.8269 54.2558 55.1038 54.3292 55.3971L54.3455 55.4541L54.3699 55.4052C54.4432 55.2586 54.4921 55.0957 54.5084 54.9328C54.484 55.0713 54.4269 55.2016 54.3536 55.3319C54.2884 55.0061 54.1499 54.6884 53.9462 54.4196L53.8566 54.2974V54.4522C53.8403 54.4929 53.824 54.5337 53.7914 54.5662C53.7507 54.3789 53.7018 54.1997 53.6366 54.0205C53.5714 53.8576 53.4818 53.7028 53.3922 53.5481C53.3677 53.5888 53.3514 53.6214 53.327 53.6621C53.3514 53.6214 53.3677 53.5806 53.3922 53.5399C53.3677 53.4992 53.3596 53.4585 53.3351 53.4259L53.2292 53.263L53.164 53.4422L53.0663 53.7273C52.7811 53.5155 52.4307 53.377 52.0722 53.3526H51.9582L51.9663 53.4585C51.9663 53.5562 52.0152 53.6458 52.0478 53.7354C51.73 53.7354 51.4123 53.7517 51.0945 53.825L50.9886 53.8494L51.0212 53.9472L51.1353 54.2811L50.9397 54.216C50.9642 54.2893 50.9804 54.3626 50.9967 54.4359L51.2656 54.5174L51.233 54.5092ZM61.377 62.5895C61.3688 62.7117 61.3444 62.8339 61.3281 62.9479L61.2548 63.5018C61.1325 63.404 61.0022 63.3063 60.8963 63.1923C60.8229 63.1189 60.7496 63.0375 60.6763 62.956L60.4074 62.7524C60.44 62.8664 60.4807 62.9723 60.5378 63.0701C60.6029 63.1597 60.6844 63.2411 60.7577 63.3226C60.9125 63.4855 61.0837 63.6321 61.271 63.7543L61.4014 63.8439L61.4177 63.6891L61.5155 62.956C61.5318 62.8339 61.5481 62.7117 61.5644 62.5895C61.5644 62.4754 61.5399 62.3696 61.5236 62.2555C61.5155 62.2555 61.5073 62.2555 61.4992 62.2637C61.4503 62.3614 61.4096 62.4673 61.377 62.5651V62.5895ZM76.0674 47.944C75.9614 48.0662 75.8555 48.1884 75.7496 48.3187L75.6029 48.5142C75.5541 48.5793 75.5215 48.6527 75.4807 48.726C75.3259 49.0192 75.2037 49.3206 75.1141 49.6301C75.2607 49.345 75.4318 49.0681 75.6192 48.8156C75.6681 48.7504 75.717 48.6934 75.7659 48.6282C75.8066 48.5631 75.8555 48.4979 75.9044 48.4327C76.0022 48.3105 76.0999 48.1884 76.2059 48.0662C76.4177 47.83 76.654 47.61 76.8821 47.382C77.1103 47.162 77.3466 46.934 77.591 46.7303C77.8354 46.5267 78.088 46.3394 78.365 46.1846C78.5035 46.1031 78.6502 46.0135 78.7724 45.8751C78.8946 45.7366 78.9517 45.5655 79.0331 45.4515C79.1716 45.2071 79.5301 45.2316 79.8398 45.1908C80.1249 45.1664 80.4101 45.1583 80.7034 45.1583C80.7034 45.2316 80.6953 45.313 80.679 45.3863C80.6627 45.4922 80.6219 45.5981 80.5731 45.6959C80.4671 45.8914 80.2879 46.0543 80.076 46.1439C80.3123 46.1031 80.5242 45.9565 80.679 45.761C80.7523 45.6633 80.8175 45.5492 80.8582 45.4271C80.9071 45.3049 80.9071 45.1746 80.8908 45.0442V44.9628H80.7931C80.4671 44.9628 80.1412 44.9709 79.8153 45.0035C79.6524 45.0198 79.4976 45.0361 79.3265 45.0605C79.245 45.0768 79.1554 45.1012 79.0739 45.1501C78.9924 45.199 78.9191 45.2723 78.8702 45.3456C78.7724 45.5004 78.7235 45.647 78.6257 45.7447C78.528 45.8506 78.4058 45.9321 78.2672 46.0135C77.9821 46.1764 77.7132 46.3719 77.4688 46.5756C77.2162 46.7874 76.9799 47.0073 76.7518 47.2354C76.5236 47.4553 76.2873 47.6833 76.0674 47.9277V47.944ZM72.4009 45.5574L71.3172 47.7811L70.7795 48.897C70.6084 49.2717 70.4291 49.6464 70.2662 50.0211C70.4536 49.6545 70.6328 49.288 70.8202 48.9215L71.3498 47.8055L72.4009 45.5655V45.5574ZM70.7387 46.5348C70.4699 47.0073 70.2091 47.4879 69.981 47.9766C69.8669 48.2209 69.7529 48.4735 69.6551 48.7178C69.6062 48.84 69.5492 48.9703 69.5166 49.1088C69.484 49.2473 69.484 49.3939 69.5655 49.5161H69.5818C69.5247 49.3857 69.541 49.2473 69.5818 49.1251C69.6225 49.0029 69.6877 48.8807 69.7447 48.7585L70.1114 48.0336C70.3558 47.553 70.5921 47.0643 70.8365 46.5837C71.3417 45.6307 71.8794 44.6858 72.4579 43.7735H72.4498C71.8387 44.6614 71.2602 45.5818 70.7387 46.5267V46.5348ZM59.8615 62.6139C59.7148 62.6139 59.5682 62.5895 59.446 62.5325C59.3237 62.4754 59.2748 62.3614 59.2911 62.2311C59.3074 62.1008 59.3645 61.9623 59.4297 61.8564C59.503 61.7505 59.6089 61.6528 59.723 61.5713C59.9593 61.4084 60.2363 61.3025 60.5133 61.1477C60.7822 60.9848 61.0185 60.8056 61.2548 60.6183C61.7273 60.2436 62.1836 59.8526 62.6399 59.4616L64.0087 58.2968C64.465 57.9059 64.9294 57.5312 65.3694 57.1076C65.8093 56.6922 66.2004 56.2035 66.4775 55.6577C66.5671 55.4785 66.6323 55.2912 66.7056 55.1038C66.7056 55.1364 66.6974 55.1771 66.6893 55.2097C66.6241 55.6496 66.5426 56.0813 66.4449 56.5049C66.2493 57.3601 65.9723 58.2073 65.5649 58.9811C65.3612 59.372 65.1249 59.7386 64.8479 60.0807C64.579 60.4228 64.2613 60.7242 63.9354 61.0093C63.2673 61.5795 62.4443 61.9541 61.6051 62.2311C62.4362 61.946 63.2998 61.6772 64.0331 61.1315C64.2124 60.993 64.3916 60.8545 64.5464 60.6916C64.7013 60.5287 64.8561 60.3658 64.9946 60.1866C65.2716 59.8363 65.5242 59.4535 65.7279 59.0625C65.7768 58.9729 65.8093 58.8833 65.8582 58.7937C65.8419 58.81 65.8175 58.8182 65.8012 58.8344C65.7197 58.8996 65.6627 58.9974 65.6545 59.1032C65.6545 58.9974 65.6953 58.8833 65.7686 58.8019C65.8175 58.7448 65.8664 58.7041 65.9234 58.6634C66.233 57.9873 66.4612 57.2705 66.6323 56.5456C66.73 56.1139 66.8115 55.674 66.8767 55.2342C66.9419 54.8025 67.0071 54.3626 67.0071 53.9065C67.0071 53.9065 67.0071 53.9065 67.0071 53.8983H66.8197C66.7545 54.4685 66.5834 55.0468 66.3145 55.5681C66.0456 56.0976 65.679 56.5537 65.2472 56.961C64.8153 57.3683 64.3509 57.7511 63.8946 58.1421L62.5258 59.3069C62.0695 59.6897 61.6133 60.0888 61.1488 60.4554C60.9125 60.6346 60.6763 60.8219 60.4237 60.9685C60.1711 61.107 59.8859 61.2211 59.6252 61.3921C59.4948 61.4817 59.3645 61.5876 59.2749 61.7261C59.1852 61.8727 59.1445 62.0275 59.1363 62.1985C59.1363 62.28 59.1445 62.3777 59.1934 62.4592C59.2423 62.5406 59.3156 62.5976 59.3971 62.6302C59.5519 62.6872 59.7148 62.6954 59.8696 62.6791C60.1793 62.6547 60.4726 62.5813 60.7577 62.4999C61.0103 62.4266 61.2629 62.3451 61.5073 62.2637C60.9777 62.4429 60.4237 62.5895 59.8615 62.5895V62.6139ZM50.2309 57.8733C50.3694 57.9303 50.516 57.9873 50.6708 58.0199C50.8256 58.0525 50.9886 58.0525 51.1434 58.0362C51.2982 58.0199 51.4449 57.9873 51.5915 57.9629C51.5997 57.9629 51.616 57.9629 51.6241 57.9629L49.9375 57.7674C50.0353 57.8081 50.1249 57.8407 50.2227 57.8814L50.2309 57.8733ZM61.5318 62.28C61.5318 62.28 61.5807 62.2637 61.6133 62.2555C61.5888 62.2637 61.5644 62.2718 61.5318 62.28ZM60.1467 60.5124C59.9267 60.8219 59.7067 61.1396 59.5111 61.4736C59.7311 61.164 59.943 60.8464 60.1793 60.545C60.4074 60.2355 60.6518 59.9422 60.9044 59.6571C61.4259 59.0951 62.0288 58.6064 62.7295 58.2968C62.0206 58.5901 61.4014 59.0788 60.8718 59.6327C60.6029 59.9096 60.3585 60.211 60.1304 60.5124H60.1467ZM76.5725 53.3281C77.0451 53.2304 77.5177 53.1082 77.9739 52.9616C78.8865 52.6439 79.7827 52.2041 80.516 51.5524C80.8827 51.2266 81.2004 50.8438 81.453 50.4202C81.7056 50.0048 81.9093 49.5649 82.1293 49.1332L82.7648 47.8381L82.9278 47.5123C82.9522 47.4634 82.9929 47.4064 83.0011 47.3087C83.0011 47.2598 82.9848 47.1946 82.9441 47.1539C82.9033 47.1132 82.8707 47.0969 82.8463 47.0887L82.2026 46.7629C81.7789 46.543 81.339 46.3068 80.8419 46.2253C80.3449 46.1439 79.8398 46.2009 79.3753 46.3475C78.4221 46.6407 77.648 47.2924 76.9392 47.9359C76.2222 48.5875 75.5459 49.2717 74.8859 49.9804C74.7311 50.1596 74.56 50.3388 74.4297 50.5505C74.2911 50.7623 74.2097 51.0148 74.2178 51.2673C74.2341 51.7724 74.4785 52.2041 74.5193 52.6846C74.5193 52.2041 74.3074 51.7316 74.3237 51.2673C74.3237 51.0311 74.4134 50.8193 74.5519 50.632C74.6904 50.4447 74.8615 50.2817 75.0244 50.1025C75.6763 49.3939 76.3525 48.7178 77.0614 48.0743C77.7702 47.4308 78.5198 46.8118 79.4242 46.5267C79.8724 46.3882 80.3449 46.3312 80.8093 46.4127C81.2656 46.486 81.6893 46.714 82.1211 46.934L82.7648 47.2598C82.7648 47.2598 82.8055 47.2842 82.8137 47.2924C82.8137 47.2924 82.8137 47.2924 82.8137 47.3087C82.8137 47.3331 82.7892 47.382 82.7648 47.439L82.6018 47.7648L81.9663 49.0599C81.7545 49.4916 81.5508 49.9233 81.2982 50.3306C81.0538 50.7379 80.7523 51.0963 80.402 51.414C79.6931 52.0412 78.8213 52.4729 77.925 52.7824C77.4769 52.9534 77.0206 53.1001 76.5562 53.2304C76.0999 53.3607 75.6111 53.4177 75.1385 53.3281C75.3748 53.3852 75.6111 53.4177 75.8555 53.4177C76.0999 53.4177 76.3444 53.377 76.5807 53.3281H76.5725ZM65.0842 55.8614V55.8451C64.3672 56.0976 63.7317 56.5293 63.1369 56.9854C62.5421 57.4416 61.9636 57.9303 61.3362 58.3294C60.7089 58.7367 59.9919 58.9892 59.3808 59.4698C58.7778 59.9422 58.3705 60.6672 58.2971 61.4165H58.3134C58.4682 60.6835 58.8756 60.0155 59.4704 59.5838C60.057 59.1358 60.7659 58.8589 61.3933 58.4272C62.0206 58.0036 62.591 57.5067 63.1776 57.0424C63.7643 56.5782 64.3753 56.1302 65.076 55.8614H65.0842ZM71.912 49.1007C72.2787 48.6282 72.5801 48.1151 72.8571 47.5856C73.403 46.5267 73.8267 45.4108 74.12 44.2623C73.8104 45.4026 73.3704 46.5186 72.8246 47.5693C72.5475 48.0906 72.2379 48.6038 71.8794 49.0681C71.5209 49.5405 71.1054 49.9641 70.6328 50.3225C71.1217 49.9967 71.5454 49.5649 71.9202 49.1007H71.912ZM58.2971 62.508C58.2971 62.508 58.2238 62.451 58.1993 62.4184C58.1831 62.394 58.1749 62.3614 58.1586 62.337C58.289 62.9072 58.2564 63.5099 58.126 64.0801C57.9549 64.805 57.6534 65.5056 57.3112 66.1735C56.9609 66.8414 56.5454 67.4767 56.0809 68.0632C55.6165 68.6578 55.0869 69.2036 54.5166 69.6923C53.9462 70.1892 53.327 70.629 52.6752 71.0037C52.0234 71.3784 51.3227 71.6716 50.5731 71.6879C50.1983 71.7042 49.8235 71.6716 49.4405 71.6635C49.0902 71.6635 48.7317 71.6879 48.3895 71.7938C48.2102 70.9223 47.8354 70.124 47.5258 69.3176C47.1999 68.4868 46.931 67.6071 47.0125 66.7274C47.094 65.8477 47.428 64.9924 47.6888 64.129L48.4954 61.5469C48.6339 61.1233 48.7969 60.6998 49.0087 60.3169C49.2205 59.9341 49.5057 59.5838 49.8398 59.2987C50.1738 59.0136 50.5568 58.7774 50.9479 58.5656C51.3471 58.362 51.7463 58.1502 52.1619 57.9873C52.3656 57.9059 52.5693 57.8407 52.7811 57.7918C52.83 57.7918 52.8707 57.7837 52.9196 57.7755C52.9278 57.7755 52.9441 57.7755 52.9522 57.7755C53.0663 57.7592 53.1885 57.7511 53.3026 57.7511C53.3026 57.743 53.3107 57.7267 53.3189 57.7185C53.3189 57.7185 53.3107 57.743 53.3026 57.7511C53.3433 57.7511 53.3922 57.7511 53.4329 57.7511C53.5633 57.7592 53.6936 57.8 53.8159 57.8407V57.8163H53.8322V57.8488C53.9055 57.8733 53.9788 57.9059 54.044 57.9466C54.1581 58.0036 54.2558 58.0851 54.3618 58.1584C54.3455 58.1176 54.3373 58.0769 54.3292 58.0443C54.3292 58.0443 54.3536 58.1258 54.3699 58.1665C54.4432 58.2154 54.5247 58.2561 54.598 58.3213C54.7366 58.4353 54.8669 58.5656 54.9973 58.696C54.981 58.6552 54.9647 58.6064 54.9484 58.5656C54.8506 58.4598 54.761 58.3539 54.6551 58.2643C54.484 58.1095 54.3047 57.971 54.101 57.857C53.9218 57.743 53.7018 57.6615 53.49 57.6289C53.5877 57.5882 53.6936 57.5556 53.7833 57.4986C53.9218 57.4171 54.044 57.3031 54.1336 57.1646C54.1336 57.1646 54.1336 57.1646 54.1336 57.1565C54.044 57.1646 53.9462 57.1809 53.8566 57.1891C53.7996 57.2379 53.7507 57.295 53.6855 57.3275C53.4411 57.466 53.164 57.5475 52.8707 57.6045C52.5856 57.6615 52.2841 57.6941 51.9908 57.7267C51.8441 57.743 51.6893 57.7593 51.5426 57.7837C51.3878 57.8081 51.2493 57.8407 51.1027 57.857C51.0375 57.857 50.9642 57.857 50.899 57.857L51.6078 57.971C51.6812 57.9629 51.7463 57.9547 51.8197 57.9466C51.4856 58.0932 51.1678 58.2561 50.8419 58.419C50.4345 58.6308 50.0435 58.8752 49.6931 59.1766C49.3428 59.4698 49.0413 59.8363 48.8131 60.2436C48.585 60.6427 48.4221 61.0744 48.2835 61.5061L47.4769 64.0964L47.0777 65.3915C46.9473 65.8232 46.8414 66.2712 46.8007 66.7355C46.7599 67.1998 46.8007 67.6641 46.9066 68.1121C47.0043 68.5601 47.1592 68.9918 47.3221 69.4154C47.648 70.2625 48.031 71.0852 48.2021 71.9567L48.2265 72.0626L48.3324 72.0219C48.6746 71.8997 49.0494 71.8753 49.4242 71.8753C49.799 71.8753 50.182 71.9079 50.5649 71.8997C51.3552 71.8834 52.0967 71.5739 52.7567 71.1911C53.4166 70.8082 54.044 70.3602 54.6225 69.8634C55.201 69.3665 55.7306 68.8126 56.2113 68.2098C56.6839 67.6071 57.1075 66.9717 57.4661 66.2875C57.8083 65.6114 58.1423 64.9028 58.289 64.1453C58.3623 63.7624 58.3949 63.3796 58.3623 62.9886C58.346 62.8339 58.3216 62.6872 58.289 62.5325L58.2971 62.508ZM57.3927 60.9523C57.3275 60.8952 57.2624 60.8464 57.1972 60.7893C57.3764 61.0174 57.5801 61.2211 57.7512 61.4328C57.8571 61.5713 57.9468 61.7179 57.9957 61.8808C58.0445 62.0193 58.0853 62.1741 58.1668 62.3288C58.1342 62.1741 58.0934 62.0193 58.0282 61.8645C57.8897 61.5143 57.6779 61.1966 57.3927 60.9441V60.9523ZM52.8707 63.0945C52.7078 63.6647 52.4878 64.2267 52.2352 64.7643C51.9826 65.3019 51.6893 65.8232 51.3878 66.3445L50.4753 67.8922C49.8805 68.9266 49.3102 70.0018 48.9842 71.1585H49.0005C49.4079 70.0344 49.9864 68.9837 50.6057 67.9655C51.2086 66.9392 51.8523 65.921 52.3493 64.8213C52.5937 64.2756 52.8137 63.7136 52.9685 63.1271C53.1233 62.5488 53.2374 61.9541 53.3351 61.3677L53.8566 57.8488C53.8566 57.8488 53.8485 57.8488 53.8403 57.8488L53.2618 61.3677C53.1559 61.9541 53.0418 62.5406 52.8789 63.1189L52.8707 63.0945ZM58.0853 61.8483C58.1831 62.06 58.2482 62.28 58.2971 62.508C58.3379 62.5569 58.3786 62.6058 58.4356 62.6384C58.4845 62.6628 58.5253 62.6791 58.5741 62.6954C58.5904 62.7361 58.6067 62.7687 58.623 62.8013C58.6312 62.8176 58.6393 62.842 58.6556 62.8501C58.6719 62.8501 58.6882 62.8664 58.7045 62.8746L58.8919 62.9968L59.2667 63.233L59.3971 63.3144L59.4134 63.1597C59.4134 63.0945 59.4134 63.0212 59.4134 62.956C59.4134 62.9235 59.3808 62.8909 59.3563 62.8664C59.3319 62.842 59.2993 62.8176 59.2749 62.7931C59.2667 62.8257 59.2586 62.8664 59.2423 62.899C59.2423 62.9316 59.2097 62.9642 59.226 62.9886L58.9978 62.842L58.8675 62.7605C59.006 62.7768 59.1526 62.7768 59.2749 62.7117C59.0875 62.7198 58.9245 62.6465 58.7697 62.5651C58.6882 62.5325 58.5986 62.508 58.5334 62.4754C58.4682 62.4347 58.4112 62.3859 58.3705 62.3207C58.289 62.1822 58.2482 62.0112 58.1831 61.832C58.126 61.6446 58.0201 61.4736 57.906 61.3269C57.6697 61.0256 57.3846 60.7893 57.2053 60.4961C57.1157 60.3495 57.0505 60.1947 57.0424 60.0237C57.0016 59.8608 57.0016 59.6816 57.0913 59.5105C56.9446 59.6327 56.8713 59.8363 56.855 60.0318C56.8713 60.2355 56.9446 60.4228 57.0505 60.5857C57.0831 60.6427 57.132 60.6835 57.1727 60.7405C57.2542 60.8056 57.3438 60.8627 57.4172 60.936C57.7023 61.1885 57.9386 61.498 58.1016 61.8483H58.0853ZM51.0049 54.5662C51.0049 54.5174 50.9804 54.4766 50.9723 54.4278H50.9642C50.9723 54.4766 50.9967 54.5174 51.0049 54.5662ZM54.9647 58.4923C54.9647 58.4923 54.9728 58.5249 54.981 58.5412C54.981 58.5412 54.981 58.5412 54.9891 58.5494C54.9891 58.5331 54.9728 58.5086 54.9647 58.4923ZM54.7528 62.8013C54.6062 63.3226 54.3944 63.8194 54.1825 64.3163L52.887 67.2976L52.2515 68.7963C52.0315 69.285 51.8034 69.7901 51.4367 70.1892C51.8197 69.7982 52.0478 69.2932 52.2759 68.8045L52.9278 67.3138L54.2151 64.3245C54.4269 63.8276 54.6388 63.3226 54.7854 62.8013C54.9321 62.28 54.9891 61.7342 54.981 61.1885C54.9647 60.1459 54.7203 59.1195 54.3944 58.1339C54.7121 59.1277 54.9565 60.154 54.9647 61.1966C54.9647 61.7342 54.9077 62.28 54.761 62.8013H54.7528ZM50.1168 58.2724C49.0168 58.4598 47.8925 58.7041 46.9392 59.3313C46.4666 59.6408 46.0429 60.0074 45.6111 60.3658C45.1793 60.7242 44.7556 61.0907 44.3319 61.4573C43.4927 62.1985 42.686 62.9886 41.9772 63.8602C41.6268 64.3 41.3009 64.7562 41.0158 65.2449C40.7306 65.7336 40.4943 66.2386 40.2988 66.7681C40.5024 66.2468 40.755 65.7418 41.0402 65.2612C41.3254 64.7806 41.6594 64.3245 42.0098 63.8928C42.7105 63.0212 43.5171 62.2311 44.3563 61.4899C44.7719 61.1152 45.2037 60.7486 45.6274 60.3902C46.0592 60.0318 46.4829 59.6571 46.9473 59.3476C47.8843 58.7204 49.0087 58.4679 50.1086 58.2806L50.1168 58.2724ZM56.3661 62.8664C56.4557 63.3715 56.4639 63.8846 56.3498 64.3815C56.2439 64.8784 56.0483 65.3589 55.8365 65.8151C55.6165 66.2794 55.4047 66.7437 55.1684 67.1998C54.9403 67.6559 54.704 68.1121 54.4269 68.5438C54.1581 68.9755 53.8566 69.3909 53.5388 69.7901C54.207 69.0162 54.7447 68.1365 55.201 67.2161C55.4291 66.7599 55.6491 66.2957 55.8609 65.8314C56.0728 65.3671 56.2683 64.8865 56.3743 64.3815C56.4883 63.8765 56.472 63.3552 56.3743 62.8501C56.2846 62.3451 56.1298 61.8564 55.975 61.3677C55.6817 60.4554 55.3558 59.5512 55.0136 58.6634C55.0136 58.6634 55.0136 58.6634 55.0054 58.6552C55.3476 59.5512 55.6735 60.4635 55.9587 61.3758C56.1135 61.8645 56.2602 62.3533 56.3498 62.8583L56.3661 62.8664ZM66.6649 42.177C66.2575 42.454 65.8338 42.6902 65.3857 42.902C65.8419 42.7228 66.2738 42.4784 66.6893 42.2178C67.0967 41.949 67.4878 41.6394 67.8381 41.2973C68.5551 40.6213 69.1581 39.8312 69.6062 38.9596C69.1418 39.823 68.5307 40.605 67.8137 41.2729C67.4552 41.6069 67.0641 41.9082 66.6567 42.177H66.6649ZM64.8235 44.9058C64.8805 44.8976 64.9375 44.922 64.9783 44.9546C65.019 44.9954 65.0598 45.0361 65.0923 45.085C65.1575 45.1827 65.2553 45.2723 65.3694 45.313C65.6057 45.4026 65.8501 45.37 66.0864 45.3293L67.4878 45.1094L66.0782 45.2886C65.8501 45.3212 65.6057 45.3456 65.3857 45.2642C65.2797 45.2234 65.1901 45.1501 65.1168 45.0605C65.076 45.0198 65.0353 44.9709 64.9864 44.9302C64.9375 44.8895 64.8724 44.8732 64.8153 44.8895L64.8235 44.9058ZM67.0071 40.8005C66.6812 41.1833 66.3064 41.5173 65.8827 41.7942C65.6708 41.9327 65.459 42.0549 65.2309 42.1689C65.0109 42.2829 64.7746 42.3807 64.5464 42.4703C64.7909 42.4133 65.0272 42.3155 65.2553 42.2096C65.4834 42.0956 65.7034 41.9734 65.9071 41.8268C66.3227 41.5417 66.6974 41.1996 67.0071 40.8005ZM44.9022 63.2004C44.4704 63.7054 44.0956 64.243 43.6964 64.7562C43.3053 65.2775 42.849 65.7499 42.4172 66.2386H42.4253C42.9142 65.8151 43.3867 65.3589 43.8104 64.8458C44.226 64.3326 44.5763 63.7787 44.9919 63.2737C45.8148 62.2637 46.8577 61.4491 47.8843 60.6427H47.8762C46.8251 61.4084 45.7659 62.1985 44.9022 63.2004ZM57.1564 60.7405C56.9364 60.5694 56.7165 60.4147 56.5046 60.2355C56.7246 60.4309 56.969 60.602 57.1972 60.7893C57.1809 60.7731 57.1727 60.7568 57.1564 60.7405ZM64.9131 39.6927C65.2309 39.4076 65.5812 39.1469 65.956 38.9433C66.7056 38.5279 67.5693 38.2998 68.4329 38.308V38.2917C67.5611 38.2346 66.6812 38.4383 65.899 38.8374C65.5079 39.0329 65.1331 39.2773 64.8153 39.5868C64.4976 39.8963 64.2205 40.2384 64.025 40.6294H64.0331C64.2939 40.2873 64.579 39.9696 64.9049 39.6845L64.9131 39.6927ZM49.8724 62.2963C49.9864 62.0356 50.1249 61.7749 50.3205 61.5632C50.1249 61.7749 49.9864 62.0356 49.8642 62.2963L49.5057 63.0864L48.7969 64.6666C48.5606 65.196 48.3161 65.7173 48.1043 66.2549C47.9006 66.7925 47.7295 67.3546 47.7051 67.9329C47.7621 67.3546 47.9332 66.8007 48.145 66.2712C48.3569 65.7336 48.6013 65.2123 48.8294 64.6829L49.522 63.0945L49.8724 62.3044V62.2963ZM66.7708 45.8588C66.5915 45.8343 66.4204 45.8099 66.2412 45.7692C65.899 45.704 65.5405 45.59 65.2879 45.3375C65.5242 45.6144 65.8908 45.7366 66.233 45.8099C66.4123 45.8425 66.5834 45.8751 66.7626 45.8995C66.9419 45.9239 67.1293 45.9158 67.3004 45.8588C67.6426 45.7447 67.9685 45.6063 68.3026 45.4759L69.2966 45.085L68.2944 45.4515C67.9604 45.5737 67.6263 45.7122 67.2922 45.818C67.1211 45.8669 66.95 45.8669 66.7708 45.8425V45.8588ZM55.5758 59.258C55.8691 59.6001 56.1706 59.9422 56.5128 60.2355C56.1706 59.9341 55.8854 59.592 55.5921 59.2417C55.535 59.1684 55.478 59.1032 55.421 59.0381C55.3884 59.0218 55.3558 59.0055 55.3232 58.9811C55.4047 59.0707 55.4943 59.1684 55.5758 59.258ZM49.2531 57.6208L49.2776 57.5719C49.082 57.5393 48.8946 57.5067 48.6909 57.4823C48.5769 57.466 48.4628 57.4823 48.3487 57.4823C48.6991 57.4253 49.0576 57.3683 49.4079 57.3275V57.3113C48.8783 57.3113 48.3324 57.352 47.7947 57.4009C47.4932 57.4253 47.1999 57.4904 46.9066 57.5312L46.0266 57.6859C45.44 57.7837 44.8533 57.8814 44.2586 57.9466C43.9652 57.9792 43.6719 57.9955 43.3705 58.0036C43.0771 58.0118 42.7757 58.0199 42.4823 58.0036C42.189 57.9955 41.8957 57.9629 41.6105 57.8977C41.3254 57.8326 41.0483 57.7348 40.7876 57.6126C40.258 57.3683 39.7691 57.0262 39.2966 56.6678C38.824 56.3094 38.3514 55.9428 37.9359 55.5274C37.7322 55.3156 37.5367 55.0957 37.3656 54.8595C37.2108 54.6477 37.0885 54.4115 36.9745 54.1753C37.4796 53.9798 37.9848 53.7924 38.49 53.5888C38.5551 53.6377 38.6122 53.6947 38.6692 53.7436C39.3047 54.2323 39.981 54.6803 40.7224 55.0142C41.0891 55.1771 41.4802 55.3075 41.8794 55.3889C42.2787 55.4785 42.6942 55.4948 43.0934 55.4867C43.4927 55.4867 43.8919 55.4622 44.2749 55.5193C44.6659 55.56 45.0407 55.674 45.4155 55.8043C46.1651 56.0569 46.8821 56.4234 47.6154 56.7329C47.9821 56.8877 48.3569 57.0343 48.748 57.1402C48.968 57.1972 49.1961 57.2461 49.4242 57.2787V57.2624C49.2042 57.2217 48.9842 57.1728 48.7643 57.0995C48.3813 56.9773 48.0228 56.8144 47.6562 56.6515C46.931 56.3094 46.2385 55.9102 45.4807 55.6251C45.0978 55.4867 44.7067 55.3808 44.2993 55.3319C43.8919 55.2749 43.4845 55.2912 43.0934 55.2912C42.6942 55.2912 42.3031 55.283 41.9202 55.1934C41.5372 55.112 41.1624 54.9898 40.8039 54.8269C40.0788 54.5092 39.4188 54.0612 38.7914 53.5806C38.164 53.1001 37.5611 52.5706 37.0478 51.9678C36.5345 51.3651 36.0945 50.6972 35.8093 49.9641C35.516 49.231 35.3694 48.4409 35.4183 47.6589C35.4264 47.4634 35.459 47.2679 35.4916 47.0806L35.5568 46.7955C35.5649 46.7548 35.5812 46.714 35.5975 46.6978C35.6138 46.6815 35.6301 46.6733 35.6627 46.6733C35.736 46.6733 35.8501 46.6896 35.9479 46.6978L36.2493 46.7303L36.8441 46.7874C37.6344 46.8688 38.4329 46.934 39.2232 47.0399C40.0136 47.1458 40.7876 47.3005 41.5372 47.5775C42.2868 47.8463 43.0038 48.1884 43.7045 48.5712C44.4052 48.954 45.0978 49.3532 45.7822 49.7523C46.4666 50.1596 47.1184 50.6157 47.6806 51.1696C48.251 51.7153 48.7806 52.3425 49.4731 52.7742C49.8072 52.9942 50.1494 53.1978 50.4264 53.491C50.6056 53.6865 50.7442 53.9227 50.8093 54.1834H50.8256C50.8093 54.1182 50.8012 54.0449 50.7686 53.9716C50.8093 54.0449 50.8501 54.1264 50.8827 54.2078H50.9071C50.8501 54.0286 50.7686 53.8413 50.6545 53.6784C50.4753 53.4096 50.2634 53.1652 50.0597 52.929C49.8479 52.6928 49.6442 52.4484 49.4813 52.1878C49.3102 51.9271 49.1961 51.6339 49.0739 51.3406C48.9517 51.0474 48.7887 50.7542 48.6013 50.4935C48.4139 50.2329 48.2021 49.9885 48.0065 49.7441C47.5991 49.2554 47.2569 48.7341 47.0125 48.1558C46.7762 47.5775 46.654 46.9503 46.7518 46.3394C46.8414 45.7284 47.1836 45.1827 47.591 44.7021C47.9984 44.2215 48.4465 43.7654 48.9109 43.35C49.3835 42.9346 49.8968 42.5517 50.459 42.2829C50.7442 42.1526 51.0375 42.0467 51.3389 41.9734L51.5671 41.9327L51.7952 41.9082C51.95 41.8919 52.0967 41.8919 52.2352 41.9245C52.5041 41.9978 52.6752 42.2829 52.8463 42.5436C53.0174 42.8124 53.1722 43.0812 53.3189 43.3663C53.6203 43.9283 53.8892 44.4985 54.1988 45.0605C54.5084 45.6226 54.8588 46.1683 55.2988 46.6407C55.4047 46.7548 55.5106 46.8688 55.5513 46.991C55.5921 47.1132 55.5676 47.2598 55.5269 47.4064L55.2743 48.3268C55.1032 48.9377 54.924 49.5487 54.7366 50.1514C54.3862 51.3244 53.9544 52.4729 53.3596 53.5481C54.0114 52.5054 54.5084 51.3651 54.9158 50.2003C55.1114 49.5894 55.2906 48.9785 55.4617 48.3676L55.5758 47.9359C56.1217 47.4227 56.5372 46.7955 57.0424 46.2579C57.5231 45.704 58.0771 45.2071 58.623 44.7021C59.1689 44.2053 59.7393 43.7328 60.4155 43.4477C61.0837 43.1626 61.8332 43.0812 62.5502 43.1871C63.2672 43.293 63.9598 43.5943 64.5139 44.0668C64.5872 44.1238 64.6524 44.1808 64.6931 44.246C64.7338 44.303 64.742 44.3519 64.7094 44.417C64.6768 44.4822 64.6198 44.5474 64.5627 44.6288C64.5057 44.7103 64.4487 44.7917 64.4079 44.8813C64.2368 45.2397 64.1961 45.6388 64.2124 46.0135C64.2287 46.3964 64.2939 46.7629 64.3346 47.1295C64.3753 47.496 64.3753 47.8544 64.2939 48.2047C64.1635 48.8726 63.7806 49.4672 63.4058 50.0455C63.2102 50.0455 63.0065 50.0781 62.8354 50.1433C62.2814 50.3388 61.8332 50.7379 61.4666 51.1696C61.1 51.6013 60.7577 52.0412 60.3829 52.4566C60.0081 52.872 59.6252 53.2793 59.2341 53.6784L58.0527 54.8676C57.6535 55.2586 57.2461 55.6414 56.7979 55.9591C56.032 56.5293 55.1276 56.904 54.1744 57.0913C54.1744 57.0995 54.1662 57.1158 54.1581 57.1239C55.1276 57.0017 56.0809 56.6596 56.9039 56.1139C57.3764 55.7881 57.7838 55.3971 58.1831 54.9979L59.3726 53.8006C59.7637 53.4014 60.1548 52.9942 60.5296 52.5706C60.9044 52.1552 61.2548 51.7072 61.6133 51.2836C61.9718 50.8601 62.3873 50.4935 62.9006 50.3143C63.031 50.2655 63.1532 50.2329 63.2835 50.2247C63.4139 50.2166 63.5443 50.2247 63.6665 50.2573C63.7887 50.2899 63.9028 50.3469 63.9761 50.4365C64.0494 50.518 64.082 50.6401 64.0739 50.7542C64.0413 50.9904 63.8376 51.1859 63.642 51.3814C63.4384 51.5687 63.2428 51.7968 63.088 52.0412C62.9332 52.2855 62.8028 52.538 62.6725 52.7824L62.2814 53.5318L61.5073 55.0224C61.2466 55.5193 60.994 56.0161 60.7007 56.4967C60.4155 56.9691 60.0978 57.4334 59.723 57.8407C59.3563 58.248 58.9245 58.6064 58.4356 58.8589C57.9549 59.1195 57.4172 59.2987 56.8631 59.3232C56.358 59.3639 55.8365 59.2499 55.3884 59.0055C55.3884 59.0055 55.3965 59.0218 55.4047 59.0218C55.8365 59.2906 56.3498 59.4291 56.8713 59.4209C57.4416 59.4209 58.0038 59.2662 58.5253 59.0218C59.0386 58.7611 59.4867 58.3864 59.8615 57.9629C60.2444 57.5393 60.5703 57.075 60.8637 56.5863C61.157 56.1057 61.4177 55.6007 61.6703 55.1038L62.1429 54.1915C62.3221 54.159 62.5014 54.1264 62.6806 54.0857L63.2265 53.882C63.5932 53.7436 63.9435 53.6051 64.3102 53.5236C64.6768 53.4422 65.0516 53.4585 65.4183 53.5481C65.5975 53.5969 65.7768 53.6539 65.956 53.7273C66.1434 53.768 66.3308 53.825 66.5182 53.8739C66.3634 53.7517 66.1923 53.6539 66.0212 53.5481C65.8419 53.4747 65.6545 53.4096 65.459 53.3607C65.076 53.263 64.6605 53.2467 64.2694 53.3281C63.8783 53.4096 63.5198 53.5562 63.1532 53.6947L62.6073 53.8983C62.4525 53.9879 62.2977 54.0694 62.1429 54.1671L62.4362 53.6051L62.8273 52.8557C62.9576 52.6032 63.0799 52.3588 63.2347 52.1308C63.3813 51.8945 63.5524 51.699 63.7561 51.5036C63.8539 51.4058 63.9598 51.3081 64.0494 51.1859C64.1391 51.0718 64.2205 50.9252 64.245 50.7623C64.2613 50.5994 64.2205 50.4202 64.1065 50.298C64.0005 50.1677 63.8457 50.1025 63.6991 50.0618C63.6013 50.0374 63.5035 50.0211 63.4058 50.0211C63.8376 49.4835 64.2613 48.9133 64.465 48.2209C64.5627 47.8463 64.5546 47.4553 64.5139 47.0806C64.4731 46.7059 64.4079 46.3394 64.3916 45.981C64.3916 45.8588 64.3916 45.7366 64.4079 45.6144C64.6279 45.7936 64.8642 45.9565 65.0923 46.1194C65.3612 46.2986 65.6138 46.5023 65.9234 46.6489C66.0782 46.714 66.2493 46.7548 66.4286 46.7629C66.5997 46.7629 66.7708 46.7466 66.9337 46.7059C67.2596 46.6244 67.5611 46.5267 67.8707 46.429C68.4166 46.2579 68.9462 46.0543 69.4758 45.8425C69.4269 45.9728 69.3781 46.095 69.3129 46.2172C69.2477 46.4045 69.1662 46.5837 69.0847 46.7711C68.9218 47.1376 68.7588 47.5204 68.7018 47.9359C68.6448 48.3431 68.6692 48.7667 68.7507 49.1658C68.7914 49.3695 68.8403 49.5649 68.9055 49.7604C68.9951 49.9478 69.0929 50.127 69.207 50.298C69.1662 50.0944 69.1173 49.8989 69.0929 49.7034C69.0277 49.5161 68.9788 49.3287 68.9462 49.1332C68.8729 48.7504 68.8485 48.3513 68.9055 47.9684C68.9544 47.5856 69.1092 47.2191 69.2721 46.8525C69.3536 46.6652 69.4351 46.486 69.5003 46.2905C69.5329 46.1357 69.5492 45.981 69.5573 45.8262C69.6062 45.8018 69.6632 45.7936 69.7121 45.7692C70.0136 45.647 70.3069 45.5167 70.6084 45.3782C70.755 45.313 70.9098 45.2479 71.0483 45.1501C71.195 45.0605 71.3335 44.9302 71.4068 44.751L71.4394 44.6614L71.3498 44.6288C70.2743 44.2378 69.1662 43.969 68.0337 43.8306C67.4715 43.7573 66.9011 43.7165 66.3308 43.7165C66.0375 43.7165 65.7523 43.7817 65.4753 43.8469C65.2309 43.9039 64.9946 43.969 64.7583 44.0423C64.7176 44.0016 64.6768 43.9609 64.6279 43.9283C64.6035 43.912 64.579 43.8957 64.5546 43.8713C65.1983 43.7247 65.8175 43.4885 66.4123 43.2034C67.0234 42.8694 67.61 42.4947 68.1559 42.0467C68.6936 41.5987 69.1662 41.0693 69.5492 40.4828C69.7366 40.1896 69.9077 39.88 70.0462 39.5542C70.1114 39.3913 70.1765 39.2284 70.2336 39.0573C70.2825 38.8863 70.3232 38.6989 70.2988 38.5034C70.2825 38.4057 70.2499 38.308 70.1847 38.2184C70.1195 38.1369 70.038 38.0717 69.9484 38.031C69.7773 37.9496 69.6225 37.8925 69.4677 37.8192C69.1499 37.6889 68.8322 37.5423 68.4981 37.4283C68.327 37.3712 68.1559 37.3224 67.9766 37.2979C67.7974 37.2735 67.6181 37.2816 67.4389 37.2979C67.0885 37.3305 66.7463 37.412 66.4041 37.5016C65.7279 37.6889 65.0842 37.9903 64.4976 38.365C64.0168 38.7071 63.585 39.1225 63.2102 39.5786H63.1287C62.9576 39.5786 62.7865 39.5298 62.6317 39.4483C62.7702 39.2447 62.8924 39.0329 63.0147 38.8211C63.0798 38.6989 63.145 38.5849 63.2021 38.4627C63.2591 38.3405 63.2998 38.2102 63.3487 38.088C63.528 37.583 63.6665 37.0536 63.7398 36.516C63.8783 35.4408 63.7643 34.3167 63.2998 33.323L63.2673 33.2496L63.1939 33.2659L61.5155 33.6569L61.0918 33.7547C60.9533 33.7954 60.8148 33.8361 60.6763 33.885C60.3992 33.9746 60.1304 34.0723 59.8696 34.2027C60.1467 34.1212 60.4237 34.0642 60.7089 34.0153L61.1325 33.942L61.5481 33.8443L63.145 33.4777C63.5606 34.4144 63.6746 35.4733 63.5361 36.4915C63.4628 37.0128 63.3324 37.526 63.1613 38.031C63.1206 38.1532 63.0636 38.2754 63.0228 38.4057C62.9821 38.5279 62.9413 38.6582 62.8925 38.7804C62.811 39.0085 62.7132 39.2284 62.6154 39.4565C62.4769 39.3832 62.3466 39.2854 62.2325 39.1795C61.9718 38.9433 61.7355 38.6664 61.4422 38.4301C61.157 38.1939 60.8229 38.0066 60.4481 37.9251C60.0978 37.8844 59.7393 37.9414 59.4541 38.1369C59.3971 37.8763 59.34 37.6156 59.283 37.3549C59.3482 37.1269 59.4134 36.8988 59.4704 36.6707L59.5845 36.1739C59.6252 36.0028 59.6578 35.8399 59.6741 35.6688C59.723 35.3267 59.7637 34.9928 59.7963 34.6507C59.8289 34.3086 59.8533 33.9664 59.8207 33.608C59.78 33.2578 59.6578 32.9157 59.5193 32.6062C59.3726 32.2885 59.2178 31.9871 59.0467 31.6939C58.7045 31.0993 58.3134 30.5291 57.8816 29.9996L57.7349 29.8204L57.7105 30.0485L57.4172 33.2089L57.3438 33.999C57.3194 34.2597 57.2868 34.5285 57.2787 34.7891C57.2542 35.3186 57.2298 35.848 57.2135 36.3775C57.295 35.8562 57.3683 35.3267 57.4416 34.8054C57.4823 34.5448 57.4986 34.276 57.5231 34.0153L57.5964 33.2252L57.8653 30.3091C58.2319 30.7734 58.5741 31.2703 58.8675 31.7835C59.0386 32.0767 59.1934 32.3781 59.3319 32.6795C59.4704 32.9808 59.5845 33.2985 59.6171 33.6243C59.6578 33.9502 59.6252 34.2841 59.5926 34.6262C59.56 34.9602 59.5193 35.3023 59.4704 35.6363C59.4134 35.9702 59.3971 36.3123 59.34 36.6463C59.3074 36.8499 59.2749 37.0617 59.2423 37.2653C59.0875 36.6707 58.9001 36.0761 58.6393 35.5141L58.5904 35.4082L58.5008 35.4733C57.7675 35.9702 57.1809 36.6789 56.7979 37.4771C56.415 38.2754 56.2439 39.1795 56.3254 40.0674C56.4068 40.9552 56.6757 41.7861 56.9202 42.625C56.9202 42.6413 56.9283 42.6576 56.9364 42.6658C56.969 42.7961 57.0098 42.9183 57.0505 43.0405C57.1401 43.3174 57.2379 43.5943 57.3275 43.8631C57.3927 44.0668 57.4742 44.2786 57.5801 44.474C57.6779 44.6614 57.8246 44.8324 58.0038 44.9465C58.0038 44.9628 58.0038 44.9791 58.0038 45.0035C57.6127 45.3619 57.2216 45.7366 56.8713 46.1439C56.4068 46.7385 56.032 47.3738 55.5513 47.944L55.6817 47.4553C55.7224 47.3005 55.7632 47.1132 55.698 46.934C55.6328 46.7548 55.5024 46.6244 55.4047 46.5104C54.541 45.59 54.0521 44.3926 53.4574 43.2685C53.3107 42.9834 53.1477 42.7065 52.9766 42.4377C52.887 42.2992 52.8055 42.1689 52.6915 42.0386C52.5856 41.9082 52.4389 41.7861 52.2596 41.7372C52.0885 41.6883 51.9093 41.6965 51.7545 41.7127L51.5101 41.7453L51.2738 41.7942C50.956 41.8675 50.6464 41.9734 50.3531 42.1119C49.7664 42.3888 49.245 42.7798 48.7643 43.2034C48.2835 43.6351 47.8354 44.0912 47.4199 44.5799C47.0125 45.0687 46.6458 45.647 46.5399 46.3068C46.434 46.9584 46.5644 47.6263 46.8088 48.2209C47.0532 48.8237 47.4199 49.3695 47.8273 49.8582C48.031 50.1025 48.2347 50.3469 48.4139 50.5994C48.6013 50.8519 48.7398 51.1289 48.8702 51.414C49.0087 51.699 49.1391 52.0004 49.3346 52.2611C49.522 52.5299 49.742 52.758 49.962 52.9942C50.0272 53.0593 50.0923 53.1326 50.1494 53.1978C49.9375 53.0186 49.7175 52.8557 49.4976 52.7009C48.8376 52.2529 48.3487 51.6257 47.7865 51.0393C47.2162 50.4609 46.5399 50.0048 45.8555 49.5894C45.163 49.1821 44.4704 48.783 43.7697 48.4001C43.0608 48.0173 42.3357 47.6671 41.5779 47.3983C40.8202 47.1213 40.0217 46.9584 39.2232 46.8525C38.4248 46.7466 37.6344 46.6815 36.836 46.6L36.2412 46.543L35.9397 46.5104C35.8338 46.5104 35.7523 46.486 35.6219 46.486C35.5568 46.486 35.4753 46.5186 35.4264 46.5837C35.3775 46.6407 35.3612 46.7059 35.3449 46.7548C35.3205 46.8525 35.296 46.9503 35.2797 47.0562C35.2471 47.2598 35.2146 47.4553 35.2064 47.6589C35.1575 48.4735 35.3123 49.288 35.6138 50.0455C35.9071 50.803 36.3552 51.4873 36.8848 52.1063C37.3574 52.6602 37.9033 53.1489 38.4737 53.5969C37.9196 53.7436 37.3737 53.9065 36.8197 54.0612L36.7382 54.0857L36.7626 54.1753C36.8523 54.4685 37.0152 54.7373 37.1863 54.9817C37.3656 55.2342 37.5611 55.4622 37.773 55.674C38.1966 56.1057 38.6774 56.4723 39.1499 56.8307C39.6306 57.1891 40.1277 57.5393 40.6817 57.7918C40.9587 57.9222 41.2439 58.0199 41.5454 58.0932C41.8468 58.1584 42.1483 58.191 42.4498 58.2072C42.7512 58.2235 43.0527 58.2072 43.3542 58.2072C43.6475 58.1991 43.9571 58.1828 44.2504 58.1502C44.8452 58.0851 45.44 57.9873 46.0266 57.8896L46.9066 57.7348C47.0451 57.7104 47.1836 57.6859 47.3221 57.6615C46.1407 58.0036 44.9837 58.3539 43.8104 58.696L42.8571 58.9811C42.5394 59.0788 42.2135 59.1684 41.9039 59.2906C41.5861 59.4128 41.2765 59.5675 41.0076 59.7793C40.7387 59.9911 40.5024 60.2436 40.3069 60.5206C39.9077 61.0744 39.6469 61.7016 39.4269 62.3288C39.207 62.9642 39.0521 63.6158 38.9136 64.2674C38.6529 65.5707 38.4248 66.8821 38.1803 68.1854L38.0011 69.1629C37.9522 69.4805 37.8381 69.8308 37.9603 70.1973C38.0174 70.3847 38.1966 70.5394 38.3922 70.5639C38.5796 70.5964 38.7507 70.5639 38.8973 70.5802C39.207 70.6046 39.484 70.7756 39.761 70.9467C40.038 71.1178 40.3313 71.3132 40.6898 71.3866C41.0402 71.4599 41.3906 71.411 41.7165 71.3458C42.0505 71.2725 42.3683 71.1829 42.686 71.1015L43.6475 70.849C44.283 70.6616 44.9267 70.4906 45.5622 70.2869C45.88 70.181 46.1896 70.0426 46.4666 69.8552C46.7436 69.6679 46.9718 69.3909 47.0532 69.0651C46.9473 69.3828 46.711 69.6353 46.434 69.8145C46.157 69.9937 45.8474 70.1077 45.5296 70.1973C44.8941 70.3684 44.2423 70.5069 43.5986 70.6698C42.9549 70.8327 42.3112 71.02 41.6757 71.1666C41.358 71.2318 41.032 71.2725 40.7224 71.2074C40.4128 71.1503 40.1439 70.9711 39.8588 70.7919C39.5817 70.6209 39.2721 70.4254 38.9055 70.3928C38.7262 70.3765 38.5551 70.4091 38.4166 70.3765C38.2781 70.3521 38.1722 70.2625 38.1315 70.1322C38.0826 70.0018 38.0826 69.8389 38.0989 69.6842C38.1152 69.5294 38.1559 69.3665 38.1803 69.2036L38.3596 68.2261C38.604 66.9229 38.8322 65.6114 39.0929 64.3082C39.2314 63.6565 39.3862 63.0212 39.598 62.394C39.818 61.7749 40.0788 61.164 40.4536 60.6346C40.641 60.3739 40.8609 60.1296 41.1135 59.9341C41.3661 59.7304 41.6513 59.5838 41.9609 59.4698C42.2624 59.3558 42.5801 59.2662 42.906 59.1684L43.8593 58.8833C45.1304 58.5086 46.4096 58.1177 47.6806 57.7593C47.9984 57.6778 48.3161 57.6289 48.642 57.6452C48.968 57.6615 49.302 57.7104 49.6279 57.743L49.9049 57.7755C49.7257 57.7022 49.5464 57.6452 49.3672 57.6371H49.2124L49.2531 57.6208ZM64.8561 44.1401C64.8561 44.1401 64.8072 44.0749 64.7746 44.0505C65.296 43.969 65.8175 43.8713 66.3308 43.8957C66.893 43.912 67.4552 43.9446 68.0174 44.0179C69.0929 44.1564 70.1602 44.4089 71.1787 44.7754C71.1217 44.8569 71.0483 44.9383 70.9506 44.9954C70.8202 45.0768 70.6735 45.142 70.5269 45.2071C70.2336 45.3456 69.9403 45.4759 69.6388 45.5981C69.044 45.8425 68.4329 46.0706 67.8218 46.266C67.5122 46.3638 67.2026 46.4615 66.9011 46.543C66.7463 46.5756 66.5915 46.6 66.4449 46.6C66.2982 46.6 66.1516 46.5593 66.0049 46.4941C65.7197 46.3801 65.4345 46.209 65.1494 46.0543C64.9049 45.9158 64.6524 45.7773 64.4079 45.6226C64.4242 45.3945 64.465 45.1664 64.5627 44.9628C64.6035 44.8813 64.6442 44.808 64.7013 44.7428C64.7501 44.6695 64.8235 44.6044 64.8724 44.4985C64.8968 44.4496 64.9131 44.3845 64.9049 44.3111C64.9049 44.246 64.8724 44.189 64.8398 44.1401H64.8561ZM64.6279 38.5442C65.1983 38.1776 65.8256 37.8844 66.4856 37.7052C67.1374 37.5341 67.83 37.3712 68.4655 37.6319C68.7833 37.7459 69.101 37.8925 69.4188 38.0229C69.5736 38.088 69.7447 38.1532 69.8914 38.2265C70.0299 38.2917 70.1114 38.4057 70.1358 38.5523C70.1765 38.8537 70.0217 39.1877 69.8914 39.4972C69.7529 39.8067 69.5899 40.1081 69.4107 40.3932C69.0359 40.9634 68.5796 41.4765 68.05 41.9164C67.5204 42.3481 66.9419 42.7309 66.3389 43.0567C65.7768 43.3907 65.182 43.6677 64.5546 43.8794C64.4813 43.8143 64.3998 43.7573 64.3183 43.7002C64.3835 43.3744 64.3753 43.0405 64.3428 42.7065C64.2694 42.3481 64.1635 41.9978 64.025 41.6557C63.8783 41.3218 63.7154 41.0041 63.5769 40.6701C63.4384 40.3443 63.308 40.0104 63.2509 39.6682V39.6357C63.6665 39.2202 64.1228 38.8456 64.6279 38.5523V38.5442ZM60.44 38.1043C60.774 38.1695 61.0837 38.3487 61.3525 38.5686C61.6296 38.7885 61.8577 39.0655 62.1347 39.3098C62.2732 39.432 62.4199 39.5542 62.591 39.6438C62.7376 39.7253 62.9087 39.766 63.0798 39.7741C63.0636 39.7986 63.0391 39.8149 63.0228 39.8393C63.0391 39.823 63.0636 39.8067 63.0798 39.7904C63.2265 40.4909 63.5769 41.11 63.8457 41.7372C63.9843 42.063 64.082 42.4051 64.1554 42.7472C64.245 43.0486 64.2939 43.3663 64.302 43.6921C63.7887 43.3418 63.2021 43.1138 62.591 43.016C61.8414 42.902 61.0592 42.9834 60.3504 43.2848C59.6496 43.5862 59.0549 44.0749 58.509 44.5718C58.3623 44.7103 58.2156 44.8487 58.069 44.9791C58.1097 44.7999 58.1749 44.637 58.2808 44.4985C58.3867 44.3274 58.5008 44.1645 58.6475 44.0179C58.9326 43.7247 59.2423 43.4314 59.5682 43.1871C59.8941 42.9427 60.2689 42.7391 60.66 42.6902C60.8555 42.6576 61.0592 42.6739 61.2629 42.6821C61.2548 42.7146 61.2385 42.7391 61.2303 42.7717C61.2303 42.7717 61.2548 42.7146 61.271 42.6821C61.377 42.6821 61.4829 42.6821 61.5888 42.6821C61.6784 42.6739 61.7599 42.6413 61.8414 42.6087C61.8577 42.7146 61.8577 42.8205 61.8251 42.9346C61.8903 42.8531 61.9229 42.7472 61.931 42.6332C62.0369 42.5517 62.1429 42.4784 62.2488 42.3888C62.3791 42.2911 62.5177 42.2015 62.6643 42.1119C62.5177 42.177 62.371 42.2585 62.2325 42.3562C62.1266 42.4214 62.0288 42.5191 61.9392 42.6087C61.9392 42.5762 61.9555 42.5517 61.9473 42.5191V42.4621L61.874 42.4784C61.7762 42.4947 61.6784 42.4947 61.5725 42.4947C61.4992 42.5029 61.4177 42.4947 61.3444 42.4947C61.4666 42.2015 61.5888 41.9082 61.7436 41.6313C61.9473 41.2648 62.1999 40.9308 62.4851 40.6213C62.1917 40.9145 61.931 41.2566 61.7192 41.615C61.5481 41.8919 61.4259 42.1852 61.3281 42.4947C61.3118 42.4947 61.2955 42.4947 61.2792 42.4947C61.0755 42.4947 60.8555 42.4703 60.6355 42.5029C60.3748 42.5436 60.1304 42.6332 59.8941 42.7635C60.0489 42.2015 60.0815 41.6069 60.0082 41.0285C59.9919 40.8738 59.9674 40.7109 59.943 40.5561L59.8533 40.0918L59.6822 39.1632C59.6171 38.8293 59.5519 38.4872 59.4867 38.1451C59.7963 38.0147 60.1304 38.0147 60.44 38.1043ZM58.0445 44.9465C57.8734 44.8162 57.7594 44.637 57.6779 44.4496C57.6127 44.303 57.572 44.1482 57.5312 43.9935C57.5149 43.6677 57.5149 43.3418 57.5394 43.016C57.5638 42.6821 57.6127 42.3562 57.686 42.0386C57.8409 41.3951 58.0934 40.7679 58.4519 40.2058C58.0853 40.7597 57.8164 41.3788 57.6535 42.0223C57.572 42.3481 57.5149 42.6739 57.4905 43.0079C57.4742 43.3255 57.4823 43.6432 57.5231 43.9609C57.5068 43.912 57.4905 43.8713 57.4823 43.8224C57.3683 43.3989 57.2868 42.9753 57.1564 42.5599C57.0994 42.3644 57.0424 42.1689 56.9853 41.9734C56.9772 41.5254 57.0424 41.0855 57.189 40.662C57.352 40.1977 57.572 39.7497 57.7512 39.2936C57.9305 38.8293 58.0853 38.365 58.2156 37.8844H58.2075C58.069 38.3568 57.906 38.8211 57.7105 39.2773C57.5231 39.7334 57.2868 40.1733 57.1157 40.6376C56.9853 40.9715 56.9283 41.3299 56.9039 41.6883C56.749 41.1426 56.6187 40.5968 56.5698 40.0429C56.4965 39.1958 56.6594 38.3242 57.0261 37.5504C57.3764 36.8173 57.906 36.1657 58.566 35.6933C59.0549 36.7929 59.283 37.9903 59.503 39.1877L59.6741 40.1162L59.7556 40.5805L59.8533 41.0367C59.9756 41.5987 59.9837 42.177 59.8859 42.7554C59.7393 42.8368 59.5926 42.9264 59.4623 43.0242C59.12 43.2848 58.8104 43.5699 58.509 43.8794C58.3623 44.0423 58.2238 44.2053 58.126 44.4089C58.0608 44.5799 58.0364 44.7591 58.0527 44.9383L58.0445 44.9465ZM50.8012 63.5588C50.5731 64.0394 50.3042 64.4955 50.0679 64.9761C49.8316 65.4567 49.6361 65.9536 49.4813 66.4667C49.1798 67.493 49.0168 68.5438 48.862 69.6027C49.0413 68.5519 49.2042 67.5012 49.522 66.483C49.6768 65.9698 49.8642 65.4811 50.1005 65.0005C50.3368 64.52 50.6056 64.0638 50.8338 63.5832C51.2982 62.6221 51.6404 61.612 52.0071 60.6183C52.3737 59.6327 52.7648 58.6471 53.3107 57.7511C52.7567 58.6471 52.3574 59.6327 51.9826 60.6102C51.6078 61.6039 51.2575 62.6139 50.793 63.5669L50.8012 63.5588ZM44.9348 53.4666C44.5193 53.3281 44.1038 53.1897 43.6801 53.0756C42.8408 52.8313 41.9853 52.6439 41.1624 52.3507C40.3476 52.0656 39.5492 51.6502 38.9707 50.9904H38.9625C39.5329 51.6746 40.3232 52.1145 41.138 52.424C41.9609 52.7335 42.8083 52.9372 43.6475 53.1897C44.063 53.32 44.4785 53.4585 44.8859 53.6051C45.2933 53.7517 45.7007 53.9065 46.1081 54.0775C46.9147 54.3952 47.7132 54.7617 48.4954 55.1446V55.1283C47.7539 54.6803 46.9636 54.2893 46.157 53.9472C45.7496 53.7761 45.3422 53.6214 44.9267 53.4748L44.9348 53.4666ZM46.2792 51.9108C45.994 51.6339 45.717 51.3488 45.4237 51.0881C45.1304 50.8193 44.8126 50.5831 44.4704 50.3713C44.1282 50.1596 43.7778 49.9885 43.4193 49.8093C42.7023 49.4672 41.9772 49.1414 41.3335 48.6771C41.969 49.1577 42.7023 49.4835 43.4112 49.8337C43.7697 50.0048 44.12 50.184 44.4541 50.3958C44.7882 50.6076 45.1059 50.8438 45.3992 51.1126C45.6926 51.3814 45.9696 51.6583 46.2548 51.9434L47.094 52.7824C47.6562 53.3363 48.2428 53.8739 48.7561 54.4848C48.2672 53.8576 47.6806 53.32 47.1266 52.7498L46.2792 51.9108ZM62.2569 70.8897C62.1999 69.9204 61.8821 68.9999 61.5807 68.1039C61.4259 67.6559 61.2792 67.2079 61.157 66.7518C61.0918 66.5237 61.0429 66.2957 60.994 66.0676C60.9451 65.8395 60.9207 65.5789 60.7577 65.3589C60.5948 65.1472 60.4074 65.0087 60.22 64.8539C60.0326 64.6992 59.8452 64.5525 59.6496 64.4141C59.2423 64.1616 58.8186 63.9335 58.3786 63.7461C58.786 63.9986 59.1771 64.2674 59.5437 64.5688C59.7311 64.7073 59.9267 64.8458 60.1059 65.0005C60.2852 65.1553 60.4807 65.3019 60.6111 65.473C60.7414 65.6359 60.7659 65.8721 60.8148 66.1083C60.8637 66.3445 60.9125 66.5807 60.9777 66.8088C61.0999 67.2731 61.2548 67.7211 61.4096 68.1773C61.711 69.0732 62.0206 69.9774 62.0777 70.9223C62.1021 71.3947 62.1184 71.8671 62.1184 72.3396C62.1592 72.812 62.1836 73.2926 62.2325 73.765C62.2651 73.2926 62.2814 72.812 62.3058 72.3396C62.3058 72.1034 62.3058 71.8671 62.2895 71.6228L62.2569 70.906V70.8897ZM49.9538 57.3275C49.8561 57.3275 49.7583 57.3031 49.6605 57.2868C49.7583 57.3113 49.8642 57.3275 49.962 57.3275H49.9538ZM49.7664 57.0913L49.799 57.0262L49.742 56.9773C49.6198 56.8714 49.4731 56.8144 49.3183 56.7818L49.6198 56.456L49.7094 56.3582L49.5872 56.3012L49.3753 56.2035C49.4813 56.122 49.5872 56.0406 49.7094 55.9835L49.8886 55.8939L49.7094 55.8125C49.5709 55.7473 49.4405 55.6659 49.3102 55.5763L49.8968 55.2749L50.0109 55.2179L49.9131 55.1283L49.6605 54.8839C49.8561 54.8432 50.0435 54.7943 50.2227 54.721L50.3123 54.6803L50.2716 54.5907C50.2064 54.4603 50.1738 54.3137 50.1412 54.1753L50.8338 54.3952C50.8338 54.3219 50.8256 54.2567 50.8093 54.1915L50.0597 53.9553L49.9212 53.9146L49.9375 54.0531C49.9538 54.2323 50.0027 54.4115 50.0679 54.5825C49.8724 54.6558 49.6687 54.7129 49.4568 54.7454L49.2613 54.7699L49.3998 54.9083L49.685 55.1853L49.0657 55.503L48.9272 55.5763L49.0494 55.6659C49.1879 55.7636 49.3346 55.8451 49.4813 55.9184C49.3509 55.9917 49.2287 56.065 49.1146 56.1627L49.0005 56.2605L49.1391 56.3257L49.3916 56.4397L49.0739 56.7899L48.9354 56.9366H49.1391C49.2857 56.9529 49.4324 57.0099 49.5546 57.0995L49.4568 57.2787C49.522 57.2868 49.5953 57.295 49.6605 57.3031L49.7746 57.1076L49.7664 57.0913ZM50.956 54.4278C50.9397 54.3545 50.9153 54.2812 50.8908 54.2078L50.8338 54.1915C50.8501 54.2567 50.8501 54.33 50.8501 54.3952L50.956 54.4278ZM63.5932 66.1328V65.8314C63.5932 65.9291 63.5769 66.035 63.5443 66.1328C63.5117 66.2305 63.4628 66.3201 63.4139 66.3853C63.3569 66.4504 63.2917 66.4911 63.2428 66.4993C63.2184 66.4993 63.1695 66.4911 63.1206 66.4749C63.1043 66.4749 63.0717 66.4749 63.0391 66.4667C63.0554 66.3445 63.1532 66.1898 63.1776 66.0024C63.2102 65.7825 63.1858 65.5789 63.2021 65.3752C63.2184 64.968 63.2184 64.5607 63.2673 64.1616C63.2673 64.1045 63.2835 63.9986 63.2835 63.9498C63.2998 63.9742 63.3161 64.0068 63.3324 64.0475C63.3895 64.2186 63.3976 64.4304 63.4139 64.6258C63.4139 64.7317 63.4302 64.8376 63.4465 64.9354C63.4465 64.9842 63.4465 65.0331 63.4628 65.0901L63.4954 65.2368C63.5443 65.4404 63.5932 65.644 63.5932 65.8477C63.5932 65.644 63.6258 65.4404 63.6502 65.2286C63.6502 65.1797 63.6502 65.1227 63.6583 65.0738C63.6583 65.025 63.6502 64.968 63.642 64.9191C63.6339 64.8132 63.6176 64.7154 63.6176 64.6177C63.6013 64.4141 63.5932 64.2023 63.528 63.9824C63.5035 63.9253 63.4872 63.8683 63.4302 63.8113C63.3976 63.7787 63.365 63.7624 63.3324 63.7461C63.3161 63.7461 63.2835 63.7299 63.2509 63.738C63.2184 63.738 63.1776 63.7706 63.1532 63.795C63.1124 63.8439 63.1124 63.8846 63.1124 63.909C63.1124 63.9416 63.1124 63.9661 63.1124 63.9905C63.1124 64.0149 63.1124 64.0394 63.1124 64.0638V64.1371C63.0554 64.5444 63.0473 64.9598 63.031 65.3752C63.0147 65.5789 63.031 65.7906 63.0065 65.978C62.9902 66.0676 62.9576 66.149 62.9169 66.2549C62.8762 66.3527 62.8354 66.4749 62.8762 66.6133L62.925 66.7762L63.0228 66.6622C63.0228 66.6622 63.0473 66.6541 63.0961 66.6622C63.1369 66.6703 63.1939 66.6948 63.2673 66.6948C63.3406 66.6948 63.4139 66.6703 63.4628 66.6215C63.5117 66.5726 63.5443 66.5237 63.5687 66.4667C63.6095 66.3608 63.6176 66.2468 63.6176 66.149L63.5932 66.1328ZM40.9343 50.5831C41.4639 50.8275 42.0016 51.0393 42.5394 51.2429L44.1608 51.862L42.5394 51.2266C42.0016 51.0148 41.4639 50.7949 40.9424 50.5505C40.421 50.298 39.9158 50.0211 39.4432 49.6871C38.9788 49.345 38.4574 49.0681 38.0826 48.6201C38.4411 49.0925 38.9625 49.3776 39.4188 49.7279C39.8914 50.0618 40.4047 50.3469 40.9343 50.5831ZM60.8229 36.3612C61.0022 35.8725 61.2303 35.4082 61.5073 34.9683C61.2222 35.4 60.9777 35.8643 60.7985 36.3531C60.7089 36.5974 60.6192 36.8418 60.5622 37.1024C60.5215 37.3549 60.5052 37.64 60.6274 37.8763C60.5378 37.6319 60.5459 37.3631 60.6029 37.1187C60.66 36.8662 60.7414 36.6219 60.8229 36.3775V36.3612ZM55.3232 58.9811C55.315 58.9811 55.2988 58.9729 55.2906 58.9648C55.3069 58.9729 55.3151 58.9811 55.3313 58.9892L55.3232 58.9811ZM41.8876 68.8859C42.3927 68.7149 42.8979 68.5357 43.3949 68.3483C44.3889 67.9736 45.3748 67.5663 46.3444 67.1184C45.3748 67.5419 44.3808 67.941 43.3867 68.3076C42.8897 68.4868 42.3846 68.666 41.8794 68.837C41.3743 69.0162 40.8691 69.171 40.3639 69.3339C40.8772 69.2036 41.3824 69.0407 41.8957 68.8778L41.8876 68.8859ZM53.7262 57.1809C53.7751 57.1809 53.824 57.1646 53.881 57.1646C53.881 57.1646 53.8892 57.1565 53.8973 57.1483C53.8403 57.1565 53.7833 57.1728 53.7344 57.1809H53.7262ZM55.0299 58.6797C55.1276 58.7774 55.2173 58.8752 55.315 58.9729C55.3395 58.9892 55.3721 58.9974 55.3965 59.0136C55.2662 58.8507 55.1277 58.696 54.981 58.5412C54.9973 58.5819 55.0136 58.6308 55.0299 58.6715V58.6797ZM49.5627 57.4497L49.6442 57.3031C49.579 57.3031 49.5057 57.295 49.4405 57.2868L49.4242 57.3113C49.4813 57.3113 49.5383 57.3113 49.5953 57.3113C49.5383 57.3113 49.4731 57.3275 49.4161 57.3357L49.3346 57.4904L49.2857 57.5801C49.4242 57.6045 49.5546 57.6208 49.6931 57.6452L50.5323 57.7837C50.459 57.7593 50.3857 57.743 50.3123 57.7104C50.0842 57.6208 49.8398 57.5067 49.5709 57.466L49.5627 57.4497ZM61.6377 36.9477L61.5888 37.5993C61.5644 37.8192 61.5562 38.031 61.5725 38.2509C61.6051 38.0392 61.6214 37.8192 61.6214 37.5993L61.6377 36.9477ZM56.9202 58.5168C57.1401 58.4353 57.3438 58.3376 57.5475 58.2235C57.9468 57.9873 58.3053 57.6941 58.623 57.3601C59.2586 56.6922 59.723 55.8777 60.1548 55.0713C60.5866 54.2649 60.994 53.434 61.5562 52.7009C62.1021 51.976 62.8028 51.3162 63.6746 50.9985C62.8028 51.3081 62.094 51.9597 61.5399 52.6846C60.9777 53.4177 60.5622 54.2486 60.1304 55.055C59.6985 55.8614 59.2341 56.6678 58.5986 57.3357C57.9794 58.0036 57.1727 58.5412 56.252 58.6715C56.4802 58.6471 56.7083 58.5901 56.9202 58.5168ZM47.1184 63.3144C46.2873 64.2104 45.3911 65.0494 44.446 65.8151C43.9652 66.1979 43.4764 66.5645 42.9794 66.9066C42.4823 67.2568 41.969 67.5908 41.4476 67.9085C41.9853 67.6152 42.4986 67.2894 43.0038 66.9391C43.509 66.5889 43.9978 66.2224 44.4704 65.8314C45.4155 65.0576 46.3036 64.2104 47.1266 63.3063L47.1184 63.3144ZM53.8077 56.6026L53.824 56.5537L53.9544 56.1627L54.0603 56.1872H54.0847V56.1709C54.1418 55.8939 54.1418 55.6007 54.0847 55.3156H54.0684C54.1173 55.5926 54.1092 55.8695 54.044 56.1383L53.9381 56.1139H53.9218V56.1302L53.7833 56.4967C53.7833 56.4967 53.7018 56.4315 53.6366 56.4234C53.5959 56.4234 53.547 56.4397 53.5225 56.4723C53.4981 56.5049 53.49 56.5293 53.4737 56.5619L53.3189 56.8551C53.2292 56.7737 53.1396 56.6922 53.0011 56.6678C52.9278 56.6515 52.8463 56.6678 52.7729 56.7003C52.7404 56.7166 52.7078 56.7492 52.6833 56.7818C52.6589 56.8225 52.6507 56.8551 52.6344 56.8877C52.6263 56.9203 52.61 56.9366 52.6018 56.9366C52.6018 56.9366 52.5856 56.9366 52.5611 56.9203L52.4063 56.7981L52.0967 56.5374L52.0397 56.4886L51.9989 56.5619L51.8686 56.8062C51.8278 56.8877 51.7789 56.9936 51.7545 56.9854C51.7545 56.9854 51.7137 56.9773 51.673 56.9528L51.5508 56.8877L51.3064 56.7574L51.2249 56.7166L51.2004 56.8062C51.1678 56.9284 51.1434 57.0424 51.119 57.1646C50.9316 57.0913 50.736 57.0343 50.5323 57.0099L50.4264 56.9936L50.4834 57.075C50.4834 57.075 50.4916 57.1565 50.459 57.1972C50.4264 57.2379 50.3694 57.2624 50.3205 57.2542C50.2064 57.2461 50.1086 57.1483 50.0272 57.0587H50.019C50.0923 57.1646 50.1738 57.2787 50.3205 57.3194C50.3938 57.3357 50.4671 57.3113 50.5242 57.2624C50.5568 57.2298 50.5812 57.1809 50.5812 57.1239C50.7768 57.1728 50.9641 57.2298 51.1515 57.3194L51.2167 57.352L51.2412 57.2787C51.2738 57.1646 51.2982 57.0587 51.3308 56.9447L51.4938 57.0343L51.616 57.0995C51.616 57.0995 51.7056 57.1565 51.7952 57.1483C51.8848 57.1321 51.9174 57.0587 51.9419 57.018L51.9989 56.8877L52.0885 56.7085L52.3411 56.904L52.5041 57.0343C52.5041 57.0343 52.5937 57.0832 52.6507 57.0587C52.7078 57.0262 52.7241 56.9773 52.7322 56.9447C52.7485 56.8714 52.773 56.8388 52.8218 56.8144C52.8707 56.7899 52.9278 56.7818 52.9848 56.7899C53.0989 56.8062 53.2048 56.8958 53.3026 56.9854L53.3433 57.0262L53.3677 56.9773L53.5388 56.6352C53.5714 56.57 53.5877 56.5293 53.6366 56.5293C53.6855 56.5293 53.7344 56.57 53.7833 56.6107L53.8159 56.6433L53.8077 56.6026Z" fill="#E1CEB2"/>
<path d="M28.4927 104.954H29.3889V106.29H28.4927V104.954ZM29.3971 106.95V116.382H28.5008V106.95H29.3971Z" fill="#E1CEB2"/>
<path d="M32.534 114.492C32.6888 114.818 32.9088 115.079 33.1858 115.274C33.4629 115.47 33.7888 115.608 34.1717 115.69C34.5465 115.771 34.9539 115.812 35.3857 115.812C35.6302 115.812 35.899 115.779 36.1923 115.706C36.4857 115.633 36.7545 115.527 37.0071 115.372C37.2597 115.217 37.4634 115.022 37.6345 114.777C37.8056 114.533 37.8871 114.24 37.8871 113.898C37.8871 113.637 37.83 113.401 37.7078 113.213C37.5856 113.018 37.4308 112.855 37.2434 112.725C37.056 112.594 36.8442 112.488 36.616 112.399C36.3879 112.309 36.1598 112.244 35.9398 112.195L33.8376 111.682C33.5606 111.609 33.2999 111.527 33.0392 111.421C32.7784 111.315 32.5503 111.177 32.3548 110.998C32.1592 110.819 32.0044 110.607 31.8822 110.346C31.76 110.094 31.7029 109.776 31.7029 109.409C31.7029 109.181 31.7437 108.913 31.8333 108.603C31.9229 108.294 32.0859 108.008 32.3303 107.731C32.5747 107.455 32.9088 107.226 33.3243 107.039C33.7399 106.852 34.2858 106.754 34.9457 106.754C35.4102 106.754 35.8583 106.819 36.282 106.941C36.7057 107.064 37.0723 107.251 37.3901 107.495C37.7078 107.74 37.9604 108.049 38.1478 108.416C38.3352 108.782 38.433 109.206 38.433 109.686H37.5367C37.5204 109.328 37.439 109.01 37.2923 108.742C37.1456 108.473 36.9582 108.245 36.722 108.065C36.4857 107.886 36.2168 107.748 35.9153 107.658C35.6139 107.569 35.2879 107.52 34.9539 107.52C34.6443 107.52 34.351 107.552 34.0658 107.617C33.7806 107.683 33.528 107.788 33.3162 107.935C33.1044 108.082 32.9251 108.269 32.7947 108.513C32.6644 108.75 32.5992 109.043 32.5992 109.401C32.5992 109.621 32.6399 109.817 32.7133 109.98C32.7866 110.143 32.8925 110.281 33.0229 110.395C33.1532 110.509 33.308 110.599 33.4791 110.672C33.6503 110.745 33.8295 110.802 34.025 110.843L36.3227 111.413C36.6568 111.503 36.9745 111.609 37.2679 111.739C37.5612 111.869 37.8219 112.024 38.05 112.211C38.2782 112.399 38.4493 112.635 38.5796 112.904C38.71 113.173 38.7752 113.507 38.7752 113.898C38.7752 114.003 38.767 114.142 38.7426 114.321C38.7181 114.5 38.6693 114.688 38.5878 114.883C38.5063 115.079 38.3841 115.282 38.2293 115.486C38.0745 115.69 37.8626 115.869 37.5938 116.032C37.3249 116.195 36.9908 116.325 36.5997 116.431C36.2086 116.537 35.7279 116.586 35.1739 116.586C34.6198 116.586 34.1065 116.52 33.6258 116.39C33.1532 116.26 32.7458 116.064 32.4118 115.804C32.0777 115.543 31.817 115.201 31.6378 114.785C31.4585 114.37 31.377 113.873 31.4096 113.295H32.3059C32.2977 113.784 32.3711 114.183 32.534 114.508V114.492Z" fill="#E1CEB2"/>
<path d="M47.1999 106.95V107.715H43.9082V116.382H43.012V107.715H39.7366V106.95H47.1999Z" fill="#E1CEB2"/>
<path d="M51.4857 106.95L55.1848 116.382H54.2233L53.0745 113.45H48.7806L47.6481 116.382H46.6948L50.4835 106.95H51.4857ZM52.7649 112.684L50.9398 107.854L49.0495 112.684H52.7649Z" fill="#E1CEB2"/>
<path d="M57.5639 106.95L63.0637 114.924H63.0881V106.95H63.9844V116.382H62.9822L57.4825 108.408H57.458V116.382H56.5618V106.95H57.5639Z" fill="#E1CEB2"/>
<path d="M70.3964 106.95C70.7957 106.95 71.1705 106.99 71.5371 107.064C71.9038 107.137 72.2215 107.267 72.4986 107.446C72.7756 107.626 72.9956 107.862 73.1667 108.163C73.3378 108.456 73.4193 108.823 73.4193 109.263C73.4193 109.507 73.3785 109.752 73.297 109.98C73.2156 110.216 73.1015 110.428 72.963 110.615C72.8163 110.802 72.6452 110.965 72.4497 111.096C72.2541 111.226 72.026 111.324 71.7816 111.372V111.397C72.3926 111.478 72.8734 111.723 73.2319 112.146C73.5904 112.562 73.7696 113.083 73.7696 113.694C73.7696 113.841 73.7533 114.012 73.7289 114.199C73.7044 114.386 73.6474 114.582 73.5741 114.777C73.4926 114.973 73.3785 115.168 73.2319 115.364C73.0852 115.559 72.8815 115.73 72.6289 115.869C72.3764 116.015 72.0667 116.129 71.7082 116.227C71.3416 116.317 70.9016 116.366 70.3964 116.366H66.4041V106.933H70.3964V106.95ZM70.3964 111.087C70.755 111.087 71.0727 111.047 71.3334 110.965C71.5942 110.884 71.8142 110.77 71.9934 110.623C72.1727 110.476 72.303 110.305 72.3926 110.118C72.4823 109.931 72.523 109.719 72.523 109.499C72.523 108.318 71.8142 107.731 70.3964 107.731H67.3085V111.104H70.3964V111.087ZM70.3964 115.616C70.7305 115.616 71.0483 115.592 71.3497 115.535C71.6512 115.478 71.9119 115.372 72.1401 115.225C72.3682 115.079 72.5475 114.875 72.686 114.623C72.8163 114.37 72.8815 114.06 72.8815 113.678C72.8815 113.067 72.6697 112.611 72.2378 112.309C71.8142 112.008 71.1949 111.853 70.3964 111.853H67.3085V115.616H70.3964Z" fill="#E1CEB2"/>
<path d="M76.5482 106.95V112.79C76.5482 113.336 76.6133 113.8 76.7356 114.183C76.8578 114.565 77.037 114.875 77.2815 115.119C77.5177 115.364 77.8111 115.535 78.1533 115.649C78.4955 115.755 78.8866 115.812 79.3184 115.812C79.7502 115.812 80.1495 115.755 80.4917 115.649C80.8339 115.543 81.1272 115.364 81.3635 115.119C81.5998 114.875 81.779 114.565 81.9012 114.183C82.0234 113.8 82.0886 113.336 82.0886 112.79V106.95H82.9849V112.985C82.9849 113.466 82.9197 113.93 82.7812 114.362C82.6427 114.802 82.4308 115.176 82.1375 115.502C81.8442 115.828 81.4613 116.089 81.005 116.276C80.5406 116.463 79.9784 116.561 79.3184 116.561C78.6584 116.561 78.1125 116.463 77.6481 116.276C77.1837 116.089 76.8089 115.828 76.5156 115.502C76.2223 115.176 76.0023 114.794 75.8719 114.362C75.7334 113.922 75.6682 113.466 75.6682 112.985V106.95H76.5645H76.5482Z" fill="#E1CEB2"/>
<path d="M86.2195 106.95V115.616H91.5074V116.382H85.3232V106.95H86.2195Z" fill="#E1CEB2"/>
<path d="M28.1586 89.836C28.1586 93.648 25.2417 95.4319 21.73 95.4319H19.6523V100.213H15.7007V84.0364H21.7382C25.7631 84.0364 28.1667 86.3497 28.1667 89.836H28.1586ZM24.1336 89.836C24.1336 88.5897 23.2536 87.7752 21.73 87.7752H19.6523V91.8886H21.73C23.164 91.8886 24.1336 91.2451 24.1336 89.8278V89.836Z" fill="#E1CEB2"/>
<path d="M39.8588 97.2157H33.7317L32.7865 100.221H28.623L34.4487 84.0446H39.1173L44.943 100.221H40.8039L39.8588 97.2157ZM38.9136 94.2101L36.7871 87.4819L34.6605 94.2101H38.9136Z" fill="#E1CEB2"/>
<path d="M57.5067 96.4989V100.221H47.4932V84.0446H51.4693V96.5071H57.5067V96.4989Z" fill="#E1CEB2"/>
<path d="M70.5919 97.2157H64.4648L63.5197 100.221H59.3562L65.1818 84.0446H69.8505L75.6761 100.221H71.5371L70.5919 97.2157ZM69.6468 94.2101L67.5202 87.4819L65.3937 94.2101H69.6468Z" fill="#E1CEB2"/>
<path d="M88.4275 95.2038L91.7355 97.3786C90.277 99.3172 87.9631 100.523 85.1928 100.523C80.4101 100.523 76.9636 96.9388 76.9636 92.133C76.9636 87.3272 80.4101 83.7676 85.1928 83.7676C87.9712 83.7676 90.277 84.9731 91.7355 86.8873L88.4275 89.0621C87.7349 88.1824 86.6431 87.5797 85.1928 87.5797C82.3737 87.5797 80.9397 89.8441 80.9397 92.133C80.9397 94.4218 82.3737 96.7107 85.1928 96.7107C86.6513 96.7107 87.7349 96.1079 88.4275 95.2119V95.2038Z" fill="#E1CEB2"/>
<path d="M104.307 96.5071V100.23H94.3345V84.0527H104.299V87.7996H98.2861V90.2921H103.558V93.8272H98.2861V96.5071H104.299H104.307Z" fill="#E1CEB2"/>
</g>
<defs>
<clipPath id="clip0_31_96077">
<rect width="120" height="151" fill="white"/>
</clipPath>
</defs>
</svg>
