<svg width="158" height="30" viewBox="0 0 158 30" fill="none" xmlns="http://www.w3.org/2000/svg">
<path d="M0.231689 0.732239H2.47232V4.07629H0.231689V0.732239ZM2.49269 5.72792V29.3402H0.252055V5.72792H2.49269Z" fill="#E1CEB2"/>
<path d="M10.3349 24.6095C10.7219 25.4252 11.2719 26.0777 11.9644 26.5671C12.657 27.0564 13.4718 27.4031 14.4291 27.607C15.3661 27.8109 16.3846 27.9128 17.4642 27.9128C18.0753 27.9128 18.7474 27.8313 19.4807 27.6477C20.214 27.4642 20.8862 27.1992 21.5177 26.8117C22.1491 26.4243 22.6584 25.9349 23.0861 25.3232C23.5139 24.7115 23.7176 23.9774 23.7176 23.121C23.7176 22.4685 23.575 21.8772 23.2694 21.4082C22.9639 20.9189 22.5769 20.5111 22.1084 20.1848C21.6399 19.8586 21.1103 19.5935 20.54 19.3692C19.9696 19.1449 19.3993 18.9818 18.8493 18.8594L13.594 17.5748C12.9014 17.3913 12.2496 17.1874 11.5978 16.9223C10.946 16.6572 10.3756 16.3106 9.88677 15.862C9.39791 15.4134 9.01089 14.8833 8.70535 14.2308C8.39981 13.5987 8.25723 12.8034 8.25723 11.8859C8.25723 11.3149 8.35907 10.642 8.58314 9.86719C8.8072 9.09235 9.21459 8.37866 9.82567 7.68538C10.4367 6.99211 11.2719 6.42119 12.3107 5.95221C13.3496 5.48322 14.7143 5.23853 16.3642 5.23853C17.5253 5.23853 18.6456 5.40164 19.7048 5.7075C20.764 6.01336 21.6806 6.48236 22.475 7.09407C23.2694 7.70579 23.9009 8.48064 24.3694 9.39821C24.8379 10.3158 25.0823 11.3761 25.0823 12.5791H22.8417C22.801 11.682 22.5973 10.8867 22.2306 10.2138C21.864 9.54094 21.3955 8.97 20.8048 8.5214C20.214 8.07281 19.5419 7.72617 18.7882 7.50188C18.0345 7.27758 17.2197 7.15524 16.3846 7.15524C15.6106 7.15524 14.8773 7.23679 14.1643 7.39992C13.4514 7.56304 12.82 7.82812 12.2904 8.19515C11.7608 8.56218 11.3126 9.03117 10.9867 9.64289C10.6608 10.2342 10.4979 10.9683 10.4979 11.8655C10.4979 12.416 10.5997 12.9054 10.783 13.3132C10.9664 13.721 11.2312 14.0676 11.5571 14.3531C11.883 14.6386 12.27 14.8629 12.6977 15.0464C13.1255 15.2299 13.5736 15.3726 14.0625 15.4746L19.8067 16.9019C20.6418 17.1262 21.4362 17.3913 22.1695 17.7175C22.9028 18.0438 23.5546 18.4312 24.125 18.9002C24.6953 19.3692 25.1231 19.9605 25.449 20.6334C25.7749 21.3063 25.9378 22.1423 25.9378 23.121C25.9378 23.3861 25.9175 23.7328 25.8564 24.1814C25.7952 24.63 25.673 25.0989 25.4693 25.5883C25.2656 26.0777 24.9601 26.5874 24.5731 27.0972C24.1861 27.607 23.6565 28.0555 22.9843 28.4634C22.3121 28.8712 21.4769 29.1974 20.4992 29.4625C19.5215 29.7276 18.3197 29.8499 16.9346 29.8499C15.5495 29.8499 14.2662 29.6868 13.0644 29.3605C11.883 29.0343 10.8645 28.5449 10.0294 27.8924C9.19421 27.2399 8.5424 26.3835 8.09427 25.3436C7.64615 24.3037 7.44245 23.0599 7.52393 21.6121H9.76456C9.74419 22.8356 9.92751 23.8347 10.3349 24.6503V24.6095Z" fill="#E1CEB2"/>
<path d="M46.9998 5.72791V7.64462H38.7705V29.3402H36.5299V7.64462H28.3414V5.72791H46.9998Z" fill="#E1CEB2"/>
<path d="M57.714 5.72791L66.9617 29.3402H64.5581L61.686 21.9996H50.9514L48.12 29.3402H45.7368L55.2086 5.72791H57.714ZM60.912 20.0828L56.3493 7.99126L51.6236 20.0828H60.912Z" fill="#E1CEB2"/>
<path d="M72.9096 5.72791L86.6589 25.6902H86.72V5.72791H88.9607V29.3402H86.4552L72.7059 9.3778H72.6448V29.3402H70.4042V5.72791H72.9096Z" fill="#E1CEB2"/>
<path d="M104.991 5.72792C105.989 5.72792 106.926 5.82988 107.843 6.01339C108.76 6.1969 109.554 6.52316 110.247 6.97175C110.939 7.42034 111.489 8.01165 111.917 8.7661C112.345 9.50016 112.548 10.4177 112.548 11.5188C112.548 12.1305 112.446 12.7423 112.243 13.3132C112.039 13.9045 111.754 14.4347 111.408 14.9037C111.041 15.3727 110.613 15.7805 110.124 16.1067C109.636 16.433 109.065 16.6776 108.454 16.8V16.8611C109.982 17.0651 111.184 17.6768 112.08 18.7371C112.976 19.777 113.424 21.082 113.424 22.6113C113.424 22.9783 113.383 23.4065 113.322 23.8755C113.261 24.3445 113.119 24.8339 112.935 25.3232C112.732 25.8126 112.446 26.302 112.08 26.7914C111.713 27.2807 111.204 27.7089 110.573 28.0556C109.941 28.4226 109.167 28.7081 108.271 28.9528C107.354 29.1771 106.254 29.2994 104.991 29.2994H95.0103V5.68713H104.991V5.72792ZM104.991 16.0863C105.888 16.0863 106.682 15.9844 107.334 15.7804C107.986 15.5765 108.536 15.2911 108.984 14.9241C109.432 14.557 109.758 14.1288 109.982 13.6598C110.206 13.1909 110.308 12.6607 110.308 12.1101C110.308 9.15351 108.536 7.6854 104.991 7.6854H97.2713V16.1271H104.991V16.0863ZM104.991 27.4235C105.826 27.4235 106.621 27.3623 107.375 27.2195C108.128 27.0768 108.78 26.8118 109.35 26.4447C109.921 26.0777 110.369 25.5679 110.715 24.9358C111.041 24.3037 111.204 23.5289 111.204 22.5705C111.204 21.0412 110.674 19.8994 109.595 19.1449C108.536 18.3905 106.988 18.003 104.991 18.003H97.2713V27.4235H104.991Z" fill="#E1CEB2"/>
<path d="M120.37 5.72791V20.3479C120.37 21.7141 120.533 22.8763 120.839 23.8347C121.144 24.793 121.592 25.5679 122.203 26.1796C122.794 26.7913 123.527 27.2195 124.383 27.505C125.238 27.7701 126.216 27.9128 127.296 27.9128C128.375 27.9128 129.373 27.7701 130.229 27.505C131.084 27.2399 131.818 26.7913 132.408 26.1796C132.999 25.5679 133.447 24.793 133.753 23.8347C134.058 22.8763 134.221 21.7141 134.221 20.3479V5.72791H136.462V20.8373C136.462 22.0404 136.299 23.2026 135.953 24.2833C135.606 25.3844 135.077 26.3224 134.344 27.138C133.61 27.9536 132.653 28.6061 131.512 29.0751C130.351 29.5441 128.946 29.7888 127.296 29.7888C125.646 29.7888 124.281 29.5441 123.12 29.0751C121.959 28.6061 121.022 27.9536 120.289 27.138C119.555 26.3224 119.005 25.364 118.68 24.2833C118.333 23.1822 118.17 22.0404 118.17 20.8373V5.72791H120.411H120.37Z" fill="#E1CEB2"/>
<path d="M144.549 5.72791V27.4234H157.768V29.3402H142.308V5.72791H144.549Z" fill="#E1CEB2"/>
</svg>
